%TF.GenerationSoftware,KiCad,Pcbnew,(6.0.2)*%
%TF.CreationDate,2022-03-21T22:20:15-04:00*%
%TF.ProjectId,carpal26_1.0.12,63617270-616c-4323-965f-312e302e3132,rev?*%
%TF.SameCoordinates,Original*%
%TF.FileFunction,Copper,L2,Bot*%
%TF.FilePolarity,Positive*%
%FSLAX46Y46*%
G04 Gerber Fmt 4.6, Leading zero omitted, Abs format (unit mm)*
G04 Created by KiCad (PCBNEW (6.0.2)) date 2022-03-21 22:20:15*
%MOMM*%
%LPD*%
G01*
G04 APERTURE LIST*
%TA.AperFunction,ComponentPad*%
%ADD10C,1.930400*%
%TD*%
%TA.AperFunction,ComponentPad*%
%ADD11C,2.540000*%
%TD*%
%TA.AperFunction,ComponentPad*%
%ADD12C,1.676400*%
%TD*%
%TA.AperFunction,ComponentPad*%
%ADD13O,1.800000X3.600000*%
%TD*%
%TA.AperFunction,ComponentPad*%
%ADD14C,1.879600*%
%TD*%
%TA.AperFunction,ComponentPad*%
%ADD15C,2.000000*%
%TD*%
%TA.AperFunction,ViaPad*%
%ADD16C,0.800000*%
%TD*%
%TA.AperFunction,Conductor*%
%ADD17C,0.200000*%
%TD*%
%TA.AperFunction,Conductor*%
%ADD18C,0.250000*%
%TD*%
G04 APERTURE END LIST*
D10*
X83820000Y-83820000D03*
X93980000Y-83820000D03*
D11*
X85090000Y-81280000D03*
X91440000Y-78740000D03*
D12*
X118618000Y-100584000D03*
X128778000Y-100584000D03*
X118618000Y-112776000D03*
X128778000Y-112776000D03*
X160782000Y-109728000D03*
X150622000Y-109728000D03*
D10*
X185420000Y-124460000D03*
X195580000Y-124460000D03*
D11*
X186690000Y-121920000D03*
X193040000Y-119380000D03*
D12*
X160782000Y-118872000D03*
X150622000Y-118872000D03*
D10*
X63500000Y-124460000D03*
X73660000Y-124460000D03*
D11*
X64770000Y-121920000D03*
X71120000Y-119380000D03*
D10*
X43180000Y-104140000D03*
X53340000Y-104140000D03*
D11*
X44450000Y-101600000D03*
X50800000Y-99060000D03*
D10*
X63500000Y-83820000D03*
X73660000Y-83820000D03*
D11*
X64770000Y-81280000D03*
X71120000Y-78740000D03*
D12*
X118618000Y-106680000D03*
X128778000Y-106680000D03*
X160782000Y-115824000D03*
X150622000Y-115824000D03*
D10*
X205740000Y-83820000D03*
X215900000Y-83820000D03*
D11*
X207010000Y-81280000D03*
X213360000Y-78740000D03*
D13*
X144700000Y-129780000D03*
X134700000Y-129780000D03*
X139700000Y-129780000D03*
X144700000Y-114780000D03*
X134700000Y-114780000D03*
D10*
X43180000Y-124460000D03*
X53340000Y-124460000D03*
D11*
X44450000Y-121920000D03*
X50800000Y-119380000D03*
D10*
X63500000Y-104140000D03*
X73660000Y-104140000D03*
D11*
X64770000Y-101600000D03*
X71120000Y-99060000D03*
D10*
X226060000Y-104360000D03*
X236220000Y-104360000D03*
D11*
X227330000Y-101820000D03*
X233680000Y-99280000D03*
D10*
X226060000Y-83820000D03*
X236220000Y-83820000D03*
D11*
X227330000Y-81280000D03*
X233680000Y-78740000D03*
D12*
X160782000Y-100584000D03*
X150622000Y-100584000D03*
X160782000Y-97536000D03*
X150622000Y-97536000D03*
X160782000Y-112776000D03*
X150622000Y-112776000D03*
X118618000Y-124968000D03*
X128778000Y-124968000D03*
D10*
X83820000Y-124460000D03*
X93980000Y-124460000D03*
D11*
X85090000Y-121920000D03*
X91440000Y-119380000D03*
D10*
X185420000Y-83820000D03*
X195580000Y-83820000D03*
D11*
X186690000Y-81280000D03*
X193040000Y-78740000D03*
D10*
X165100000Y-83820000D03*
X175260000Y-83820000D03*
D11*
X166370000Y-81280000D03*
X172720000Y-78740000D03*
D10*
X165100000Y-104360000D03*
X175260000Y-104360000D03*
D11*
X166370000Y-101820000D03*
X172720000Y-99280000D03*
D14*
X132080000Y-76200000D03*
X132080000Y-78740000D03*
X132080000Y-81280000D03*
X132080000Y-83820000D03*
X132080000Y-86360000D03*
X132080000Y-88900000D03*
X132080000Y-91440000D03*
X132080000Y-93980000D03*
X132080000Y-96520000D03*
X132080000Y-99060000D03*
X132080000Y-101600000D03*
X132080000Y-104140000D03*
X147320000Y-104140000D03*
X147320000Y-101600000D03*
X147320000Y-99060000D03*
X147320000Y-96520000D03*
X147320000Y-93980000D03*
X147320000Y-91440000D03*
X147320000Y-88900000D03*
X147320000Y-86360000D03*
X147320000Y-83820000D03*
X147320000Y-81280000D03*
X147320000Y-78740000D03*
X147320000Y-76200000D03*
D12*
X118618000Y-115824000D03*
X128778000Y-115824000D03*
D10*
X185420000Y-104360000D03*
X195580000Y-104360000D03*
D11*
X186690000Y-101820000D03*
X193040000Y-99280000D03*
D10*
X104140000Y-104140000D03*
X114300000Y-104140000D03*
D11*
X105410000Y-101600000D03*
X111760000Y-99060000D03*
D12*
X118618000Y-118872000D03*
X128778000Y-118872000D03*
X118618000Y-97536000D03*
X128778000Y-97536000D03*
X160782000Y-91440000D03*
X150622000Y-91440000D03*
X160782000Y-106680000D03*
X150622000Y-106680000D03*
X118618000Y-91440000D03*
X128778000Y-91440000D03*
X160782000Y-85344000D03*
X150622000Y-85344000D03*
X160782000Y-88392000D03*
X150622000Y-88392000D03*
D10*
X104140000Y-83820000D03*
X114300000Y-83820000D03*
D11*
X105410000Y-81280000D03*
X111760000Y-78740000D03*
D12*
X160782000Y-94488000D03*
X150622000Y-94488000D03*
D10*
X43180000Y-83820000D03*
X53340000Y-83820000D03*
D11*
X44450000Y-81280000D03*
X50800000Y-78740000D03*
D10*
X165100000Y-124460000D03*
X175260000Y-124460000D03*
D11*
X166370000Y-121920000D03*
X172720000Y-119380000D03*
D10*
X83820000Y-104140000D03*
X93980000Y-104140000D03*
D11*
X85090000Y-101600000D03*
X91440000Y-99060000D03*
D12*
X118618000Y-94488000D03*
X128778000Y-94488000D03*
D10*
X22860000Y-124460000D03*
X33020000Y-124460000D03*
D11*
X24130000Y-121920000D03*
X30480000Y-119380000D03*
D10*
X22860000Y-104140000D03*
X33020000Y-104140000D03*
D11*
X24130000Y-101600000D03*
X30480000Y-99060000D03*
D12*
X118618000Y-85344000D03*
X128778000Y-85344000D03*
D15*
X152452000Y-127726000D03*
X158952000Y-127726000D03*
X158952000Y-123226000D03*
X152452000Y-123226000D03*
D12*
X160782000Y-103632000D03*
X150622000Y-103632000D03*
D10*
X104140000Y-124460000D03*
X114300000Y-124460000D03*
D11*
X105410000Y-121920000D03*
X111760000Y-119380000D03*
D10*
X246380000Y-83820000D03*
X256540000Y-83820000D03*
D11*
X247650000Y-81280000D03*
X254000000Y-78740000D03*
D12*
X118618000Y-88392000D03*
X128778000Y-88392000D03*
X118618000Y-109728000D03*
X128778000Y-109728000D03*
D10*
X205740000Y-104360000D03*
X215900000Y-104360000D03*
D11*
X207010000Y-101820000D03*
X213360000Y-99280000D03*
D12*
X118618000Y-103632000D03*
X128778000Y-103632000D03*
X118618000Y-121920000D03*
X128778000Y-121920000D03*
D10*
X22860000Y-83820000D03*
X33020000Y-83820000D03*
D11*
X24130000Y-81280000D03*
X30480000Y-78740000D03*
D12*
X118618000Y-128016000D03*
X128778000Y-128016000D03*
D16*
X150876000Y-124714000D03*
X142023500Y-103886000D03*
X145796000Y-81534000D03*
X157734000Y-125984000D03*
X143256000Y-79502000D03*
X145288000Y-105955500D03*
X115748386Y-88596197D03*
X115265284Y-107986306D03*
X116730789Y-88900000D03*
X116078000Y-107404500D03*
X117089701Y-87888299D03*
X112776000Y-114649980D03*
X117094000Y-101600000D03*
X109220000Y-99930011D03*
X110236000Y-101379011D03*
X115824000Y-115099500D03*
X164084000Y-113030000D03*
X162437299Y-87761299D03*
X163517300Y-87705897D03*
X163322000Y-107950000D03*
X164592000Y-87884000D03*
X135889989Y-88773008D03*
X135504701Y-75061299D03*
X134424700Y-75005897D03*
X135128000Y-91440000D03*
X133858000Y-93726000D03*
X134366000Y-78486000D03*
X126238000Y-77253500D03*
X127000000Y-80772000D03*
X134620000Y-96520000D03*
X137630500Y-81280000D03*
X139192000Y-74422000D03*
X135128000Y-98552000D03*
X140208000Y-74676000D03*
X157734000Y-74676000D03*
X135636000Y-101346000D03*
X159258000Y-73189500D03*
X139700000Y-78486000D03*
X136144000Y-103886000D03*
X136906000Y-84836000D03*
X136906000Y-76200000D03*
X143764000Y-82804000D03*
X144272000Y-89408000D03*
X145034000Y-91694000D03*
X161798000Y-99060000D03*
X152146000Y-104902000D03*
X165354000Y-88646000D03*
X152654000Y-100076000D03*
X149098000Y-72644000D03*
X130302000Y-72644000D03*
X132588000Y-111760000D03*
X149352000Y-110998000D03*
X146812000Y-120650000D03*
X142748000Y-87630000D03*
D17*
X146050000Y-81280000D02*
X145796000Y-81534000D01*
X147320000Y-81280000D02*
X146050000Y-81280000D01*
X150876000Y-124714000D02*
X156464000Y-124714000D01*
X144018000Y-78740000D02*
X143256000Y-79502000D01*
X144093000Y-105955500D02*
X142023500Y-103886000D01*
X147320000Y-78740000D02*
X144018000Y-78740000D01*
X156464000Y-124714000D02*
X157734000Y-125984000D01*
X145288000Y-105955500D02*
X144093000Y-105955500D01*
D18*
X24130000Y-81280000D02*
X24130000Y-83368364D01*
X24130000Y-83368364D02*
X29153636Y-88392000D01*
X115427229Y-88275040D02*
X115748386Y-88596197D01*
X58166000Y-88392000D02*
X58282960Y-88275040D01*
X115316000Y-88275040D02*
X115427229Y-88275040D01*
X58282960Y-88275040D02*
X115316000Y-88275040D01*
X29153636Y-88392000D02*
X58166000Y-88392000D01*
X68326000Y-107696000D02*
X114974978Y-107696000D01*
X44912072Y-107696000D02*
X68326000Y-107696000D01*
X24130000Y-101600000D02*
X38816072Y-101600000D01*
X38816072Y-101600000D02*
X44912072Y-107696000D01*
X114974978Y-107696000D02*
X115265284Y-107986306D01*
X117602000Y-128016000D02*
X118618000Y-128016000D01*
X116870241Y-127284241D02*
X117602000Y-128016000D01*
X27405877Y-127284241D02*
X116870241Y-127284241D01*
X24130000Y-124008364D02*
X27405877Y-127284241D01*
X24130000Y-121920000D02*
X24130000Y-124008364D01*
X116704394Y-88527606D02*
X116730789Y-88554001D01*
X115891802Y-87825520D02*
X116002308Y-87825520D01*
X44450000Y-81280000D02*
X44450000Y-83368364D01*
X48907156Y-87825520D02*
X115891802Y-87825520D01*
X116002308Y-87825520D02*
X116704394Y-88527606D01*
X44450000Y-83368364D02*
X48907156Y-87825520D01*
X116730789Y-88554001D02*
X116730789Y-88900000D01*
X115803020Y-107129520D02*
X116078000Y-107404500D01*
X58928000Y-101600000D02*
X64457520Y-107129520D01*
X44450000Y-101600000D02*
X58928000Y-101600000D01*
X64457520Y-107129520D02*
X115803020Y-107129520D01*
X59136072Y-121920000D02*
X64050793Y-126834721D01*
X114211279Y-126834721D02*
X116078000Y-124968000D01*
X44450000Y-121920000D02*
X59136072Y-121920000D01*
X64050793Y-126834721D02*
X114211279Y-126834721D01*
X116078000Y-124968000D02*
X118618000Y-124968000D01*
X64770000Y-83566000D02*
X68580000Y-87376000D01*
X68580000Y-87376000D02*
X116078000Y-87376000D01*
X116577402Y-87376000D02*
X117089701Y-87888299D01*
X116078000Y-87376000D02*
X116577402Y-87376000D01*
X64770000Y-81280000D02*
X64770000Y-83566000D01*
X64770000Y-101600000D02*
X81280000Y-101600000D01*
X82042000Y-104648000D02*
X84074000Y-106680000D01*
X81280000Y-101600000D02*
X82042000Y-102362000D01*
X84074000Y-106680000D02*
X118618000Y-106680000D01*
X82042000Y-102362000D02*
X82042000Y-104648000D01*
X102362000Y-121470480D02*
X104648000Y-119184480D01*
X64770000Y-121920000D02*
X82296000Y-121920000D01*
X84328000Y-119888000D02*
X85852000Y-119888000D01*
X82296000Y-121920000D02*
X84328000Y-119888000D01*
X111133606Y-114924960D02*
X112501020Y-114924960D01*
X112501020Y-114924960D02*
X112776000Y-114649980D01*
X106874084Y-119184480D02*
X111133606Y-114924960D01*
X104648000Y-119184480D02*
X106874084Y-119184480D01*
X85852000Y-119888000D02*
X87434480Y-121470480D01*
X87434480Y-121470480D02*
X102362000Y-121470480D01*
X85090000Y-83368364D02*
X88589636Y-86868000D01*
X117094000Y-86868000D02*
X118618000Y-88392000D01*
X85090000Y-81280000D02*
X85090000Y-83368364D01*
X88589636Y-86868000D02*
X117094000Y-86868000D01*
X85090000Y-101600000D02*
X103155020Y-101600000D01*
X109111989Y-99822000D02*
X109220000Y-99930011D01*
X116873011Y-101379011D02*
X117094000Y-101600000D01*
X103155020Y-101600000D02*
X104933020Y-99822000D01*
X104933020Y-99822000D02*
X109111989Y-99822000D01*
X110236000Y-101379011D02*
X116873011Y-101379011D01*
X115549020Y-115374480D02*
X111319803Y-115374480D01*
X107060282Y-119634000D02*
X104902000Y-119634000D01*
X104902000Y-119634000D02*
X102616000Y-121920000D01*
X115824000Y-115099500D02*
X115549020Y-115374480D01*
X111319803Y-115374480D02*
X107060282Y-119634000D01*
X102616000Y-121920000D02*
X85090000Y-121920000D01*
X106680000Y-82550000D02*
X106680000Y-84638364D01*
X117767279Y-86194721D02*
X118618000Y-85344000D01*
X105410000Y-81280000D02*
X106680000Y-82550000D01*
X108236357Y-86194721D02*
X117767279Y-86194721D01*
X106680000Y-84638364D02*
X108236357Y-86194721D01*
X106680000Y-100330000D02*
X108458000Y-100330000D01*
X108782511Y-100654511D02*
X118547489Y-100654511D01*
X118547489Y-100654511D02*
X118618000Y-100584000D01*
X108458000Y-100330000D02*
X108782511Y-100654511D01*
X105410000Y-101600000D02*
X106680000Y-100330000D01*
X105410000Y-121920000D02*
X111506000Y-115824000D01*
X111506000Y-115824000D02*
X118618000Y-115824000D01*
X165816072Y-81280000D02*
X162006072Y-85090000D01*
X162006072Y-85090000D02*
X161036000Y-85090000D01*
X166370000Y-81280000D02*
X165816072Y-81280000D01*
X161036000Y-85090000D02*
X160782000Y-85344000D01*
X165320000Y-101820000D02*
X164084000Y-100584000D01*
X164084000Y-100584000D02*
X160782000Y-100584000D01*
X166370000Y-101820000D02*
X165320000Y-101820000D01*
X164084000Y-113030000D02*
X163576000Y-113030000D01*
X163322000Y-112776000D02*
X160782000Y-112776000D01*
X163576000Y-113030000D02*
X163322000Y-112776000D01*
X171615279Y-86194721D02*
X169196357Y-86194721D01*
X175260000Y-81280000D02*
X173736000Y-82804000D01*
X173736000Y-84074000D02*
X171615279Y-86194721D01*
X173736000Y-82804000D02*
X173736000Y-84074000D01*
X169196357Y-86194721D02*
X168853636Y-85852000D01*
X186690000Y-81280000D02*
X175260000Y-81280000D01*
X168853636Y-85852000D02*
X163322000Y-85852000D01*
X163322000Y-85852000D02*
X160782000Y-88392000D01*
X165408721Y-106734721D02*
X162306000Y-103632000D01*
X181221351Y-106734721D02*
X165408721Y-106734721D01*
X162306000Y-103632000D02*
X160782000Y-103632000D01*
X186690000Y-101820000D02*
X186136072Y-101820000D01*
X186136072Y-101820000D02*
X181221351Y-106734721D01*
X178816000Y-121920000D02*
X186690000Y-121920000D01*
X160782000Y-115824000D02*
X172720000Y-115824000D01*
X172720000Y-115824000D02*
X178816000Y-121920000D01*
X163838598Y-86360000D02*
X162437299Y-87761299D01*
X168940241Y-86644241D02*
X168656000Y-86360000D01*
X207010000Y-81280000D02*
X199943928Y-81280000D01*
X164084000Y-86360000D02*
X163838598Y-86360000D01*
X194579687Y-86644241D02*
X168940241Y-86644241D01*
X168656000Y-86360000D02*
X164084000Y-86360000D01*
X199943928Y-81280000D02*
X194579687Y-86644241D01*
X201091831Y-107184241D02*
X161286241Y-107184241D01*
X161286241Y-107184241D02*
X160782000Y-106680000D01*
X206456072Y-101820000D02*
X201091831Y-107184241D01*
X207010000Y-101820000D02*
X206456072Y-101820000D01*
X168343520Y-86809520D02*
X165608000Y-86809520D01*
X168402000Y-86868000D02*
X168343520Y-86809520D01*
X177800000Y-87122000D02*
X168656000Y-87122000D01*
X168656000Y-87122000D02*
X168402000Y-86868000D01*
X165608000Y-86809520D02*
X164413677Y-86809520D01*
X220263928Y-81280000D02*
X214421928Y-87122000D01*
X227330000Y-81280000D02*
X220263928Y-81280000D01*
X214421928Y-87122000D02*
X177800000Y-87122000D01*
X164413677Y-86809520D02*
X163517300Y-87705897D01*
X221558408Y-100525520D02*
X214133928Y-107950000D01*
X227330000Y-101820000D02*
X226035520Y-100525520D01*
X226035520Y-100525520D02*
X221558408Y-100525520D01*
X214133928Y-107950000D02*
X163322000Y-107950000D01*
X168338141Y-87439858D02*
X168157323Y-87259040D01*
X202438000Y-87571520D02*
X168656000Y-87571520D01*
X234292408Y-87571520D02*
X202438000Y-87571520D01*
X165216960Y-87259040D02*
X164592000Y-87884000D01*
X168469803Y-87571520D02*
X168338141Y-87439858D01*
X240583928Y-81280000D02*
X234292408Y-87571520D01*
X247650000Y-81280000D02*
X240583928Y-81280000D01*
X168157323Y-87259040D02*
X166878000Y-87259040D01*
X166878000Y-87259040D02*
X165216960Y-87259040D01*
X168656000Y-87571520D02*
X168469803Y-87571520D01*
X52890480Y-76649520D02*
X117534197Y-76649520D01*
X135889989Y-88773008D02*
X135762997Y-88900000D01*
X120074198Y-74109520D02*
X134552922Y-74109520D01*
X135762997Y-88900000D02*
X132080000Y-88900000D01*
X50800000Y-78740000D02*
X52890480Y-76649520D01*
X117534197Y-76649520D02*
X120074198Y-74109520D01*
X134552922Y-74109520D02*
X135504701Y-75061299D01*
X71120000Y-78740000D02*
X72760960Y-77099040D01*
X72760960Y-77099040D02*
X117720394Y-77099040D01*
X117720394Y-77099040D02*
X120260396Y-74559040D01*
X135128000Y-91440000D02*
X132080000Y-91440000D01*
X133977843Y-74559040D02*
X134424700Y-75005897D01*
X120260396Y-74559040D02*
X133977843Y-74559040D01*
X108313580Y-77548560D02*
X111283020Y-80518000D01*
X131053993Y-77978000D02*
X131556304Y-77475689D01*
X91440000Y-78740000D02*
X92631440Y-77548560D01*
X116078000Y-80518000D02*
X118618000Y-77978000D01*
X132334000Y-93726000D02*
X132080000Y-93980000D01*
X133858000Y-93726000D02*
X132334000Y-93726000D01*
X111283020Y-80518000D02*
X116078000Y-80518000D01*
X92631440Y-77548560D02*
X108313580Y-77548560D01*
X133355689Y-77475689D02*
X134366000Y-78486000D01*
X118618000Y-77978000D02*
X131053993Y-77978000D01*
X131556304Y-77475689D02*
X133355689Y-77475689D01*
X133355689Y-80015689D02*
X133604000Y-80264000D01*
X115950282Y-80010000D02*
X118706783Y-77253500D01*
X134620000Y-96520000D02*
X132080000Y-96520000D01*
X127000000Y-80772000D02*
X127756311Y-80015689D01*
X136614500Y-80264000D02*
X137630500Y-81280000D01*
X113030000Y-80010000D02*
X113284000Y-80010000D01*
X111760000Y-78740000D02*
X113030000Y-80010000D01*
X113284000Y-80010000D02*
X115950282Y-80010000D01*
X127756311Y-80015689D02*
X133355689Y-80015689D01*
X118706783Y-77253500D02*
X126238000Y-77253500D01*
X133604000Y-80264000D02*
X136614500Y-80264000D01*
X170434000Y-78740000D02*
X165608000Y-73914000D01*
X139700000Y-73914000D02*
X139192000Y-74422000D01*
X172720000Y-78740000D02*
X170434000Y-78740000D01*
X134620000Y-99060000D02*
X132080000Y-99060000D01*
X165608000Y-73914000D02*
X139700000Y-73914000D01*
X135128000Y-98552000D02*
X134620000Y-99060000D01*
X159474500Y-73406000D02*
X159258000Y-73189500D01*
X135382000Y-101600000D02*
X132080000Y-101600000D01*
X135636000Y-101346000D02*
X135382000Y-101600000D01*
X160528000Y-73406000D02*
X159474500Y-73406000D01*
X187706000Y-73406000D02*
X160528000Y-73406000D01*
X193040000Y-78740000D02*
X187706000Y-73406000D01*
X157734000Y-74676000D02*
X140208000Y-74676000D01*
X174060511Y-79685489D02*
X173411489Y-80334511D01*
X188182980Y-80518000D02*
X187350469Y-79685489D01*
X213360000Y-78740000D02*
X206756000Y-78740000D01*
X165105689Y-77464311D02*
X146552311Y-77464311D01*
X140970000Y-77216000D02*
X139700000Y-78486000D01*
X166814141Y-75755859D02*
X165105689Y-77464311D01*
X135890000Y-104140000D02*
X132080000Y-104140000D01*
X204978000Y-80518000D02*
X188182980Y-80518000D01*
X173411489Y-80334511D02*
X171392793Y-80334511D01*
X206756000Y-78740000D02*
X204978000Y-80518000D01*
X171392793Y-80334511D02*
X166814141Y-75755859D01*
X146304000Y-77216000D02*
X140970000Y-77216000D01*
X136144000Y-103886000D02*
X135890000Y-104140000D01*
X146552311Y-77464311D02*
X146304000Y-77216000D01*
X187350469Y-79685489D02*
X174060511Y-79685489D01*
X148990711Y-95650711D02*
X147320000Y-93980000D01*
X212744711Y-95650711D02*
X148990711Y-95650711D01*
X233680000Y-99280000D02*
X232884000Y-100076000D01*
X217170000Y-100076000D02*
X212744711Y-95650711D01*
X232884000Y-100076000D02*
X217170000Y-100076000D01*
X132334000Y-86106000D02*
X132080000Y-86360000D01*
X136906000Y-84836000D02*
X135636000Y-86106000D01*
X135636000Y-86106000D02*
X132334000Y-86106000D01*
X33020000Y-76200000D02*
X117348000Y-76200000D01*
X136906000Y-75438000D02*
X136906000Y-76200000D01*
X30480000Y-78740000D02*
X33020000Y-76200000D01*
X119888000Y-73660000D02*
X135128000Y-73660000D01*
X135128000Y-73660000D02*
X136906000Y-75438000D01*
X117348000Y-76200000D02*
X119888000Y-73660000D01*
X133604000Y-82804000D02*
X132080000Y-81280000D01*
X143764000Y-82804000D02*
X133604000Y-82804000D01*
X144272000Y-89408000D02*
X144780000Y-88900000D01*
X144780000Y-88900000D02*
X147320000Y-88900000D01*
X145034000Y-91694000D02*
X147066000Y-91694000D01*
X147066000Y-91694000D02*
X147320000Y-91440000D01*
X209804000Y-88021040D02*
X165978960Y-88021040D01*
X153670000Y-99060000D02*
X152654000Y-100076000D01*
X244210960Y-88021040D02*
X209804000Y-88021040D01*
X247669711Y-84251925D02*
X247669711Y-84562289D01*
X254000000Y-78740000D02*
X253181636Y-78740000D01*
X161798000Y-99060000D02*
X153670000Y-99060000D01*
X247669711Y-84562289D02*
X244210960Y-88021040D01*
X152146000Y-104902000D02*
X148082000Y-104902000D01*
X253181636Y-78740000D02*
X247669711Y-84251925D01*
X148082000Y-104902000D02*
X147320000Y-104140000D01*
X165978960Y-88021040D02*
X165354000Y-88646000D01*
X150622000Y-97536000D02*
X148336000Y-97536000D01*
X148336000Y-97536000D02*
X147320000Y-96520000D01*
X149098000Y-72644000D02*
X130302000Y-72644000D01*
X150622000Y-112776000D02*
X150622000Y-112268000D01*
X150622000Y-112268000D02*
X149352000Y-110998000D01*
X132588000Y-111760000D02*
X149606000Y-111760000D01*
X149606000Y-111760000D02*
X150622000Y-112776000D01*
X128778000Y-106680000D02*
X150622000Y-106680000D01*
X148844000Y-98806000D02*
X147574000Y-98806000D01*
X147574000Y-98806000D02*
X147320000Y-99060000D01*
X150622000Y-100584000D02*
X148844000Y-98806000D01*
X146812000Y-120650000D02*
X159004000Y-120650000D01*
X159004000Y-120650000D02*
X160782000Y-118872000D01*
X142748000Y-87630000D02*
X144018000Y-86360000D01*
X144018000Y-86360000D02*
X147320000Y-86360000D01*
M02*
