M48
; DRILL file {KiCad (6.0.2)} date Mon Mar 21 22:21:00 2022
; FORMAT={-:-/ absolute / metric / decimal}
; #@! TF.CreationDate,2022-03-21T22:21:00-04:00
; #@! TF.GenerationSoftware,Kicad,Pcbnew,(6.0.2)
; #@! TF.FileFunction,Plated,1,2,PTH
FMAT,2
METRIC
; #@! TA.AperFunction,Plated,PTH,ViaDrill
T1C0.400
; #@! TA.AperFunction,Plated,PTH,ComponentDrill
T2C1.016
; #@! TA.AperFunction,Plated,PTH,ComponentDrill
T3C1.100
; #@! TA.AperFunction,Plated,PTH,ComponentDrill
T4C1.118
; #@! TA.AperFunction,Plated,PTH,ComponentDrill
T5C1.200
; #@! TA.AperFunction,Plated,PTH,ComponentDrill
T6C1.500
; #@! TA.AperFunction,Plated,PTH,ComponentDrill
T7C1.714
%
G90
G05
T1
X109.22Y-99.93
X110.236Y-101.379
X112.776Y-114.65
X115.265Y-107.986
X115.748Y-88.596
X115.824Y-115.099
X116.078Y-107.404
X116.731Y-88.9
X117.09Y-87.888
X117.094Y-101.6
X126.238Y-77.254
X127.0Y-80.772
X130.302Y-72.644
X132.588Y-111.76
X133.858Y-93.726
X134.366Y-78.486
X134.425Y-75.006
X134.62Y-96.52
X135.128Y-91.44
X135.128Y-98.552
X135.505Y-75.061
X135.636Y-101.346
X135.89Y-88.773
X136.144Y-103.886
X136.906Y-76.2
X136.906Y-84.836
X137.63Y-81.28
X139.192Y-74.422
X139.7Y-78.486
X140.208Y-74.676
X142.023Y-103.886
X142.748Y-87.63
X143.256Y-79.502
X143.764Y-82.804
X144.272Y-89.408
X145.034Y-91.694
X145.288Y-105.956
X145.796Y-81.534
X146.812Y-120.65
X149.098Y-72.644
X149.352Y-110.998
X150.876Y-124.714
X152.146Y-104.902
X152.654Y-100.076
X157.734Y-74.676
X157.734Y-125.984
X159.258Y-73.189
X161.798Y-99.06
X162.437Y-87.761
X163.322Y-107.95
X163.517Y-87.706
X164.084Y-113.03
X164.592Y-87.884
X165.354Y-88.646
T2
X132.08Y-76.2
X132.08Y-78.74
X132.08Y-81.28
X132.08Y-83.82
X132.08Y-86.36
X132.08Y-88.9
X132.08Y-91.44
X132.08Y-93.98
X132.08Y-96.52
X132.08Y-99.06
X132.08Y-101.6
X132.08Y-104.14
X147.32Y-76.2
X147.32Y-78.74
X147.32Y-81.28
X147.32Y-83.82
X147.32Y-86.36
X147.32Y-88.9
X147.32Y-91.44
X147.32Y-93.98
X147.32Y-96.52
X147.32Y-99.06
X147.32Y-101.6
X147.32Y-104.14
T3
X152.452Y-123.226
X152.452Y-127.726
X158.952Y-123.226
X158.952Y-127.726
T4
X118.618Y-85.344
X118.618Y-88.392
X118.618Y-91.44
X118.618Y-94.488
X118.618Y-97.536
X118.618Y-100.584
X118.618Y-103.632
X118.618Y-106.68
X118.618Y-109.728
X118.618Y-112.776
X118.618Y-115.824
X118.618Y-118.872
X118.618Y-121.92
X118.618Y-124.968
X118.618Y-128.016
X128.778Y-85.344
X128.778Y-88.392
X128.778Y-91.44
X128.778Y-94.488
X128.778Y-97.536
X128.778Y-100.584
X128.778Y-103.632
X128.778Y-106.68
X128.778Y-109.728
X128.778Y-112.776
X128.778Y-115.824
X128.778Y-118.872
X128.778Y-121.92
X128.778Y-124.968
X128.778Y-128.016
X150.622Y-85.344
X150.622Y-88.392
X150.622Y-91.44
X150.622Y-94.488
X150.622Y-97.536
X150.622Y-100.584
X150.622Y-103.632
X150.622Y-106.68
X150.622Y-109.728
X150.622Y-112.776
X150.622Y-115.824
X150.622Y-118.872
X160.782Y-85.344
X160.782Y-88.392
X160.782Y-91.44
X160.782Y-94.488
X160.782Y-97.536
X160.782Y-100.584
X160.782Y-103.632
X160.782Y-106.68
X160.782Y-109.728
X160.782Y-112.776
X160.782Y-115.824
X160.782Y-118.872
T5
X134.7Y-114.78
X134.7Y-129.78
X139.7Y-129.78
X144.7Y-114.78
X144.7Y-129.78
T6
X24.13Y-81.28
X24.13Y-101.6
X24.13Y-121.92
X30.48Y-78.74
X30.48Y-99.06
X30.48Y-119.38
X44.45Y-81.28
X44.45Y-101.6
X44.45Y-121.92
X50.8Y-78.74
X50.8Y-99.06
X50.8Y-119.38
X64.77Y-81.28
X64.77Y-101.6
X64.77Y-121.92
X71.12Y-78.74
X71.12Y-99.06
X71.12Y-119.38
X85.09Y-81.28
X85.09Y-101.6
X85.09Y-121.92
X91.44Y-78.74
X91.44Y-99.06
X91.44Y-119.38
X105.41Y-81.28
X105.41Y-101.6
X105.41Y-121.92
X111.76Y-78.74
X111.76Y-99.06
X111.76Y-119.38
X166.37Y-81.28
X166.37Y-101.82
X166.37Y-121.92
X172.72Y-78.74
X172.72Y-99.28
X172.72Y-119.38
X186.69Y-81.28
X186.69Y-101.82
X186.69Y-121.92
X193.04Y-78.74
X193.04Y-99.28
X193.04Y-119.38
X207.01Y-81.28
X207.01Y-101.82
X213.36Y-78.74
X213.36Y-99.28
X227.33Y-81.28
X227.33Y-101.82
X233.68Y-78.74
X233.68Y-99.28
X247.65Y-81.28
X254.0Y-78.74
T7
X22.86Y-83.82
X22.86Y-104.14
X22.86Y-124.46
X33.02Y-83.82
X33.02Y-104.14
X33.02Y-124.46
X43.18Y-83.82
X43.18Y-104.14
X43.18Y-124.46
X53.34Y-83.82
X53.34Y-104.14
X53.34Y-124.46
X63.5Y-83.82
X63.5Y-104.14
X63.5Y-124.46
X73.66Y-83.82
X73.66Y-104.14
X73.66Y-124.46
X83.82Y-83.82
X83.82Y-104.14
X83.82Y-124.46
X93.98Y-83.82
X93.98Y-104.14
X93.98Y-124.46
X104.14Y-83.82
X104.14Y-104.14
X104.14Y-124.46
X114.3Y-83.82
X114.3Y-104.14
X114.3Y-124.46
X165.1Y-83.82
X165.1Y-104.36
X165.1Y-124.46
X175.26Y-83.82
X175.26Y-104.36
X175.26Y-124.46
X185.42Y-83.82
X185.42Y-104.36
X185.42Y-124.46
X195.58Y-83.82
X195.58Y-104.36
X195.58Y-124.46
X205.74Y-83.82
X205.74Y-104.36
X215.9Y-83.82
X215.9Y-104.36
X226.06Y-83.82
X226.06Y-104.36
X236.22Y-83.82
X236.22Y-104.36
X246.38Y-83.82
X256.54Y-83.82
T0
M30
