%TF.GenerationSoftware,KiCad,Pcbnew,(6.0.2)*%
%TF.CreationDate,2022-03-21T22:20:15-04:00*%
%TF.ProjectId,carpal26_1.0.12,63617270-616c-4323-965f-312e302e3132,rev?*%
%TF.SameCoordinates,Original*%
%TF.FileFunction,Legend,Bot*%
%TF.FilePolarity,Positive*%
%FSLAX46Y46*%
G04 Gerber Fmt 4.6, Leading zero omitted, Abs format (unit mm)*
G04 Created by KiCad (PCBNEW (6.0.2)) date 2022-03-21 22:20:15*
%MOMM*%
%LPD*%
G01*
G04 APERTURE LIST*
%ADD10C,0.150000*%
%ADD11C,4.000400*%
%ADD12C,2.133600*%
%ADD13C,2.743200*%
%ADD14C,1.879600*%
%ADD15C,2.100000*%
%ADD16O,2.003200X3.803200*%
%ADD17C,2.082800*%
%ADD18C,2.000000*%
G04 APERTURE END LIST*
D10*
X28639880Y-88817380D02*
X28068452Y-88817380D01*
X28354166Y-89817380D02*
X28354166Y-88817380D01*
X27592261Y-89817380D02*
X27687500Y-89769761D01*
X27735119Y-89722142D01*
X27782738Y-89626904D01*
X27782738Y-89341190D01*
X27735119Y-89245952D01*
X27687500Y-89198333D01*
X27592261Y-89150714D01*
X27449404Y-89150714D01*
X27354166Y-89198333D01*
X27306547Y-89245952D01*
X27258928Y-89341190D01*
X27258928Y-89626904D01*
X27306547Y-89722142D01*
X27354166Y-89769761D01*
X27449404Y-89817380D01*
X27592261Y-89817380D01*
X25782738Y-88817380D02*
X25782738Y-89531666D01*
X25830357Y-89674523D01*
X25925595Y-89769761D01*
X26068452Y-89817380D01*
X26163690Y-89817380D01*
X24925595Y-89769761D02*
X25020833Y-89817380D01*
X25211309Y-89817380D01*
X25306547Y-89769761D01*
X25354166Y-89674523D01*
X25354166Y-89293571D01*
X25306547Y-89198333D01*
X25211309Y-89150714D01*
X25020833Y-89150714D01*
X24925595Y-89198333D01*
X24877976Y-89293571D01*
X24877976Y-89388809D01*
X25354166Y-89484047D01*
X24449404Y-89817380D02*
X24449404Y-88817380D01*
X24354166Y-89436428D02*
X24068452Y-89817380D01*
X24068452Y-89150714D02*
X24449404Y-89531666D01*
X23639880Y-89817380D02*
X23639880Y-88817380D01*
X23544642Y-89436428D02*
X23258928Y-89817380D01*
X23258928Y-89150714D02*
X23639880Y-89531666D01*
X22687500Y-89817380D02*
X22782738Y-89769761D01*
X22830357Y-89722142D01*
X22877976Y-89626904D01*
X22877976Y-89341190D01*
X22830357Y-89245952D01*
X22782738Y-89198333D01*
X22687500Y-89150714D01*
X22544642Y-89150714D01*
X22449404Y-89198333D01*
X22401785Y-89245952D01*
X22354166Y-89341190D01*
X22354166Y-89626904D01*
X22401785Y-89722142D01*
X22449404Y-89769761D01*
X22544642Y-89817380D01*
X22687500Y-89817380D01*
X21877976Y-89769761D02*
X21877976Y-89817380D01*
X21925595Y-89912619D01*
X21973214Y-89960238D01*
X45068452Y-90903571D02*
X44925595Y-90951190D01*
X44877976Y-90998809D01*
X44830357Y-91094047D01*
X44830357Y-91236904D01*
X44877976Y-91332142D01*
X44925595Y-91379761D01*
X45020833Y-91427380D01*
X45401785Y-91427380D01*
X45401785Y-90427380D01*
X45068452Y-90427380D01*
X44973214Y-90475000D01*
X44925595Y-90522619D01*
X44877976Y-90617857D01*
X44877976Y-90713095D01*
X44925595Y-90808333D01*
X44973214Y-90855952D01*
X45068452Y-90903571D01*
X45401785Y-90903571D01*
X44020833Y-91379761D02*
X44116071Y-91427380D01*
X44306547Y-91427380D01*
X44401785Y-91379761D01*
X44449404Y-91284523D01*
X44449404Y-90903571D01*
X44401785Y-90808333D01*
X44306547Y-90760714D01*
X44116071Y-90760714D01*
X44020833Y-90808333D01*
X43973214Y-90903571D01*
X43973214Y-90998809D01*
X44449404Y-91094047D01*
X43116071Y-91379761D02*
X43211309Y-91427380D01*
X43401785Y-91427380D01*
X43497023Y-91379761D01*
X43544642Y-91332142D01*
X43592261Y-91236904D01*
X43592261Y-90951190D01*
X43544642Y-90855952D01*
X43497023Y-90808333D01*
X43401785Y-90760714D01*
X43211309Y-90760714D01*
X43116071Y-90808333D01*
X42258928Y-91427380D02*
X42258928Y-90903571D01*
X42306547Y-90808333D01*
X42401785Y-90760714D01*
X42592261Y-90760714D01*
X42687500Y-90808333D01*
X42258928Y-91379761D02*
X42354166Y-91427380D01*
X42592261Y-91427380D01*
X42687500Y-91379761D01*
X42735119Y-91284523D01*
X42735119Y-91189285D01*
X42687500Y-91094047D01*
X42592261Y-91046428D01*
X42354166Y-91046428D01*
X42258928Y-90998809D01*
X41354166Y-90760714D02*
X41354166Y-91427380D01*
X41782738Y-90760714D02*
X41782738Y-91284523D01*
X41735119Y-91379761D01*
X41639880Y-91427380D01*
X41497023Y-91427380D01*
X41401785Y-91379761D01*
X41354166Y-91332142D01*
X40925595Y-91379761D02*
X40830357Y-91427380D01*
X40639880Y-91427380D01*
X40544642Y-91379761D01*
X40497023Y-91284523D01*
X40497023Y-91236904D01*
X40544642Y-91141666D01*
X40639880Y-91094047D01*
X40782738Y-91094047D01*
X40877976Y-91046428D01*
X40925595Y-90951190D01*
X40925595Y-90903571D01*
X40877976Y-90808333D01*
X40782738Y-90760714D01*
X40639880Y-90760714D01*
X40544642Y-90808333D01*
X39687500Y-91379761D02*
X39782738Y-91427380D01*
X39973214Y-91427380D01*
X40068452Y-91379761D01*
X40116071Y-91284523D01*
X40116071Y-90903571D01*
X40068452Y-90808333D01*
X39973214Y-90760714D01*
X39782738Y-90760714D01*
X39687500Y-90808333D01*
X39639880Y-90903571D01*
X39639880Y-90998809D01*
X40116071Y-91094047D01*
X38020833Y-90760714D02*
X38020833Y-91427380D01*
X38258928Y-90379761D02*
X38497023Y-91094047D01*
X37877976Y-91094047D01*
X37306547Y-90427380D02*
X37211309Y-90427380D01*
X37116071Y-90475000D01*
X37068452Y-90522619D01*
X37020833Y-90617857D01*
X36973214Y-90808333D01*
X36973214Y-91046428D01*
X37020833Y-91236904D01*
X37068452Y-91332142D01*
X37116071Y-91379761D01*
X37211309Y-91427380D01*
X37306547Y-91427380D01*
X37401785Y-91379761D01*
X37449404Y-91332142D01*
X37497023Y-91236904D01*
X37544642Y-91046428D01*
X37544642Y-90808333D01*
X37497023Y-90617857D01*
X37449404Y-90522619D01*
X37401785Y-90475000D01*
X37306547Y-90427380D01*
X36592261Y-91427380D02*
X35830357Y-90427380D01*
X36449404Y-90427380D02*
X36354166Y-90475000D01*
X36306547Y-90570238D01*
X36354166Y-90665476D01*
X36449404Y-90713095D01*
X36544642Y-90665476D01*
X36592261Y-90570238D01*
X36544642Y-90475000D01*
X36449404Y-90427380D01*
X35877976Y-91379761D02*
X35830357Y-91284523D01*
X35877976Y-91189285D01*
X35973214Y-91141666D01*
X36068452Y-91189285D01*
X36116071Y-91284523D01*
X36068452Y-91379761D01*
X35973214Y-91427380D01*
X35877976Y-91379761D01*
X34639880Y-91427380D02*
X34639880Y-90760714D01*
X34639880Y-90427380D02*
X34687500Y-90475000D01*
X34639880Y-90522619D01*
X34592261Y-90475000D01*
X34639880Y-90427380D01*
X34639880Y-90522619D01*
X34211309Y-91379761D02*
X34116071Y-91427380D01*
X33925595Y-91427380D01*
X33830357Y-91379761D01*
X33782738Y-91284523D01*
X33782738Y-91236904D01*
X33830357Y-91141666D01*
X33925595Y-91094047D01*
X34068452Y-91094047D01*
X34163690Y-91046428D01*
X34211309Y-90951190D01*
X34211309Y-90903571D01*
X34163690Y-90808333D01*
X34068452Y-90760714D01*
X33925595Y-90760714D01*
X33830357Y-90808333D01*
X32592261Y-90760714D02*
X32592261Y-91617857D01*
X32639880Y-91713095D01*
X32735119Y-91760714D01*
X32782738Y-91760714D01*
X32592261Y-90427380D02*
X32639880Y-90475000D01*
X32592261Y-90522619D01*
X32544642Y-90475000D01*
X32592261Y-90427380D01*
X32592261Y-90522619D01*
X31687500Y-90760714D02*
X31687500Y-91427380D01*
X32116071Y-90760714D02*
X32116071Y-91284523D01*
X32068452Y-91379761D01*
X31973214Y-91427380D01*
X31830357Y-91427380D01*
X31735119Y-91379761D01*
X31687500Y-91332142D01*
X31258928Y-91379761D02*
X31163690Y-91427380D01*
X30973214Y-91427380D01*
X30877976Y-91379761D01*
X30830357Y-91284523D01*
X30830357Y-91236904D01*
X30877976Y-91141666D01*
X30973214Y-91094047D01*
X31116071Y-91094047D01*
X31211309Y-91046428D01*
X31258928Y-90951190D01*
X31258928Y-90903571D01*
X31211309Y-90808333D01*
X31116071Y-90760714D01*
X30973214Y-90760714D01*
X30877976Y-90808333D01*
X30544642Y-90760714D02*
X30163690Y-90760714D01*
X30401785Y-90427380D02*
X30401785Y-91284523D01*
X30354166Y-91379761D01*
X30258928Y-91427380D01*
X30163690Y-91427380D01*
X29211309Y-90760714D02*
X28830357Y-90760714D01*
X29068452Y-90427380D02*
X29068452Y-91284523D01*
X29020833Y-91379761D01*
X28925595Y-91427380D01*
X28830357Y-91427380D01*
X28354166Y-91427380D02*
X28449404Y-91379761D01*
X28497023Y-91332142D01*
X28544642Y-91236904D01*
X28544642Y-90951190D01*
X28497023Y-90855952D01*
X28449404Y-90808333D01*
X28354166Y-90760714D01*
X28211309Y-90760714D01*
X28116071Y-90808333D01*
X28068452Y-90855952D01*
X28020833Y-90951190D01*
X28020833Y-91236904D01*
X28068452Y-91332142D01*
X28116071Y-91379761D01*
X28211309Y-91427380D01*
X28354166Y-91427380D01*
X27449404Y-91427380D02*
X27544642Y-91379761D01*
X27592261Y-91332142D01*
X27639880Y-91236904D01*
X27639880Y-90951190D01*
X27592261Y-90855952D01*
X27544642Y-90808333D01*
X27449404Y-90760714D01*
X27306547Y-90760714D01*
X27211309Y-90808333D01*
X27163690Y-90855952D01*
X27116071Y-90951190D01*
X27116071Y-91236904D01*
X27163690Y-91332142D01*
X27211309Y-91379761D01*
X27306547Y-91427380D01*
X27449404Y-91427380D01*
X25925595Y-91427380D02*
X25925595Y-90760714D01*
X25925595Y-90855952D02*
X25877976Y-90808333D01*
X25782738Y-90760714D01*
X25639880Y-90760714D01*
X25544642Y-90808333D01*
X25497023Y-90903571D01*
X25497023Y-91427380D01*
X25497023Y-90903571D02*
X25449404Y-90808333D01*
X25354166Y-90760714D01*
X25211309Y-90760714D01*
X25116071Y-90808333D01*
X25068452Y-90903571D01*
X25068452Y-91427380D01*
X24163690Y-90760714D02*
X24163690Y-91427380D01*
X24592261Y-90760714D02*
X24592261Y-91284523D01*
X24544642Y-91379761D01*
X24449404Y-91427380D01*
X24306547Y-91427380D01*
X24211309Y-91379761D01*
X24163690Y-91332142D01*
X23258928Y-91379761D02*
X23354166Y-91427380D01*
X23544642Y-91427380D01*
X23639880Y-91379761D01*
X23687500Y-91332142D01*
X23735119Y-91236904D01*
X23735119Y-90951190D01*
X23687500Y-90855952D01*
X23639880Y-90808333D01*
X23544642Y-90760714D01*
X23354166Y-90760714D01*
X23258928Y-90808333D01*
X22830357Y-91427380D02*
X22830357Y-90427380D01*
X22401785Y-91427380D02*
X22401785Y-90903571D01*
X22449404Y-90808333D01*
X22544642Y-90760714D01*
X22687500Y-90760714D01*
X22782738Y-90808333D01*
X22830357Y-90855952D01*
X21925595Y-91332142D02*
X21877976Y-91379761D01*
X21925595Y-91427380D01*
X21973214Y-91379761D01*
X21925595Y-91332142D01*
X21925595Y-91427380D01*
%LPC*%
D11*
X88900000Y-83820000D03*
D12*
X83820000Y-83820000D03*
X93980000Y-83820000D03*
D13*
X85090000Y-81280000D03*
X91440000Y-78740000D03*
D14*
X118618000Y-100584000D03*
X128778000Y-100584000D03*
X118618000Y-112776000D03*
X128778000Y-112776000D03*
X160782000Y-109728000D03*
X150622000Y-109728000D03*
D15*
X123444000Y-80518000D03*
D11*
X190500000Y-124460000D03*
D12*
X185420000Y-124460000D03*
X195580000Y-124460000D03*
D13*
X186690000Y-121920000D03*
X193040000Y-119380000D03*
D14*
X160782000Y-118872000D03*
X150622000Y-118872000D03*
D11*
X68580000Y-124460000D03*
D12*
X63500000Y-124460000D03*
X73660000Y-124460000D03*
D13*
X64770000Y-121920000D03*
X71120000Y-119380000D03*
D11*
X48260000Y-104140000D03*
D12*
X43180000Y-104140000D03*
X53340000Y-104140000D03*
D13*
X44450000Y-101600000D03*
X50800000Y-99060000D03*
D11*
X68580000Y-83820000D03*
D12*
X63500000Y-83820000D03*
X73660000Y-83820000D03*
D13*
X64770000Y-81280000D03*
X71120000Y-78740000D03*
D14*
X118618000Y-106680000D03*
X128778000Y-106680000D03*
X160782000Y-115824000D03*
X150622000Y-115824000D03*
D11*
X210820000Y-83820000D03*
D12*
X205740000Y-83820000D03*
X215900000Y-83820000D03*
D13*
X207010000Y-81280000D03*
X213360000Y-78740000D03*
D16*
X144700000Y-129780000D03*
X134700000Y-129780000D03*
X139700000Y-129780000D03*
X144700000Y-114780000D03*
X134700000Y-114780000D03*
D11*
X48260000Y-124460000D03*
D12*
X43180000Y-124460000D03*
X53340000Y-124460000D03*
D13*
X44450000Y-121920000D03*
X50800000Y-119380000D03*
D11*
X68580000Y-104140000D03*
D12*
X63500000Y-104140000D03*
X73660000Y-104140000D03*
D13*
X64770000Y-101600000D03*
X71120000Y-99060000D03*
D11*
X231140000Y-104360000D03*
D12*
X226060000Y-104360000D03*
X236220000Y-104360000D03*
D13*
X227330000Y-101820000D03*
X233680000Y-99280000D03*
D11*
X231140000Y-83820000D03*
D12*
X226060000Y-83820000D03*
X236220000Y-83820000D03*
D13*
X227330000Y-81280000D03*
X233680000Y-78740000D03*
D14*
X160782000Y-100584000D03*
X150622000Y-100584000D03*
X160782000Y-97536000D03*
X150622000Y-97536000D03*
X160782000Y-112776000D03*
X150622000Y-112776000D03*
X118618000Y-124968000D03*
X128778000Y-124968000D03*
D11*
X88900000Y-124460000D03*
D12*
X83820000Y-124460000D03*
X93980000Y-124460000D03*
D13*
X85090000Y-121920000D03*
X91440000Y-119380000D03*
D11*
X190500000Y-83820000D03*
D12*
X185420000Y-83820000D03*
X195580000Y-83820000D03*
D13*
X186690000Y-81280000D03*
X193040000Y-78740000D03*
D11*
X170180000Y-83820000D03*
D12*
X165100000Y-83820000D03*
X175260000Y-83820000D03*
D13*
X166370000Y-81280000D03*
X172720000Y-78740000D03*
D11*
X170180000Y-104360000D03*
D12*
X165100000Y-104360000D03*
X175260000Y-104360000D03*
D13*
X166370000Y-101820000D03*
X172720000Y-99280000D03*
D17*
X132080000Y-76200000D03*
X132080000Y-78740000D03*
X132080000Y-81280000D03*
X132080000Y-83820000D03*
X132080000Y-86360000D03*
X132080000Y-88900000D03*
X132080000Y-91440000D03*
X132080000Y-93980000D03*
X132080000Y-96520000D03*
X132080000Y-99060000D03*
X132080000Y-101600000D03*
X132080000Y-104140000D03*
X147320000Y-104140000D03*
X147320000Y-101600000D03*
X147320000Y-99060000D03*
X147320000Y-96520000D03*
X147320000Y-93980000D03*
X147320000Y-91440000D03*
X147320000Y-88900000D03*
X147320000Y-86360000D03*
X147320000Y-83820000D03*
X147320000Y-81280000D03*
X147320000Y-78740000D03*
X147320000Y-76200000D03*
D14*
X118618000Y-115824000D03*
X128778000Y-115824000D03*
D11*
X190500000Y-104360000D03*
D12*
X185420000Y-104360000D03*
X195580000Y-104360000D03*
D13*
X186690000Y-101820000D03*
X193040000Y-99280000D03*
D11*
X109220000Y-104140000D03*
D12*
X104140000Y-104140000D03*
X114300000Y-104140000D03*
D13*
X105410000Y-101600000D03*
X111760000Y-99060000D03*
D14*
X118618000Y-118872000D03*
X128778000Y-118872000D03*
X118618000Y-97536000D03*
X128778000Y-97536000D03*
X160782000Y-91440000D03*
X150622000Y-91440000D03*
X160782000Y-106680000D03*
X150622000Y-106680000D03*
X118618000Y-91440000D03*
X128778000Y-91440000D03*
X160782000Y-85344000D03*
X150622000Y-85344000D03*
X160782000Y-88392000D03*
X150622000Y-88392000D03*
D15*
X38100000Y-114300000D03*
D11*
X109220000Y-83820000D03*
D12*
X104140000Y-83820000D03*
X114300000Y-83820000D03*
D13*
X105410000Y-81280000D03*
X111760000Y-78740000D03*
D14*
X160782000Y-94488000D03*
X150622000Y-94488000D03*
D11*
X48260000Y-83820000D03*
D12*
X43180000Y-83820000D03*
X53340000Y-83820000D03*
D13*
X44450000Y-81280000D03*
X50800000Y-78740000D03*
D11*
X170180000Y-124460000D03*
D12*
X165100000Y-124460000D03*
X175260000Y-124460000D03*
D13*
X166370000Y-121920000D03*
X172720000Y-119380000D03*
D11*
X88900000Y-104140000D03*
D12*
X83820000Y-104140000D03*
X93980000Y-104140000D03*
D13*
X85090000Y-101600000D03*
X91440000Y-99060000D03*
D14*
X118618000Y-94488000D03*
X128778000Y-94488000D03*
D11*
X27940000Y-124460000D03*
D12*
X22860000Y-124460000D03*
X33020000Y-124460000D03*
D13*
X24130000Y-121920000D03*
X30480000Y-119380000D03*
D15*
X155702000Y-80518000D03*
D11*
X27940000Y-104140000D03*
D12*
X22860000Y-104140000D03*
X33020000Y-104140000D03*
D13*
X24130000Y-101600000D03*
X30480000Y-99060000D03*
D14*
X118618000Y-85344000D03*
X128778000Y-85344000D03*
D18*
X152452000Y-127726000D03*
X158952000Y-127726000D03*
X158952000Y-123226000D03*
X152452000Y-123226000D03*
D14*
X160782000Y-103632000D03*
X150622000Y-103632000D03*
D15*
X180594000Y-114554000D03*
D11*
X109220000Y-124460000D03*
D12*
X104140000Y-124460000D03*
X114300000Y-124460000D03*
D13*
X105410000Y-121920000D03*
X111760000Y-119380000D03*
D11*
X251460000Y-83820000D03*
D12*
X246380000Y-83820000D03*
X256540000Y-83820000D03*
D13*
X247650000Y-81280000D03*
X254000000Y-78740000D03*
D14*
X118618000Y-88392000D03*
X128778000Y-88392000D03*
X118618000Y-109728000D03*
X128778000Y-109728000D03*
D11*
X210820000Y-104360000D03*
D12*
X205740000Y-104360000D03*
X215900000Y-104360000D03*
D13*
X207010000Y-101820000D03*
X213360000Y-99280000D03*
D15*
X78740000Y-93980000D03*
D14*
X118618000Y-103632000D03*
X128778000Y-103632000D03*
X118618000Y-121920000D03*
X128778000Y-121920000D03*
D11*
X27940000Y-83820000D03*
D12*
X22860000Y-83820000D03*
X33020000Y-83820000D03*
D13*
X24130000Y-81280000D03*
X30480000Y-78740000D03*
D15*
X220980000Y-93980000D03*
D14*
X118618000Y-128016000D03*
X128778000Y-128016000D03*
M02*
