M48
; DRILL file {KiCad (6.0.2)} date Mon Mar 21 22:21:00 2022
; FORMAT={-:-/ absolute / metric / decimal}
; #@! TF.CreationDate,2022-03-21T22:21:00-04:00
; #@! TF.GenerationSoftware,Kicad,Pcbnew,(6.0.2)
; #@! TF.FileFunction,NonPlated,1,2,NPTH
FMAT,2
METRIC
; #@! TA.AperFunction,NonPlated,NPTH,ComponentDrill
T1C2.100
; #@! TA.AperFunction,NonPlated,NPTH,ComponentDrill
T2C4.000
%
G90
G05
T1
X38.1Y-114.3
X78.74Y-93.98
X123.444Y-80.518
X155.702Y-80.518
X180.594Y-114.554
X220.98Y-93.98
T2
X27.94Y-83.82
X27.94Y-104.14
X27.94Y-124.46
X48.26Y-83.82
X48.26Y-104.14
X48.26Y-124.46
X68.58Y-83.82
X68.58Y-104.14
X68.58Y-124.46
X88.9Y-83.82
X88.9Y-104.14
X88.9Y-124.46
X109.22Y-83.82
X109.22Y-104.14
X109.22Y-124.46
X170.18Y-83.82
X170.18Y-104.36
X170.18Y-124.46
X190.5Y-83.82
X190.5Y-104.36
X190.5Y-124.46
X210.82Y-83.82
X210.82Y-104.36
X231.14Y-83.82
X231.14Y-104.36
X251.46Y-83.82
T0
M30
