%FSLAX45Y45*%
G04 Gerber Fmt 4.5, Leading zero omitted, Abs format (unit mm)*
G04 Created by KiCad (PCBNEW (6.0.2)) date 2022-03-21 22:21:22*
%MOMM*%
%LPD*%
G01*
G04 APERTURE LIST*
%TA.AperFunction,Profile*%
%ADD10C,0.050000*%
%TD*%
%ADD11C,0.200000*%
%ADD12C,0.040000*%
%ADD13C,0.101600*%
%ADD14C,0.110000*%
%ADD15C,0.111760*%
%ADD16C,0.120000*%
%ADD17C,0.150000*%
%ADD18C,0.171440*%
G04 APERTURE END LIST*
D10*
X19812000Y-13716000D02*
G75*
G03*
X20320000Y-13208000I0J508000D01*
G01*
X24892000Y-9652000D02*
G75*
G03*
X24384000Y-10160000I0J-508000D01*
G01*
X20828000Y-11684000D02*
G75*
G03*
X20320000Y-12192000I0J-508000D01*
G01*
X2032000Y-7112000D02*
G75*
G03*
X1524000Y-7620000I0J-508000D01*
G01*
X26416000Y-7620000D02*
X26416000Y-9144000D01*
X2032000Y-13716000D02*
X19812000Y-13716000D01*
X20320000Y-12192000D02*
X20320000Y-13208000D01*
X23876000Y-11684000D02*
X20828000Y-11684000D01*
X25908000Y-9652000D02*
G75*
G03*
X26416000Y-9144000I0J508000D01*
G01*
X1524000Y-13208000D02*
G75*
G03*
X2032000Y-13716000I508000J0D01*
G01*
X2032000Y-7112000D02*
X25908000Y-7112000D01*
X1524000Y-7620000D02*
X1524000Y-13208000D01*
X23876000Y-11684000D02*
G75*
G03*
X24384000Y-11176000I0J508000D01*
G01*
X26416000Y-7620000D02*
G75*
G03*
X25908000Y-7112000I-508000J0D01*
G01*
X25908000Y-9652000D02*
X24892000Y-9652000D01*
X24384000Y-10160000D02*
X24384000Y-11176000D01*
D11*
D12*
X10902000Y-9973001D02*
X10942000Y-10013001D01*
X10942000Y-9973001D02*
X10902000Y-10013001D01*
X11003600Y-10117901D02*
X11043600Y-10157901D01*
X11043600Y-10117901D02*
X11003600Y-10157901D01*
X11257600Y-11444998D02*
X11297600Y-11484998D01*
X11297600Y-11444998D02*
X11257600Y-11484998D01*
X11506528Y-10778631D02*
X11546528Y-10818631D01*
X11546528Y-10778631D02*
X11506528Y-10818631D01*
X11554839Y-8839620D02*
X11594839Y-8879620D01*
X11594839Y-8839620D02*
X11554839Y-8879620D01*
X11562400Y-11489950D02*
X11602400Y-11529950D01*
X11602400Y-11489950D02*
X11562400Y-11529950D01*
X11587800Y-10720450D02*
X11627800Y-10760450D01*
X11627800Y-10720450D02*
X11587800Y-10760450D01*
X11653079Y-8870000D02*
X11693079Y-8910000D01*
X11693079Y-8870000D02*
X11653079Y-8910000D01*
X11688970Y-8768830D02*
X11728970Y-8808830D01*
X11728970Y-8768830D02*
X11688970Y-8808830D01*
X11689400Y-10140000D02*
X11729400Y-10180000D01*
X11729400Y-10140000D02*
X11689400Y-10180000D01*
X12603800Y-7705350D02*
X12643800Y-7745350D01*
X12643800Y-7705350D02*
X12603800Y-7745350D01*
X12680000Y-8057200D02*
X12720000Y-8097200D01*
X12720000Y-8057200D02*
X12680000Y-8097200D01*
X13010200Y-7244400D02*
X13050200Y-7284400D01*
X13050200Y-7244400D02*
X13010200Y-7284400D01*
X13238800Y-11156000D02*
X13278800Y-11196000D01*
X13278800Y-11156000D02*
X13238800Y-11196000D01*
X13365800Y-9352600D02*
X13405800Y-9392600D01*
X13405800Y-9352600D02*
X13365800Y-9392600D01*
X13416600Y-7828600D02*
X13456600Y-7868600D01*
X13456600Y-7828600D02*
X13416600Y-7868600D01*
X13422470Y-7480590D02*
X13462470Y-7520590D01*
X13462470Y-7480590D02*
X13422470Y-7520590D01*
X13442000Y-9632000D02*
X13482000Y-9672000D01*
X13482000Y-9632000D02*
X13442000Y-9672000D01*
X13492800Y-9124000D02*
X13532800Y-9164000D01*
X13532800Y-9124000D02*
X13492800Y-9164000D01*
X13492800Y-9835200D02*
X13532800Y-9875200D01*
X13532800Y-9835200D02*
X13492800Y-9875200D01*
X13530470Y-7486130D02*
X13570470Y-7526130D01*
X13570470Y-7486130D02*
X13530470Y-7526130D01*
X13543600Y-10114600D02*
X13583600Y-10154600D01*
X13583600Y-10114600D02*
X13543600Y-10154600D01*
X13568999Y-8857301D02*
X13608999Y-8897301D01*
X13608999Y-8857301D02*
X13568999Y-8897301D01*
X13594400Y-10368600D02*
X13634400Y-10408600D01*
X13634400Y-10368600D02*
X13594400Y-10408600D01*
X13670600Y-7600000D02*
X13710600Y-7640000D01*
X13710600Y-7600000D02*
X13670600Y-7640000D01*
X13670600Y-8463600D02*
X13710600Y-8503600D01*
X13710600Y-8463600D02*
X13670600Y-8503600D01*
X13743050Y-8108000D02*
X13783050Y-8148000D01*
X13783050Y-8108000D02*
X13743050Y-8148000D01*
X13899200Y-7422200D02*
X13939200Y-7462200D01*
X13939200Y-7422200D02*
X13899200Y-7462200D01*
X13950000Y-7828600D02*
X13990000Y-7868600D01*
X13990000Y-7828600D02*
X13950000Y-7868600D01*
X14000800Y-7447600D02*
X14040800Y-7487600D01*
X14040800Y-7447600D02*
X14000800Y-7487600D01*
X14182350Y-10368600D02*
X14222350Y-10408600D01*
X14222350Y-10368600D02*
X14182350Y-10408600D01*
X14254800Y-8743000D02*
X14294800Y-8783000D01*
X14294800Y-8743000D02*
X14254800Y-8783000D01*
X14305600Y-7930200D02*
X14345600Y-7970200D01*
X14345600Y-7930200D02*
X14305600Y-7970200D01*
X14356400Y-8260400D02*
X14396400Y-8300400D01*
X14396400Y-8260400D02*
X14356400Y-8300400D01*
X14407200Y-8920800D02*
X14447200Y-8960800D01*
X14447200Y-8920800D02*
X14407200Y-8960800D01*
X14483400Y-9149400D02*
X14523400Y-9189400D01*
X14523400Y-9149400D02*
X14483400Y-9189400D01*
X14508800Y-10575550D02*
X14548800Y-10615550D01*
X14548800Y-10575550D02*
X14508800Y-10615550D01*
X14559600Y-8133400D02*
X14599600Y-8173400D01*
X14599600Y-8133400D02*
X14559600Y-8173400D01*
X14661200Y-12045000D02*
X14701200Y-12085000D01*
X14701200Y-12045000D02*
X14661200Y-12085000D01*
X14889800Y-7244400D02*
X14929800Y-7284400D01*
X14929800Y-7244400D02*
X14889800Y-7284400D01*
X14915200Y-11079800D02*
X14955200Y-11119800D01*
X14955200Y-11079800D02*
X14915200Y-11119800D01*
X15067600Y-12451400D02*
X15107600Y-12491400D01*
X15107600Y-12451400D02*
X15067600Y-12491400D01*
X15194600Y-10470200D02*
X15234600Y-10510200D01*
X15234600Y-10470200D02*
X15194600Y-10510200D01*
X15245400Y-9987600D02*
X15285400Y-10027600D01*
X15285400Y-9987600D02*
X15245400Y-10027600D01*
X15753400Y-7447600D02*
X15793400Y-7487600D01*
X15793400Y-7447600D02*
X15753400Y-7487600D01*
X15753400Y-12578400D02*
X15793400Y-12618400D01*
X15793400Y-12578400D02*
X15753400Y-12618400D01*
X15905800Y-7298950D02*
X15945800Y-7338950D01*
X15945800Y-7298950D02*
X15905800Y-7338950D01*
X16159800Y-9886000D02*
X16199800Y-9926000D01*
X16199800Y-9886000D02*
X16159800Y-9926000D01*
X16223730Y-8756130D02*
X16263730Y-8796130D01*
X16263730Y-8756130D02*
X16223730Y-8796130D01*
X16312200Y-10775000D02*
X16352200Y-10815000D01*
X16352200Y-10775000D02*
X16312200Y-10815000D01*
X16331730Y-8750590D02*
X16371730Y-8790590D01*
X16371730Y-8750590D02*
X16331730Y-8790590D01*
X16388400Y-11283000D02*
X16428400Y-11323000D01*
X16428400Y-11283000D02*
X16388400Y-11323000D01*
X16439200Y-8768400D02*
X16479200Y-8808400D01*
X16479200Y-8768400D02*
X16439200Y-8808400D01*
X16515400Y-8844600D02*
X16555400Y-8884600D01*
X16555400Y-8844600D02*
X16515400Y-8884600D01*
D13*
X13258800Y-7620000D02*
G75*
G03*
X13258800Y-7620000I-50800J0D01*
G01*
X13258800Y-7874000D02*
G75*
G03*
X13258800Y-7874000I-50800J0D01*
G01*
X13258800Y-8128000D02*
G75*
G03*
X13258800Y-8128000I-50800J0D01*
G01*
X13258800Y-8382000D02*
G75*
G03*
X13258800Y-8382000I-50800J0D01*
G01*
X13258800Y-8636000D02*
G75*
G03*
X13258800Y-8636000I-50800J0D01*
G01*
X13258800Y-8890000D02*
G75*
G03*
X13258800Y-8890000I-50800J0D01*
G01*
X13258800Y-9144000D02*
G75*
G03*
X13258800Y-9144000I-50800J0D01*
G01*
X13258800Y-9398000D02*
G75*
G03*
X13258800Y-9398000I-50800J0D01*
G01*
X13258800Y-9652000D02*
G75*
G03*
X13258800Y-9652000I-50800J0D01*
G01*
X13258800Y-9906000D02*
G75*
G03*
X13258800Y-9906000I-50800J0D01*
G01*
X13258800Y-10160000D02*
G75*
G03*
X13258800Y-10160000I-50800J0D01*
G01*
X13258800Y-10414000D02*
G75*
G03*
X13258800Y-10414000I-50800J0D01*
G01*
X14782800Y-7620000D02*
G75*
G03*
X14782800Y-7620000I-50800J0D01*
G01*
X14782800Y-7874000D02*
G75*
G03*
X14782800Y-7874000I-50800J0D01*
G01*
X14782800Y-8128000D02*
G75*
G03*
X14782800Y-8128000I-50800J0D01*
G01*
X14782800Y-8382000D02*
G75*
G03*
X14782800Y-8382000I-50800J0D01*
G01*
X14782800Y-8636000D02*
G75*
G03*
X14782800Y-8636000I-50800J0D01*
G01*
X14782800Y-8890000D02*
G75*
G03*
X14782800Y-8890000I-50800J0D01*
G01*
X14782800Y-9144000D02*
G75*
G03*
X14782800Y-9144000I-50800J0D01*
G01*
X14782800Y-9398000D02*
G75*
G03*
X14782800Y-9398000I-50800J0D01*
G01*
X14782800Y-9652000D02*
G75*
G03*
X14782800Y-9652000I-50800J0D01*
G01*
X14782800Y-9906000D02*
G75*
G03*
X14782800Y-9906000I-50800J0D01*
G01*
X14782800Y-10160000D02*
G75*
G03*
X14782800Y-10160000I-50800J0D01*
G01*
X14782800Y-10414000D02*
G75*
G03*
X14782800Y-10414000I-50800J0D01*
G01*
D14*
X15245200Y-12267600D02*
X15245200Y-12377600D01*
X15190200Y-12322600D02*
X15300200Y-12322600D01*
X15245200Y-12717600D02*
X15245200Y-12827600D01*
X15190200Y-12772600D02*
X15300200Y-12772600D01*
X15895200Y-12267600D02*
X15895200Y-12377600D01*
X15840200Y-12322600D02*
X15950200Y-12322600D01*
X15895200Y-12717600D02*
X15895200Y-12827600D01*
X15840200Y-12772600D02*
X15950200Y-12772600D01*
D15*
X11901313Y-8573914D02*
X11901313Y-8494887D01*
X11822286Y-8494887D01*
X11822286Y-8573914D01*
X11901313Y-8573914D01*
X11901313Y-8878714D02*
X11901313Y-8799687D01*
X11822286Y-8799687D01*
X11822286Y-8878714D01*
X11901313Y-8878714D01*
X11901313Y-9183514D02*
X11901313Y-9104487D01*
X11822286Y-9104487D01*
X11822286Y-9183514D01*
X11901313Y-9183514D01*
X11901313Y-9488314D02*
X11901313Y-9409287D01*
X11822286Y-9409287D01*
X11822286Y-9488314D01*
X11901313Y-9488314D01*
X11901313Y-9793114D02*
X11901313Y-9714087D01*
X11822286Y-9714087D01*
X11822286Y-9793114D01*
X11901313Y-9793114D01*
X11901313Y-10097914D02*
X11901313Y-10018887D01*
X11822286Y-10018887D01*
X11822286Y-10097914D01*
X11901313Y-10097914D01*
X11901313Y-10402714D02*
X11901313Y-10323687D01*
X11822286Y-10323687D01*
X11822286Y-10402714D01*
X11901313Y-10402714D01*
X11901313Y-10707514D02*
X11901313Y-10628487D01*
X11822286Y-10628487D01*
X11822286Y-10707514D01*
X11901313Y-10707514D01*
X11901313Y-11012314D02*
X11901313Y-10933287D01*
X11822286Y-10933287D01*
X11822286Y-11012314D01*
X11901313Y-11012314D01*
X11901313Y-11317113D02*
X11901313Y-11238086D01*
X11822286Y-11238086D01*
X11822286Y-11317113D01*
X11901313Y-11317113D01*
X11901313Y-11621913D02*
X11901313Y-11542886D01*
X11822286Y-11542886D01*
X11822286Y-11621913D01*
X11901313Y-11621913D01*
X11901313Y-11926713D02*
X11901313Y-11847686D01*
X11822286Y-11847686D01*
X11822286Y-11926713D01*
X11901313Y-11926713D01*
X11901313Y-12231513D02*
X11901313Y-12152486D01*
X11822286Y-12152486D01*
X11822286Y-12231513D01*
X11901313Y-12231513D01*
X11901313Y-12536313D02*
X11901313Y-12457286D01*
X11822286Y-12457286D01*
X11822286Y-12536313D01*
X11901313Y-12536313D01*
X11901313Y-12841113D02*
X11901313Y-12762086D01*
X11822286Y-12762086D01*
X11822286Y-12841113D01*
X11901313Y-12841113D01*
X12917313Y-8573914D02*
X12917313Y-8494887D01*
X12838286Y-8494887D01*
X12838286Y-8573914D01*
X12917313Y-8573914D01*
X12917313Y-8878714D02*
X12917313Y-8799687D01*
X12838286Y-8799687D01*
X12838286Y-8878714D01*
X12917313Y-8878714D01*
X12917313Y-9183514D02*
X12917313Y-9104487D01*
X12838286Y-9104487D01*
X12838286Y-9183514D01*
X12917313Y-9183514D01*
X12917313Y-9488314D02*
X12917313Y-9409287D01*
X12838286Y-9409287D01*
X12838286Y-9488314D01*
X12917313Y-9488314D01*
X12917313Y-9793114D02*
X12917313Y-9714087D01*
X12838286Y-9714087D01*
X12838286Y-9793114D01*
X12917313Y-9793114D01*
X12917313Y-10097914D02*
X12917313Y-10018887D01*
X12838286Y-10018887D01*
X12838286Y-10097914D01*
X12917313Y-10097914D01*
X12917313Y-10402714D02*
X12917313Y-10323687D01*
X12838286Y-10323687D01*
X12838286Y-10402714D01*
X12917313Y-10402714D01*
X12917313Y-10707514D02*
X12917313Y-10628487D01*
X12838286Y-10628487D01*
X12838286Y-10707514D01*
X12917313Y-10707514D01*
X12917313Y-11012314D02*
X12917313Y-10933287D01*
X12838286Y-10933287D01*
X12838286Y-11012314D01*
X12917313Y-11012314D01*
X12917313Y-11317113D02*
X12917313Y-11238086D01*
X12838286Y-11238086D01*
X12838286Y-11317113D01*
X12917313Y-11317113D01*
X12917313Y-11621913D02*
X12917313Y-11542886D01*
X12838286Y-11542886D01*
X12838286Y-11621913D01*
X12917313Y-11621913D01*
X12917313Y-11926713D02*
X12917313Y-11847686D01*
X12838286Y-11847686D01*
X12838286Y-11926713D01*
X12917313Y-11926713D01*
X12917313Y-12231513D02*
X12917313Y-12152486D01*
X12838286Y-12152486D01*
X12838286Y-12231513D01*
X12917313Y-12231513D01*
X12917313Y-12536313D02*
X12917313Y-12457286D01*
X12838286Y-12457286D01*
X12838286Y-12536313D01*
X12917313Y-12536313D01*
X12917313Y-12841113D02*
X12917313Y-12762086D01*
X12838286Y-12762086D01*
X12838286Y-12841113D01*
X12917313Y-12841113D01*
X15101713Y-8573914D02*
X15101713Y-8494887D01*
X15022686Y-8494887D01*
X15022686Y-8573914D01*
X15101713Y-8573914D01*
X15101713Y-8878714D02*
X15101713Y-8799687D01*
X15022686Y-8799687D01*
X15022686Y-8878714D01*
X15101713Y-8878714D01*
X15101713Y-9183514D02*
X15101713Y-9104487D01*
X15022686Y-9104487D01*
X15022686Y-9183514D01*
X15101713Y-9183514D01*
X15101713Y-9488314D02*
X15101713Y-9409287D01*
X15022686Y-9409287D01*
X15022686Y-9488314D01*
X15101713Y-9488314D01*
X15101713Y-9793114D02*
X15101713Y-9714087D01*
X15022686Y-9714087D01*
X15022686Y-9793114D01*
X15101713Y-9793114D01*
X15101713Y-10097914D02*
X15101713Y-10018887D01*
X15022686Y-10018887D01*
X15022686Y-10097914D01*
X15101713Y-10097914D01*
X15101713Y-10402714D02*
X15101713Y-10323687D01*
X15022686Y-10323687D01*
X15022686Y-10402714D01*
X15101713Y-10402714D01*
X15101713Y-10707514D02*
X15101713Y-10628487D01*
X15022686Y-10628487D01*
X15022686Y-10707514D01*
X15101713Y-10707514D01*
X15101713Y-11012314D02*
X15101713Y-10933287D01*
X15022686Y-10933287D01*
X15022686Y-11012314D01*
X15101713Y-11012314D01*
X15101713Y-11317113D02*
X15101713Y-11238086D01*
X15022686Y-11238086D01*
X15022686Y-11317113D01*
X15101713Y-11317113D01*
X15101713Y-11621913D02*
X15101713Y-11542886D01*
X15022686Y-11542886D01*
X15022686Y-11621913D01*
X15101713Y-11621913D01*
X15101713Y-11926713D02*
X15101713Y-11847686D01*
X15022686Y-11847686D01*
X15022686Y-11926713D01*
X15101713Y-11926713D01*
X16117713Y-8573914D02*
X16117713Y-8494887D01*
X16038686Y-8494887D01*
X16038686Y-8573914D01*
X16117713Y-8573914D01*
X16117713Y-8878714D02*
X16117713Y-8799687D01*
X16038686Y-8799687D01*
X16038686Y-8878714D01*
X16117713Y-8878714D01*
X16117713Y-9183514D02*
X16117713Y-9104487D01*
X16038686Y-9104487D01*
X16038686Y-9183514D01*
X16117713Y-9183514D01*
X16117713Y-9488314D02*
X16117713Y-9409287D01*
X16038686Y-9409287D01*
X16038686Y-9488314D01*
X16117713Y-9488314D01*
X16117713Y-9793114D02*
X16117713Y-9714087D01*
X16038686Y-9714087D01*
X16038686Y-9793114D01*
X16117713Y-9793114D01*
X16117713Y-10097914D02*
X16117713Y-10018887D01*
X16038686Y-10018887D01*
X16038686Y-10097914D01*
X16117713Y-10097914D01*
X16117713Y-10402714D02*
X16117713Y-10323687D01*
X16038686Y-10323687D01*
X16038686Y-10402714D01*
X16117713Y-10402714D01*
X16117713Y-10707514D02*
X16117713Y-10628487D01*
X16038686Y-10628487D01*
X16038686Y-10707514D01*
X16117713Y-10707514D01*
X16117713Y-11012314D02*
X16117713Y-10933287D01*
X16038686Y-10933287D01*
X16038686Y-11012314D01*
X16117713Y-11012314D01*
X16117713Y-11317113D02*
X16117713Y-11238086D01*
X16038686Y-11238086D01*
X16038686Y-11317113D01*
X16117713Y-11317113D01*
X16117713Y-11621913D02*
X16117713Y-11542886D01*
X16038686Y-11542886D01*
X16038686Y-11621913D01*
X16117713Y-11621913D01*
X16117713Y-11926713D02*
X16117713Y-11847686D01*
X16038686Y-11847686D01*
X16038686Y-11926713D01*
X16117713Y-11926713D01*
D16*
X13470000Y-11538000D02*
X13530000Y-11478000D01*
X13470000Y-11418000D01*
X13410000Y-11478000D01*
X13470000Y-11538000D01*
X13470000Y-13038000D02*
X13530000Y-12978000D01*
X13470000Y-12918000D01*
X13410000Y-12978000D01*
X13470000Y-13038000D01*
X13970000Y-13038000D02*
X14030000Y-12978000D01*
X13970000Y-12918000D01*
X13910000Y-12978000D01*
X13970000Y-13038000D01*
X14470000Y-11538000D02*
X14530000Y-11478000D01*
X14470000Y-11418000D01*
X14410000Y-11478000D01*
X14470000Y-11538000D01*
X14470000Y-13038000D02*
X14530000Y-12978000D01*
X14470000Y-12918000D01*
X14410000Y-12978000D01*
X14470000Y-13038000D01*
D17*
X2338000Y-8053000D02*
X2488000Y-8203000D01*
X2488000Y-8053000D02*
X2338000Y-8203000D01*
X2488000Y-8128000D02*
G75*
G03*
X2488000Y-8128000I-75000J0D01*
G01*
X2338000Y-10085000D02*
X2488000Y-10235000D01*
X2488000Y-10085000D02*
X2338000Y-10235000D01*
X2488000Y-10160000D02*
G75*
G03*
X2488000Y-10160000I-75000J0D01*
G01*
X2338000Y-12117000D02*
X2488000Y-12267000D01*
X2488000Y-12117000D02*
X2338000Y-12267000D01*
X2488000Y-12192000D02*
G75*
G03*
X2488000Y-12192000I-75000J0D01*
G01*
X2973000Y-7799000D02*
X3123000Y-7949000D01*
X3123000Y-7799000D02*
X2973000Y-7949000D01*
X3123000Y-7874000D02*
G75*
G03*
X3123000Y-7874000I-75000J0D01*
G01*
X2973000Y-9831000D02*
X3123000Y-9981000D01*
X3123000Y-9831000D02*
X2973000Y-9981000D01*
X3123000Y-9906000D02*
G75*
G03*
X3123000Y-9906000I-75000J0D01*
G01*
X2973000Y-11863000D02*
X3123000Y-12013000D01*
X3123000Y-11863000D02*
X2973000Y-12013000D01*
X3123000Y-11938000D02*
G75*
G03*
X3123000Y-11938000I-75000J0D01*
G01*
X4370000Y-8053000D02*
X4520000Y-8203000D01*
X4520000Y-8053000D02*
X4370000Y-8203000D01*
X4520000Y-8128000D02*
G75*
G03*
X4520000Y-8128000I-75000J0D01*
G01*
X4370000Y-10085000D02*
X4520000Y-10235000D01*
X4520000Y-10085000D02*
X4370000Y-10235000D01*
X4520000Y-10160000D02*
G75*
G03*
X4520000Y-10160000I-75000J0D01*
G01*
X4370000Y-12117000D02*
X4520000Y-12267000D01*
X4520000Y-12117000D02*
X4370000Y-12267000D01*
X4520000Y-12192000D02*
G75*
G03*
X4520000Y-12192000I-75000J0D01*
G01*
X5005000Y-7799000D02*
X5155000Y-7949000D01*
X5155000Y-7799000D02*
X5005000Y-7949000D01*
X5155000Y-7874000D02*
G75*
G03*
X5155000Y-7874000I-75000J0D01*
G01*
X5005000Y-9831000D02*
X5155000Y-9981000D01*
X5155000Y-9831000D02*
X5005000Y-9981000D01*
X5155000Y-9906000D02*
G75*
G03*
X5155000Y-9906000I-75000J0D01*
G01*
X5005000Y-11863000D02*
X5155000Y-12013000D01*
X5155000Y-11863000D02*
X5005000Y-12013000D01*
X5155000Y-11938000D02*
G75*
G03*
X5155000Y-11938000I-75000J0D01*
G01*
X6402000Y-8053000D02*
X6552000Y-8203000D01*
X6552000Y-8053000D02*
X6402000Y-8203000D01*
X6552000Y-8128000D02*
G75*
G03*
X6552000Y-8128000I-75000J0D01*
G01*
X6402000Y-10085000D02*
X6552000Y-10235000D01*
X6552000Y-10085000D02*
X6402000Y-10235000D01*
X6552000Y-10160000D02*
G75*
G03*
X6552000Y-10160000I-75000J0D01*
G01*
X6402000Y-12117000D02*
X6552000Y-12267000D01*
X6552000Y-12117000D02*
X6402000Y-12267000D01*
X6552000Y-12192000D02*
G75*
G03*
X6552000Y-12192000I-75000J0D01*
G01*
X7037000Y-7799000D02*
X7187000Y-7949000D01*
X7187000Y-7799000D02*
X7037000Y-7949000D01*
X7187000Y-7874000D02*
G75*
G03*
X7187000Y-7874000I-75000J0D01*
G01*
X7037000Y-9831000D02*
X7187000Y-9981000D01*
X7187000Y-9831000D02*
X7037000Y-9981000D01*
X7187000Y-9906000D02*
G75*
G03*
X7187000Y-9906000I-75000J0D01*
G01*
X7037000Y-11863000D02*
X7187000Y-12013000D01*
X7187000Y-11863000D02*
X7037000Y-12013000D01*
X7187000Y-11938000D02*
G75*
G03*
X7187000Y-11938000I-75000J0D01*
G01*
X8434000Y-8053000D02*
X8584000Y-8203000D01*
X8584000Y-8053000D02*
X8434000Y-8203000D01*
X8584000Y-8128000D02*
G75*
G03*
X8584000Y-8128000I-75000J0D01*
G01*
X8434000Y-10085000D02*
X8584000Y-10235000D01*
X8584000Y-10085000D02*
X8434000Y-10235000D01*
X8584000Y-10160000D02*
G75*
G03*
X8584000Y-10160000I-75000J0D01*
G01*
X8434000Y-12117000D02*
X8584000Y-12267000D01*
X8584000Y-12117000D02*
X8434000Y-12267000D01*
X8584000Y-12192000D02*
G75*
G03*
X8584000Y-12192000I-75000J0D01*
G01*
X9069000Y-7799000D02*
X9219000Y-7949000D01*
X9219000Y-7799000D02*
X9069000Y-7949000D01*
X9219000Y-7874000D02*
G75*
G03*
X9219000Y-7874000I-75000J0D01*
G01*
X9069000Y-9831000D02*
X9219000Y-9981000D01*
X9219000Y-9831000D02*
X9069000Y-9981000D01*
X9219000Y-9906000D02*
G75*
G03*
X9219000Y-9906000I-75000J0D01*
G01*
X9069000Y-11863000D02*
X9219000Y-12013000D01*
X9219000Y-11863000D02*
X9069000Y-12013000D01*
X9219000Y-11938000D02*
G75*
G03*
X9219000Y-11938000I-75000J0D01*
G01*
X10466000Y-8053000D02*
X10616000Y-8203000D01*
X10616000Y-8053000D02*
X10466000Y-8203000D01*
X10616000Y-8128000D02*
G75*
G03*
X10616000Y-8128000I-75000J0D01*
G01*
X10466000Y-10085000D02*
X10616000Y-10235000D01*
X10616000Y-10085000D02*
X10466000Y-10235000D01*
X10616000Y-10160000D02*
G75*
G03*
X10616000Y-10160000I-75000J0D01*
G01*
X10466000Y-12117000D02*
X10616000Y-12267000D01*
X10616000Y-12117000D02*
X10466000Y-12267000D01*
X10616000Y-12192000D02*
G75*
G03*
X10616000Y-12192000I-75000J0D01*
G01*
X11101000Y-7799000D02*
X11251000Y-7949000D01*
X11251000Y-7799000D02*
X11101000Y-7949000D01*
X11251000Y-7874000D02*
G75*
G03*
X11251000Y-7874000I-75000J0D01*
G01*
X11101000Y-9831000D02*
X11251000Y-9981000D01*
X11251000Y-9831000D02*
X11101000Y-9981000D01*
X11251000Y-9906000D02*
G75*
G03*
X11251000Y-9906000I-75000J0D01*
G01*
X11101000Y-11863000D02*
X11251000Y-12013000D01*
X11251000Y-11863000D02*
X11101000Y-12013000D01*
X11251000Y-11938000D02*
G75*
G03*
X11251000Y-11938000I-75000J0D01*
G01*
X16562000Y-8053000D02*
X16712000Y-8203000D01*
X16712000Y-8053000D02*
X16562000Y-8203000D01*
X16712000Y-8128000D02*
G75*
G03*
X16712000Y-8128000I-75000J0D01*
G01*
X16562000Y-10107000D02*
X16712000Y-10257000D01*
X16712000Y-10107000D02*
X16562000Y-10257000D01*
X16712000Y-10182000D02*
G75*
G03*
X16712000Y-10182000I-75000J0D01*
G01*
X16562000Y-12117000D02*
X16712000Y-12267000D01*
X16712000Y-12117000D02*
X16562000Y-12267000D01*
X16712000Y-12192000D02*
G75*
G03*
X16712000Y-12192000I-75000J0D01*
G01*
X17197000Y-7799000D02*
X17347000Y-7949000D01*
X17347000Y-7799000D02*
X17197000Y-7949000D01*
X17347000Y-7874000D02*
G75*
G03*
X17347000Y-7874000I-75000J0D01*
G01*
X17197000Y-9853000D02*
X17347000Y-10003000D01*
X17347000Y-9853000D02*
X17197000Y-10003000D01*
X17347000Y-9928000D02*
G75*
G03*
X17347000Y-9928000I-75000J0D01*
G01*
X17197000Y-11863000D02*
X17347000Y-12013000D01*
X17347000Y-11863000D02*
X17197000Y-12013000D01*
X17347000Y-11938000D02*
G75*
G03*
X17347000Y-11938000I-75000J0D01*
G01*
X18594000Y-8053000D02*
X18744000Y-8203000D01*
X18744000Y-8053000D02*
X18594000Y-8203000D01*
X18744000Y-8128000D02*
G75*
G03*
X18744000Y-8128000I-75000J0D01*
G01*
X18594000Y-10107000D02*
X18744000Y-10257000D01*
X18744000Y-10107000D02*
X18594000Y-10257000D01*
X18744000Y-10182000D02*
G75*
G03*
X18744000Y-10182000I-75000J0D01*
G01*
X18594000Y-12117000D02*
X18744000Y-12267000D01*
X18744000Y-12117000D02*
X18594000Y-12267000D01*
X18744000Y-12192000D02*
G75*
G03*
X18744000Y-12192000I-75000J0D01*
G01*
X19229000Y-7799000D02*
X19379000Y-7949000D01*
X19379000Y-7799000D02*
X19229000Y-7949000D01*
X19379000Y-7874000D02*
G75*
G03*
X19379000Y-7874000I-75000J0D01*
G01*
X19229000Y-9853000D02*
X19379000Y-10003000D01*
X19379000Y-9853000D02*
X19229000Y-10003000D01*
X19379000Y-9928000D02*
G75*
G03*
X19379000Y-9928000I-75000J0D01*
G01*
X19229000Y-11863000D02*
X19379000Y-12013000D01*
X19379000Y-11863000D02*
X19229000Y-12013000D01*
X19379000Y-11938000D02*
G75*
G03*
X19379000Y-11938000I-75000J0D01*
G01*
X20626000Y-8053000D02*
X20776000Y-8203000D01*
X20776000Y-8053000D02*
X20626000Y-8203000D01*
X20776000Y-8128000D02*
G75*
G03*
X20776000Y-8128000I-75000J0D01*
G01*
X20626000Y-10107000D02*
X20776000Y-10257000D01*
X20776000Y-10107000D02*
X20626000Y-10257000D01*
X20776000Y-10182000D02*
G75*
G03*
X20776000Y-10182000I-75000J0D01*
G01*
X21261000Y-7799000D02*
X21411000Y-7949000D01*
X21411000Y-7799000D02*
X21261000Y-7949000D01*
X21411000Y-7874000D02*
G75*
G03*
X21411000Y-7874000I-75000J0D01*
G01*
X21261000Y-9853000D02*
X21411000Y-10003000D01*
X21411000Y-9853000D02*
X21261000Y-10003000D01*
X21411000Y-9928000D02*
G75*
G03*
X21411000Y-9928000I-75000J0D01*
G01*
X22658000Y-8053000D02*
X22808000Y-8203000D01*
X22808000Y-8053000D02*
X22658000Y-8203000D01*
X22808000Y-8128000D02*
G75*
G03*
X22808000Y-8128000I-75000J0D01*
G01*
X22658000Y-10107000D02*
X22808000Y-10257000D01*
X22808000Y-10107000D02*
X22658000Y-10257000D01*
X22808000Y-10182000D02*
G75*
G03*
X22808000Y-10182000I-75000J0D01*
G01*
X23293000Y-7799000D02*
X23443000Y-7949000D01*
X23443000Y-7799000D02*
X23293000Y-7949000D01*
X23443000Y-7874000D02*
G75*
G03*
X23443000Y-7874000I-75000J0D01*
G01*
X23293000Y-9853000D02*
X23443000Y-10003000D01*
X23443000Y-9853000D02*
X23293000Y-10003000D01*
X23443000Y-9928000D02*
G75*
G03*
X23443000Y-9928000I-75000J0D01*
G01*
X24690000Y-8053000D02*
X24840000Y-8203000D01*
X24840000Y-8053000D02*
X24690000Y-8203000D01*
X24840000Y-8128000D02*
G75*
G03*
X24840000Y-8128000I-75000J0D01*
G01*
X25325000Y-7799000D02*
X25475000Y-7949000D01*
X25475000Y-7799000D02*
X25325000Y-7949000D01*
X25475000Y-7874000D02*
G75*
G03*
X25475000Y-7874000I-75000J0D01*
G01*
D18*
X2200280Y-8296280D02*
X2371720Y-8467720D01*
X2371720Y-8296280D02*
X2200280Y-8467720D01*
X2286000Y-8296280D02*
X2286000Y-8467720D01*
X2200280Y-8382000D02*
X2371720Y-8382000D01*
X2200280Y-10328280D02*
X2371720Y-10499720D01*
X2371720Y-10328280D02*
X2200280Y-10499720D01*
X2286000Y-10328280D02*
X2286000Y-10499720D01*
X2200280Y-10414000D02*
X2371720Y-10414000D01*
X2200280Y-12360280D02*
X2371720Y-12531720D01*
X2371720Y-12360280D02*
X2200280Y-12531720D01*
X2286000Y-12360280D02*
X2286000Y-12531720D01*
X2200280Y-12446000D02*
X2371720Y-12446000D01*
X3216280Y-8296280D02*
X3387720Y-8467720D01*
X3387720Y-8296280D02*
X3216280Y-8467720D01*
X3302000Y-8296280D02*
X3302000Y-8467720D01*
X3216280Y-8382000D02*
X3387720Y-8382000D01*
X3216280Y-10328280D02*
X3387720Y-10499720D01*
X3387720Y-10328280D02*
X3216280Y-10499720D01*
X3302000Y-10328280D02*
X3302000Y-10499720D01*
X3216280Y-10414000D02*
X3387720Y-10414000D01*
X3216280Y-12360280D02*
X3387720Y-12531720D01*
X3387720Y-12360280D02*
X3216280Y-12531720D01*
X3302000Y-12360280D02*
X3302000Y-12531720D01*
X3216280Y-12446000D02*
X3387720Y-12446000D01*
X4232280Y-8296280D02*
X4403720Y-8467720D01*
X4403720Y-8296280D02*
X4232280Y-8467720D01*
X4318000Y-8296280D02*
X4318000Y-8467720D01*
X4232280Y-8382000D02*
X4403720Y-8382000D01*
X4232280Y-10328280D02*
X4403720Y-10499720D01*
X4403720Y-10328280D02*
X4232280Y-10499720D01*
X4318000Y-10328280D02*
X4318000Y-10499720D01*
X4232280Y-10414000D02*
X4403720Y-10414000D01*
X4232280Y-12360280D02*
X4403720Y-12531720D01*
X4403720Y-12360280D02*
X4232280Y-12531720D01*
X4318000Y-12360280D02*
X4318000Y-12531720D01*
X4232280Y-12446000D02*
X4403720Y-12446000D01*
X5248280Y-8296280D02*
X5419720Y-8467720D01*
X5419720Y-8296280D02*
X5248280Y-8467720D01*
X5334000Y-8296280D02*
X5334000Y-8467720D01*
X5248280Y-8382000D02*
X5419720Y-8382000D01*
X5248280Y-10328280D02*
X5419720Y-10499720D01*
X5419720Y-10328280D02*
X5248280Y-10499720D01*
X5334000Y-10328280D02*
X5334000Y-10499720D01*
X5248280Y-10414000D02*
X5419720Y-10414000D01*
X5248280Y-12360280D02*
X5419720Y-12531720D01*
X5419720Y-12360280D02*
X5248280Y-12531720D01*
X5334000Y-12360280D02*
X5334000Y-12531720D01*
X5248280Y-12446000D02*
X5419720Y-12446000D01*
X6264280Y-8296280D02*
X6435720Y-8467720D01*
X6435720Y-8296280D02*
X6264280Y-8467720D01*
X6350000Y-8296280D02*
X6350000Y-8467720D01*
X6264280Y-8382000D02*
X6435720Y-8382000D01*
X6264280Y-10328280D02*
X6435720Y-10499720D01*
X6435720Y-10328280D02*
X6264280Y-10499720D01*
X6350000Y-10328280D02*
X6350000Y-10499720D01*
X6264280Y-10414000D02*
X6435720Y-10414000D01*
X6264280Y-12360280D02*
X6435720Y-12531720D01*
X6435720Y-12360280D02*
X6264280Y-12531720D01*
X6350000Y-12360280D02*
X6350000Y-12531720D01*
X6264280Y-12446000D02*
X6435720Y-12446000D01*
X7280280Y-8296280D02*
X7451720Y-8467720D01*
X7451720Y-8296280D02*
X7280280Y-8467720D01*
X7366000Y-8296280D02*
X7366000Y-8467720D01*
X7280280Y-8382000D02*
X7451720Y-8382000D01*
X7280280Y-10328280D02*
X7451720Y-10499720D01*
X7451720Y-10328280D02*
X7280280Y-10499720D01*
X7366000Y-10328280D02*
X7366000Y-10499720D01*
X7280280Y-10414000D02*
X7451720Y-10414000D01*
X7280280Y-12360280D02*
X7451720Y-12531720D01*
X7451720Y-12360280D02*
X7280280Y-12531720D01*
X7366000Y-12360280D02*
X7366000Y-12531720D01*
X7280280Y-12446000D02*
X7451720Y-12446000D01*
X8296280Y-8296280D02*
X8467720Y-8467720D01*
X8467720Y-8296280D02*
X8296280Y-8467720D01*
X8382000Y-8296280D02*
X8382000Y-8467720D01*
X8296280Y-8382000D02*
X8467720Y-8382000D01*
X8296280Y-10328280D02*
X8467720Y-10499720D01*
X8467720Y-10328280D02*
X8296280Y-10499720D01*
X8382000Y-10328280D02*
X8382000Y-10499720D01*
X8296280Y-10414000D02*
X8467720Y-10414000D01*
X8296280Y-12360280D02*
X8467720Y-12531720D01*
X8467720Y-12360280D02*
X8296280Y-12531720D01*
X8382000Y-12360280D02*
X8382000Y-12531720D01*
X8296280Y-12446000D02*
X8467720Y-12446000D01*
X9312280Y-8296280D02*
X9483720Y-8467720D01*
X9483720Y-8296280D02*
X9312280Y-8467720D01*
X9398000Y-8296280D02*
X9398000Y-8467720D01*
X9312280Y-8382000D02*
X9483720Y-8382000D01*
X9312280Y-10328280D02*
X9483720Y-10499720D01*
X9483720Y-10328280D02*
X9312280Y-10499720D01*
X9398000Y-10328280D02*
X9398000Y-10499720D01*
X9312280Y-10414000D02*
X9483720Y-10414000D01*
X9312280Y-12360280D02*
X9483720Y-12531720D01*
X9483720Y-12360280D02*
X9312280Y-12531720D01*
X9398000Y-12360280D02*
X9398000Y-12531720D01*
X9312280Y-12446000D02*
X9483720Y-12446000D01*
X10328280Y-8296280D02*
X10499720Y-8467720D01*
X10499720Y-8296280D02*
X10328280Y-8467720D01*
X10414000Y-8296280D02*
X10414000Y-8467720D01*
X10328280Y-8382000D02*
X10499720Y-8382000D01*
X10328280Y-10328280D02*
X10499720Y-10499720D01*
X10499720Y-10328280D02*
X10328280Y-10499720D01*
X10414000Y-10328280D02*
X10414000Y-10499720D01*
X10328280Y-10414000D02*
X10499720Y-10414000D01*
X10328280Y-12360280D02*
X10499720Y-12531720D01*
X10499720Y-12360280D02*
X10328280Y-12531720D01*
X10414000Y-12360280D02*
X10414000Y-12531720D01*
X10328280Y-12446000D02*
X10499720Y-12446000D01*
X11344280Y-8296280D02*
X11515720Y-8467720D01*
X11515720Y-8296280D02*
X11344280Y-8467720D01*
X11430000Y-8296280D02*
X11430000Y-8467720D01*
X11344280Y-8382000D02*
X11515720Y-8382000D01*
X11344280Y-10328280D02*
X11515720Y-10499720D01*
X11515720Y-10328280D02*
X11344280Y-10499720D01*
X11430000Y-10328280D02*
X11430000Y-10499720D01*
X11344280Y-10414000D02*
X11515720Y-10414000D01*
X11344280Y-12360280D02*
X11515720Y-12531720D01*
X11515720Y-12360280D02*
X11344280Y-12531720D01*
X11430000Y-12360280D02*
X11430000Y-12531720D01*
X11344280Y-12446000D02*
X11515720Y-12446000D01*
X16424280Y-8296280D02*
X16595720Y-8467720D01*
X16595720Y-8296280D02*
X16424280Y-8467720D01*
X16510000Y-8296280D02*
X16510000Y-8467720D01*
X16424280Y-8382000D02*
X16595720Y-8382000D01*
X16424280Y-10350280D02*
X16595720Y-10521720D01*
X16595720Y-10350280D02*
X16424280Y-10521720D01*
X16510000Y-10350280D02*
X16510000Y-10521720D01*
X16424280Y-10436000D02*
X16595720Y-10436000D01*
X16424280Y-12360280D02*
X16595720Y-12531720D01*
X16595720Y-12360280D02*
X16424280Y-12531720D01*
X16510000Y-12360280D02*
X16510000Y-12531720D01*
X16424280Y-12446000D02*
X16595720Y-12446000D01*
X17440280Y-8296280D02*
X17611720Y-8467720D01*
X17611720Y-8296280D02*
X17440280Y-8467720D01*
X17526000Y-8296280D02*
X17526000Y-8467720D01*
X17440280Y-8382000D02*
X17611720Y-8382000D01*
X17440280Y-10350280D02*
X17611720Y-10521720D01*
X17611720Y-10350280D02*
X17440280Y-10521720D01*
X17526000Y-10350280D02*
X17526000Y-10521720D01*
X17440280Y-10436000D02*
X17611720Y-10436000D01*
X17440280Y-12360280D02*
X17611720Y-12531720D01*
X17611720Y-12360280D02*
X17440280Y-12531720D01*
X17526000Y-12360280D02*
X17526000Y-12531720D01*
X17440280Y-12446000D02*
X17611720Y-12446000D01*
X18456280Y-8296280D02*
X18627720Y-8467720D01*
X18627720Y-8296280D02*
X18456280Y-8467720D01*
X18542000Y-8296280D02*
X18542000Y-8467720D01*
X18456280Y-8382000D02*
X18627720Y-8382000D01*
X18456280Y-10350280D02*
X18627720Y-10521720D01*
X18627720Y-10350280D02*
X18456280Y-10521720D01*
X18542000Y-10350280D02*
X18542000Y-10521720D01*
X18456280Y-10436000D02*
X18627720Y-10436000D01*
X18456280Y-12360280D02*
X18627720Y-12531720D01*
X18627720Y-12360280D02*
X18456280Y-12531720D01*
X18542000Y-12360280D02*
X18542000Y-12531720D01*
X18456280Y-12446000D02*
X18627720Y-12446000D01*
X19472280Y-8296280D02*
X19643720Y-8467720D01*
X19643720Y-8296280D02*
X19472280Y-8467720D01*
X19558000Y-8296280D02*
X19558000Y-8467720D01*
X19472280Y-8382000D02*
X19643720Y-8382000D01*
X19472280Y-10350280D02*
X19643720Y-10521720D01*
X19643720Y-10350280D02*
X19472280Y-10521720D01*
X19558000Y-10350280D02*
X19558000Y-10521720D01*
X19472280Y-10436000D02*
X19643720Y-10436000D01*
X19472280Y-12360280D02*
X19643720Y-12531720D01*
X19643720Y-12360280D02*
X19472280Y-12531720D01*
X19558000Y-12360280D02*
X19558000Y-12531720D01*
X19472280Y-12446000D02*
X19643720Y-12446000D01*
X20488280Y-8296280D02*
X20659720Y-8467720D01*
X20659720Y-8296280D02*
X20488280Y-8467720D01*
X20574000Y-8296280D02*
X20574000Y-8467720D01*
X20488280Y-8382000D02*
X20659720Y-8382000D01*
X20488280Y-10350280D02*
X20659720Y-10521720D01*
X20659720Y-10350280D02*
X20488280Y-10521720D01*
X20574000Y-10350280D02*
X20574000Y-10521720D01*
X20488280Y-10436000D02*
X20659720Y-10436000D01*
X21504280Y-8296280D02*
X21675720Y-8467720D01*
X21675720Y-8296280D02*
X21504280Y-8467720D01*
X21590000Y-8296280D02*
X21590000Y-8467720D01*
X21504280Y-8382000D02*
X21675720Y-8382000D01*
X21504280Y-10350280D02*
X21675720Y-10521720D01*
X21675720Y-10350280D02*
X21504280Y-10521720D01*
X21590000Y-10350280D02*
X21590000Y-10521720D01*
X21504280Y-10436000D02*
X21675720Y-10436000D01*
X22520280Y-8296280D02*
X22691720Y-8467720D01*
X22691720Y-8296280D02*
X22520280Y-8467720D01*
X22606000Y-8296280D02*
X22606000Y-8467720D01*
X22520280Y-8382000D02*
X22691720Y-8382000D01*
X22520280Y-10350280D02*
X22691720Y-10521720D01*
X22691720Y-10350280D02*
X22520280Y-10521720D01*
X22606000Y-10350280D02*
X22606000Y-10521720D01*
X22520280Y-10436000D02*
X22691720Y-10436000D01*
X23536280Y-8296280D02*
X23707720Y-8467720D01*
X23707720Y-8296280D02*
X23536280Y-8467720D01*
X23622000Y-8296280D02*
X23622000Y-8467720D01*
X23536280Y-8382000D02*
X23707720Y-8382000D01*
X23536280Y-10350280D02*
X23707720Y-10521720D01*
X23707720Y-10350280D02*
X23536280Y-10521720D01*
X23622000Y-10350280D02*
X23622000Y-10521720D01*
X23536280Y-10436000D02*
X23707720Y-10436000D01*
X24552280Y-8296280D02*
X24723720Y-8467720D01*
X24723720Y-8296280D02*
X24552280Y-8467720D01*
X24638000Y-8296280D02*
X24638000Y-8467720D01*
X24552280Y-8382000D02*
X24723720Y-8382000D01*
X25568280Y-8296280D02*
X25739720Y-8467720D01*
X25739720Y-8296280D02*
X25568280Y-8467720D01*
X25654000Y-8296280D02*
X25654000Y-8467720D01*
X25568280Y-8382000D02*
X25739720Y-8382000D01*
D11*
X1779119Y-14028976D02*
X1779119Y-13828976D01*
X1826738Y-13828976D01*
X1855309Y-13838500D01*
X1874357Y-13857548D01*
X1883881Y-13876595D01*
X1893405Y-13914690D01*
X1893405Y-13943262D01*
X1883881Y-13981357D01*
X1874357Y-14000405D01*
X1855309Y-14019452D01*
X1826738Y-14028976D01*
X1779119Y-14028976D01*
X1979119Y-14028976D02*
X1979119Y-13895643D01*
X1979119Y-13933738D02*
X1988643Y-13914690D01*
X1998167Y-13905167D01*
X2017214Y-13895643D01*
X2036262Y-13895643D01*
X2102929Y-14028976D02*
X2102929Y-13895643D01*
X2102929Y-13828976D02*
X2093405Y-13838500D01*
X2102929Y-13848024D01*
X2112452Y-13838500D01*
X2102929Y-13828976D01*
X2102929Y-13848024D01*
X2226738Y-14028976D02*
X2207690Y-14019452D01*
X2198167Y-14000405D01*
X2198167Y-13828976D01*
X2331500Y-14028976D02*
X2312452Y-14019452D01*
X2302929Y-14000405D01*
X2302929Y-13828976D01*
X2560071Y-14028976D02*
X2560071Y-13828976D01*
X2626738Y-13971833D01*
X2693405Y-13828976D01*
X2693405Y-14028976D01*
X2874357Y-14028976D02*
X2874357Y-13924214D01*
X2864833Y-13905167D01*
X2845786Y-13895643D01*
X2807690Y-13895643D01*
X2788643Y-13905167D01*
X2874357Y-14019452D02*
X2855309Y-14028976D01*
X2807690Y-14028976D01*
X2788643Y-14019452D01*
X2779119Y-14000405D01*
X2779119Y-13981357D01*
X2788643Y-13962309D01*
X2807690Y-13952786D01*
X2855309Y-13952786D01*
X2874357Y-13943262D01*
X2969595Y-13895643D02*
X2969595Y-14095643D01*
X2969595Y-13905167D02*
X2988643Y-13895643D01*
X3026738Y-13895643D01*
X3045786Y-13905167D01*
X3055309Y-13914690D01*
X3064833Y-13933738D01*
X3064833Y-13990881D01*
X3055309Y-14009928D01*
X3045786Y-14019452D01*
X3026738Y-14028976D01*
X2988643Y-14028976D01*
X2969595Y-14019452D01*
X3150548Y-14009928D02*
X3160071Y-14019452D01*
X3150548Y-14028976D01*
X3141024Y-14019452D01*
X3150548Y-14009928D01*
X3150548Y-14028976D01*
X3150548Y-13905167D02*
X3160071Y-13914690D01*
X3150548Y-13924214D01*
X3141024Y-13914690D01*
X3150548Y-13905167D01*
X3150548Y-13924214D01*
D12*
X1481500Y-14338500D02*
X1521500Y-14378500D01*
X1521500Y-14338500D02*
X1481500Y-14378500D01*
D11*
X1817214Y-14248976D02*
X1836262Y-14248976D01*
X1855309Y-14258500D01*
X1864833Y-14268024D01*
X1874357Y-14287071D01*
X1883881Y-14325167D01*
X1883881Y-14372786D01*
X1874357Y-14410881D01*
X1864833Y-14429928D01*
X1855309Y-14439452D01*
X1836262Y-14448976D01*
X1817214Y-14448976D01*
X1798167Y-14439452D01*
X1788643Y-14429928D01*
X1779119Y-14410881D01*
X1769595Y-14372786D01*
X1769595Y-14325167D01*
X1779119Y-14287071D01*
X1788643Y-14268024D01*
X1798167Y-14258500D01*
X1817214Y-14248976D01*
X1969595Y-14429928D02*
X1979119Y-14439452D01*
X1969595Y-14448976D01*
X1960071Y-14439452D01*
X1969595Y-14429928D01*
X1969595Y-14448976D01*
X2150548Y-14315643D02*
X2150548Y-14448976D01*
X2102929Y-14239452D02*
X2055309Y-14382309D01*
X2179119Y-14382309D01*
X2293405Y-14248976D02*
X2312452Y-14248976D01*
X2331500Y-14258500D01*
X2341024Y-14268024D01*
X2350548Y-14287071D01*
X2360071Y-14325167D01*
X2360071Y-14372786D01*
X2350548Y-14410881D01*
X2341024Y-14429928D01*
X2331500Y-14439452D01*
X2312452Y-14448976D01*
X2293405Y-14448976D01*
X2274357Y-14439452D01*
X2264833Y-14429928D01*
X2255310Y-14410881D01*
X2245786Y-14372786D01*
X2245786Y-14325167D01*
X2255310Y-14287071D01*
X2264833Y-14268024D01*
X2274357Y-14258500D01*
X2293405Y-14248976D01*
X2483881Y-14248976D02*
X2502929Y-14248976D01*
X2521976Y-14258500D01*
X2531500Y-14268024D01*
X2541024Y-14287071D01*
X2550548Y-14325167D01*
X2550548Y-14372786D01*
X2541024Y-14410881D01*
X2531500Y-14429928D01*
X2521976Y-14439452D01*
X2502929Y-14448976D01*
X2483881Y-14448976D01*
X2464833Y-14439452D01*
X2455310Y-14429928D01*
X2445786Y-14410881D01*
X2436262Y-14372786D01*
X2436262Y-14325167D01*
X2445786Y-14287071D01*
X2455310Y-14268024D01*
X2464833Y-14258500D01*
X2483881Y-14248976D01*
X2636262Y-14448976D02*
X2636262Y-14315643D01*
X2636262Y-14334690D02*
X2645786Y-14325167D01*
X2664833Y-14315643D01*
X2693405Y-14315643D01*
X2712452Y-14325167D01*
X2721976Y-14344214D01*
X2721976Y-14448976D01*
X2721976Y-14344214D02*
X2731500Y-14325167D01*
X2750548Y-14315643D01*
X2779119Y-14315643D01*
X2798167Y-14325167D01*
X2807690Y-14344214D01*
X2807690Y-14448976D01*
X2902928Y-14448976D02*
X2902928Y-14315643D01*
X2902928Y-14334690D02*
X2912452Y-14325167D01*
X2931500Y-14315643D01*
X2960071Y-14315643D01*
X2979119Y-14325167D01*
X2988643Y-14344214D01*
X2988643Y-14448976D01*
X2988643Y-14344214D02*
X2998167Y-14325167D01*
X3017214Y-14315643D01*
X3045786Y-14315643D01*
X3064833Y-14325167D01*
X3074357Y-14344214D01*
X3074357Y-14448976D01*
X3464833Y-14239452D02*
X3293405Y-14496595D01*
X3721976Y-14248976D02*
X3741024Y-14248976D01*
X3760071Y-14258500D01*
X3769595Y-14268024D01*
X3779119Y-14287071D01*
X3788643Y-14325167D01*
X3788643Y-14372786D01*
X3779119Y-14410881D01*
X3769595Y-14429928D01*
X3760071Y-14439452D01*
X3741024Y-14448976D01*
X3721976Y-14448976D01*
X3702928Y-14439452D01*
X3693405Y-14429928D01*
X3683881Y-14410881D01*
X3674357Y-14372786D01*
X3674357Y-14325167D01*
X3683881Y-14287071D01*
X3693405Y-14268024D01*
X3702928Y-14258500D01*
X3721976Y-14248976D01*
X3874357Y-14429928D02*
X3883881Y-14439452D01*
X3874357Y-14448976D01*
X3864833Y-14439452D01*
X3874357Y-14429928D01*
X3874357Y-14448976D01*
X4007690Y-14248976D02*
X4026738Y-14248976D01*
X4045786Y-14258500D01*
X4055309Y-14268024D01*
X4064833Y-14287071D01*
X4074357Y-14325167D01*
X4074357Y-14372786D01*
X4064833Y-14410881D01*
X4055309Y-14429928D01*
X4045786Y-14439452D01*
X4026738Y-14448976D01*
X4007690Y-14448976D01*
X3988643Y-14439452D01*
X3979119Y-14429928D01*
X3969595Y-14410881D01*
X3960071Y-14372786D01*
X3960071Y-14325167D01*
X3969595Y-14287071D01*
X3979119Y-14268024D01*
X3988643Y-14258500D01*
X4007690Y-14248976D01*
X4264833Y-14448976D02*
X4150548Y-14448976D01*
X4207690Y-14448976D02*
X4207690Y-14248976D01*
X4188643Y-14277548D01*
X4169595Y-14296595D01*
X4150548Y-14306119D01*
X4445786Y-14248976D02*
X4350548Y-14248976D01*
X4341024Y-14344214D01*
X4350548Y-14334690D01*
X4369595Y-14325167D01*
X4417214Y-14325167D01*
X4436262Y-14334690D01*
X4445786Y-14344214D01*
X4455310Y-14363262D01*
X4455310Y-14410881D01*
X4445786Y-14429928D01*
X4436262Y-14439452D01*
X4417214Y-14448976D01*
X4369595Y-14448976D01*
X4350548Y-14439452D01*
X4341024Y-14429928D01*
X4521976Y-14248976D02*
X4655310Y-14248976D01*
X4569595Y-14448976D01*
X4721976Y-14248976D02*
X4721976Y-14287071D01*
X4798167Y-14248976D02*
X4798167Y-14287071D01*
X5093405Y-14525167D02*
X5083881Y-14515643D01*
X5064833Y-14487071D01*
X5055310Y-14468024D01*
X5045786Y-14439452D01*
X5036262Y-14391833D01*
X5036262Y-14353738D01*
X5045786Y-14306119D01*
X5055310Y-14277548D01*
X5064833Y-14258500D01*
X5083881Y-14229928D01*
X5093405Y-14220405D01*
X5264833Y-14248976D02*
X5169595Y-14248976D01*
X5160071Y-14344214D01*
X5169595Y-14334690D01*
X5188643Y-14325167D01*
X5236262Y-14325167D01*
X5255310Y-14334690D01*
X5264833Y-14344214D01*
X5274357Y-14363262D01*
X5274357Y-14410881D01*
X5264833Y-14429928D01*
X5255310Y-14439452D01*
X5236262Y-14448976D01*
X5188643Y-14448976D01*
X5169595Y-14439452D01*
X5160071Y-14429928D01*
X5445786Y-14315643D02*
X5445786Y-14448976D01*
X5398167Y-14239452D02*
X5350548Y-14382309D01*
X5474357Y-14382309D01*
X5702928Y-14448976D02*
X5702928Y-14248976D01*
X5788643Y-14448976D02*
X5788643Y-14344214D01*
X5779119Y-14325167D01*
X5760071Y-14315643D01*
X5731500Y-14315643D01*
X5712452Y-14325167D01*
X5702928Y-14334690D01*
X5912452Y-14448976D02*
X5893405Y-14439452D01*
X5883881Y-14429928D01*
X5874357Y-14410881D01*
X5874357Y-14353738D01*
X5883881Y-14334690D01*
X5893405Y-14325167D01*
X5912452Y-14315643D01*
X5941024Y-14315643D01*
X5960071Y-14325167D01*
X5969595Y-14334690D01*
X5979119Y-14353738D01*
X5979119Y-14410881D01*
X5969595Y-14429928D01*
X5960071Y-14439452D01*
X5941024Y-14448976D01*
X5912452Y-14448976D01*
X6093405Y-14448976D02*
X6074357Y-14439452D01*
X6064833Y-14420405D01*
X6064833Y-14248976D01*
X6245786Y-14439452D02*
X6226738Y-14448976D01*
X6188643Y-14448976D01*
X6169595Y-14439452D01*
X6160071Y-14420405D01*
X6160071Y-14344214D01*
X6169595Y-14325167D01*
X6188643Y-14315643D01*
X6226738Y-14315643D01*
X6245786Y-14325167D01*
X6255309Y-14344214D01*
X6255309Y-14363262D01*
X6160071Y-14382309D01*
X6331500Y-14439452D02*
X6350548Y-14448976D01*
X6388643Y-14448976D01*
X6407690Y-14439452D01*
X6417214Y-14420405D01*
X6417214Y-14410881D01*
X6407690Y-14391833D01*
X6388643Y-14382309D01*
X6360071Y-14382309D01*
X6341024Y-14372786D01*
X6331500Y-14353738D01*
X6331500Y-14344214D01*
X6341024Y-14325167D01*
X6360071Y-14315643D01*
X6388643Y-14315643D01*
X6407690Y-14325167D01*
X6483881Y-14525167D02*
X6493405Y-14515643D01*
X6512452Y-14487071D01*
X6521976Y-14468024D01*
X6531500Y-14439452D01*
X6541024Y-14391833D01*
X6541024Y-14353738D01*
X6531500Y-14306119D01*
X6521976Y-14277548D01*
X6512452Y-14258500D01*
X6493405Y-14229928D01*
X6483881Y-14220405D01*
D13*
X1521500Y-14622500D02*
G75*
G03*
X1521500Y-14622500I-50800J0D01*
G01*
D11*
X1883881Y-14712976D02*
X1769595Y-14712976D01*
X1826738Y-14712976D02*
X1826738Y-14512976D01*
X1807690Y-14541548D01*
X1788643Y-14560595D01*
X1769595Y-14570119D01*
X1969595Y-14693928D02*
X1979119Y-14703452D01*
X1969595Y-14712976D01*
X1960071Y-14703452D01*
X1969595Y-14693928D01*
X1969595Y-14712976D01*
X2102929Y-14512976D02*
X2121976Y-14512976D01*
X2141024Y-14522500D01*
X2150548Y-14532024D01*
X2160071Y-14551071D01*
X2169595Y-14589167D01*
X2169595Y-14636786D01*
X2160071Y-14674881D01*
X2150548Y-14693928D01*
X2141024Y-14703452D01*
X2121976Y-14712976D01*
X2102929Y-14712976D01*
X2083881Y-14703452D01*
X2074357Y-14693928D01*
X2064833Y-14674881D01*
X2055309Y-14636786D01*
X2055309Y-14589167D01*
X2064833Y-14551071D01*
X2074357Y-14532024D01*
X2083881Y-14522500D01*
X2102929Y-14512976D01*
X2360071Y-14712976D02*
X2245786Y-14712976D01*
X2302929Y-14712976D02*
X2302929Y-14512976D01*
X2283881Y-14541548D01*
X2264833Y-14560595D01*
X2245786Y-14570119D01*
X2531500Y-14512976D02*
X2493405Y-14512976D01*
X2474357Y-14522500D01*
X2464833Y-14532024D01*
X2445786Y-14560595D01*
X2436262Y-14598690D01*
X2436262Y-14674881D01*
X2445786Y-14693928D01*
X2455310Y-14703452D01*
X2474357Y-14712976D01*
X2512452Y-14712976D01*
X2531500Y-14703452D01*
X2541024Y-14693928D01*
X2550548Y-14674881D01*
X2550548Y-14627262D01*
X2541024Y-14608214D01*
X2531500Y-14598690D01*
X2512452Y-14589167D01*
X2474357Y-14589167D01*
X2455310Y-14598690D01*
X2445786Y-14608214D01*
X2436262Y-14627262D01*
X2636262Y-14712976D02*
X2636262Y-14579643D01*
X2636262Y-14598690D02*
X2645786Y-14589167D01*
X2664833Y-14579643D01*
X2693405Y-14579643D01*
X2712452Y-14589167D01*
X2721976Y-14608214D01*
X2721976Y-14712976D01*
X2721976Y-14608214D02*
X2731500Y-14589167D01*
X2750548Y-14579643D01*
X2779119Y-14579643D01*
X2798167Y-14589167D01*
X2807690Y-14608214D01*
X2807690Y-14712976D01*
X2902928Y-14712976D02*
X2902928Y-14579643D01*
X2902928Y-14598690D02*
X2912452Y-14589167D01*
X2931500Y-14579643D01*
X2960071Y-14579643D01*
X2979119Y-14589167D01*
X2988643Y-14608214D01*
X2988643Y-14712976D01*
X2988643Y-14608214D02*
X2998167Y-14589167D01*
X3017214Y-14579643D01*
X3045786Y-14579643D01*
X3064833Y-14589167D01*
X3074357Y-14608214D01*
X3074357Y-14712976D01*
X3464833Y-14503452D02*
X3293405Y-14760595D01*
X3721976Y-14512976D02*
X3741024Y-14512976D01*
X3760071Y-14522500D01*
X3769595Y-14532024D01*
X3779119Y-14551071D01*
X3788643Y-14589167D01*
X3788643Y-14636786D01*
X3779119Y-14674881D01*
X3769595Y-14693928D01*
X3760071Y-14703452D01*
X3741024Y-14712976D01*
X3721976Y-14712976D01*
X3702928Y-14703452D01*
X3693405Y-14693928D01*
X3683881Y-14674881D01*
X3674357Y-14636786D01*
X3674357Y-14589167D01*
X3683881Y-14551071D01*
X3693405Y-14532024D01*
X3702928Y-14522500D01*
X3721976Y-14512976D01*
X3874357Y-14693928D02*
X3883881Y-14703452D01*
X3874357Y-14712976D01*
X3864833Y-14703452D01*
X3874357Y-14693928D01*
X3874357Y-14712976D01*
X4007690Y-14512976D02*
X4026738Y-14512976D01*
X4045786Y-14522500D01*
X4055309Y-14532024D01*
X4064833Y-14551071D01*
X4074357Y-14589167D01*
X4074357Y-14636786D01*
X4064833Y-14674881D01*
X4055309Y-14693928D01*
X4045786Y-14703452D01*
X4026738Y-14712976D01*
X4007690Y-14712976D01*
X3988643Y-14703452D01*
X3979119Y-14693928D01*
X3969595Y-14674881D01*
X3960071Y-14636786D01*
X3960071Y-14589167D01*
X3969595Y-14551071D01*
X3979119Y-14532024D01*
X3988643Y-14522500D01*
X4007690Y-14512976D01*
X4245786Y-14579643D02*
X4245786Y-14712976D01*
X4198167Y-14503452D02*
X4150548Y-14646309D01*
X4274357Y-14646309D01*
X4388643Y-14512976D02*
X4407690Y-14512976D01*
X4426738Y-14522500D01*
X4436262Y-14532024D01*
X4445786Y-14551071D01*
X4455310Y-14589167D01*
X4455310Y-14636786D01*
X4445786Y-14674881D01*
X4436262Y-14693928D01*
X4426738Y-14703452D01*
X4407690Y-14712976D01*
X4388643Y-14712976D01*
X4369595Y-14703452D01*
X4360071Y-14693928D01*
X4350548Y-14674881D01*
X4341024Y-14636786D01*
X4341024Y-14589167D01*
X4350548Y-14551071D01*
X4360071Y-14532024D01*
X4369595Y-14522500D01*
X4388643Y-14512976D01*
X4579119Y-14512976D02*
X4598167Y-14512976D01*
X4617214Y-14522500D01*
X4626738Y-14532024D01*
X4636262Y-14551071D01*
X4645786Y-14589167D01*
X4645786Y-14636786D01*
X4636262Y-14674881D01*
X4626738Y-14693928D01*
X4617214Y-14703452D01*
X4598167Y-14712976D01*
X4579119Y-14712976D01*
X4560071Y-14703452D01*
X4550548Y-14693928D01*
X4541024Y-14674881D01*
X4531500Y-14636786D01*
X4531500Y-14589167D01*
X4541024Y-14551071D01*
X4550548Y-14532024D01*
X4560071Y-14522500D01*
X4579119Y-14512976D01*
X4721976Y-14512976D02*
X4721976Y-14551071D01*
X4798167Y-14512976D02*
X4798167Y-14551071D01*
X5093405Y-14789167D02*
X5083881Y-14779643D01*
X5064833Y-14751071D01*
X5055310Y-14732024D01*
X5045786Y-14703452D01*
X5036262Y-14655833D01*
X5036262Y-14617738D01*
X5045786Y-14570119D01*
X5055310Y-14541548D01*
X5064833Y-14522500D01*
X5083881Y-14493928D01*
X5093405Y-14484405D01*
X5160071Y-14532024D02*
X5169595Y-14522500D01*
X5188643Y-14512976D01*
X5236262Y-14512976D01*
X5255310Y-14522500D01*
X5264833Y-14532024D01*
X5274357Y-14551071D01*
X5274357Y-14570119D01*
X5264833Y-14598690D01*
X5150548Y-14712976D01*
X5274357Y-14712976D01*
X5445786Y-14579643D02*
X5445786Y-14712976D01*
X5398167Y-14503452D02*
X5350548Y-14646309D01*
X5474357Y-14646309D01*
X5702928Y-14712976D02*
X5702928Y-14512976D01*
X5788643Y-14712976D02*
X5788643Y-14608214D01*
X5779119Y-14589167D01*
X5760071Y-14579643D01*
X5731500Y-14579643D01*
X5712452Y-14589167D01*
X5702928Y-14598690D01*
X5912452Y-14712976D02*
X5893405Y-14703452D01*
X5883881Y-14693928D01*
X5874357Y-14674881D01*
X5874357Y-14617738D01*
X5883881Y-14598690D01*
X5893405Y-14589167D01*
X5912452Y-14579643D01*
X5941024Y-14579643D01*
X5960071Y-14589167D01*
X5969595Y-14598690D01*
X5979119Y-14617738D01*
X5979119Y-14674881D01*
X5969595Y-14693928D01*
X5960071Y-14703452D01*
X5941024Y-14712976D01*
X5912452Y-14712976D01*
X6093405Y-14712976D02*
X6074357Y-14703452D01*
X6064833Y-14684405D01*
X6064833Y-14512976D01*
X6245786Y-14703452D02*
X6226738Y-14712976D01*
X6188643Y-14712976D01*
X6169595Y-14703452D01*
X6160071Y-14684405D01*
X6160071Y-14608214D01*
X6169595Y-14589167D01*
X6188643Y-14579643D01*
X6226738Y-14579643D01*
X6245786Y-14589167D01*
X6255309Y-14608214D01*
X6255309Y-14627262D01*
X6160071Y-14646309D01*
X6331500Y-14703452D02*
X6350548Y-14712976D01*
X6388643Y-14712976D01*
X6407690Y-14703452D01*
X6417214Y-14684405D01*
X6417214Y-14674881D01*
X6407690Y-14655833D01*
X6388643Y-14646309D01*
X6360071Y-14646309D01*
X6341024Y-14636786D01*
X6331500Y-14617738D01*
X6331500Y-14608214D01*
X6341024Y-14589167D01*
X6360071Y-14579643D01*
X6388643Y-14579643D01*
X6407690Y-14589167D01*
X6483881Y-14789167D02*
X6493405Y-14779643D01*
X6512452Y-14751071D01*
X6521976Y-14732024D01*
X6531500Y-14703452D01*
X6541024Y-14655833D01*
X6541024Y-14617738D01*
X6531500Y-14570119D01*
X6521976Y-14541548D01*
X6512452Y-14522500D01*
X6493405Y-14493928D01*
X6483881Y-14484405D01*
D14*
X1466500Y-14831500D02*
X1466500Y-14941500D01*
X1411500Y-14886500D02*
X1521500Y-14886500D01*
D11*
X1883881Y-14976976D02*
X1769595Y-14976976D01*
X1826738Y-14976976D02*
X1826738Y-14776976D01*
X1807690Y-14805548D01*
X1788643Y-14824595D01*
X1769595Y-14834119D01*
X1969595Y-14957928D02*
X1979119Y-14967452D01*
X1969595Y-14976976D01*
X1960071Y-14967452D01*
X1969595Y-14957928D01*
X1969595Y-14976976D01*
X2169595Y-14976976D02*
X2055309Y-14976976D01*
X2112452Y-14976976D02*
X2112452Y-14776976D01*
X2093405Y-14805548D01*
X2074357Y-14824595D01*
X2055309Y-14834119D01*
X2293405Y-14776976D02*
X2312452Y-14776976D01*
X2331500Y-14786500D01*
X2341024Y-14796024D01*
X2350548Y-14815071D01*
X2360071Y-14853167D01*
X2360071Y-14900786D01*
X2350548Y-14938881D01*
X2341024Y-14957928D01*
X2331500Y-14967452D01*
X2312452Y-14976976D01*
X2293405Y-14976976D01*
X2274357Y-14967452D01*
X2264833Y-14957928D01*
X2255310Y-14938881D01*
X2245786Y-14900786D01*
X2245786Y-14853167D01*
X2255310Y-14815071D01*
X2264833Y-14796024D01*
X2274357Y-14786500D01*
X2293405Y-14776976D01*
X2483881Y-14776976D02*
X2502929Y-14776976D01*
X2521976Y-14786500D01*
X2531500Y-14796024D01*
X2541024Y-14815071D01*
X2550548Y-14853167D01*
X2550548Y-14900786D01*
X2541024Y-14938881D01*
X2531500Y-14957928D01*
X2521976Y-14967452D01*
X2502929Y-14976976D01*
X2483881Y-14976976D01*
X2464833Y-14967452D01*
X2455310Y-14957928D01*
X2445786Y-14938881D01*
X2436262Y-14900786D01*
X2436262Y-14853167D01*
X2445786Y-14815071D01*
X2455310Y-14796024D01*
X2464833Y-14786500D01*
X2483881Y-14776976D01*
X2636262Y-14976976D02*
X2636262Y-14843643D01*
X2636262Y-14862690D02*
X2645786Y-14853167D01*
X2664833Y-14843643D01*
X2693405Y-14843643D01*
X2712452Y-14853167D01*
X2721976Y-14872214D01*
X2721976Y-14976976D01*
X2721976Y-14872214D02*
X2731500Y-14853167D01*
X2750548Y-14843643D01*
X2779119Y-14843643D01*
X2798167Y-14853167D01*
X2807690Y-14872214D01*
X2807690Y-14976976D01*
X2902928Y-14976976D02*
X2902928Y-14843643D01*
X2902928Y-14862690D02*
X2912452Y-14853167D01*
X2931500Y-14843643D01*
X2960071Y-14843643D01*
X2979119Y-14853167D01*
X2988643Y-14872214D01*
X2988643Y-14976976D01*
X2988643Y-14872214D02*
X2998167Y-14853167D01*
X3017214Y-14843643D01*
X3045786Y-14843643D01*
X3064833Y-14853167D01*
X3074357Y-14872214D01*
X3074357Y-14976976D01*
X3464833Y-14767452D02*
X3293405Y-15024595D01*
X3721976Y-14776976D02*
X3741024Y-14776976D01*
X3760071Y-14786500D01*
X3769595Y-14796024D01*
X3779119Y-14815071D01*
X3788643Y-14853167D01*
X3788643Y-14900786D01*
X3779119Y-14938881D01*
X3769595Y-14957928D01*
X3760071Y-14967452D01*
X3741024Y-14976976D01*
X3721976Y-14976976D01*
X3702928Y-14967452D01*
X3693405Y-14957928D01*
X3683881Y-14938881D01*
X3674357Y-14900786D01*
X3674357Y-14853167D01*
X3683881Y-14815071D01*
X3693405Y-14796024D01*
X3702928Y-14786500D01*
X3721976Y-14776976D01*
X3874357Y-14957928D02*
X3883881Y-14967452D01*
X3874357Y-14976976D01*
X3864833Y-14967452D01*
X3874357Y-14957928D01*
X3874357Y-14976976D01*
X4007690Y-14776976D02*
X4026738Y-14776976D01*
X4045786Y-14786500D01*
X4055309Y-14796024D01*
X4064833Y-14815071D01*
X4074357Y-14853167D01*
X4074357Y-14900786D01*
X4064833Y-14938881D01*
X4055309Y-14957928D01*
X4045786Y-14967452D01*
X4026738Y-14976976D01*
X4007690Y-14976976D01*
X3988643Y-14967452D01*
X3979119Y-14957928D01*
X3969595Y-14938881D01*
X3960071Y-14900786D01*
X3960071Y-14853167D01*
X3969595Y-14815071D01*
X3979119Y-14796024D01*
X3988643Y-14786500D01*
X4007690Y-14776976D01*
X4245786Y-14843643D02*
X4245786Y-14976976D01*
X4198167Y-14767452D02*
X4150548Y-14910309D01*
X4274357Y-14910309D01*
X4331500Y-14776976D02*
X4455310Y-14776976D01*
X4388643Y-14853167D01*
X4417214Y-14853167D01*
X4436262Y-14862690D01*
X4445786Y-14872214D01*
X4455310Y-14891262D01*
X4455310Y-14938881D01*
X4445786Y-14957928D01*
X4436262Y-14967452D01*
X4417214Y-14976976D01*
X4360071Y-14976976D01*
X4341024Y-14967452D01*
X4331500Y-14957928D01*
X4521976Y-14776976D02*
X4645786Y-14776976D01*
X4579119Y-14853167D01*
X4607690Y-14853167D01*
X4626738Y-14862690D01*
X4636262Y-14872214D01*
X4645786Y-14891262D01*
X4645786Y-14938881D01*
X4636262Y-14957928D01*
X4626738Y-14967452D01*
X4607690Y-14976976D01*
X4550548Y-14976976D01*
X4531500Y-14967452D01*
X4521976Y-14957928D01*
X4721976Y-14776976D02*
X4721976Y-14815071D01*
X4798167Y-14776976D02*
X4798167Y-14815071D01*
X5093405Y-15053167D02*
X5083881Y-15043643D01*
X5064833Y-15015071D01*
X5055310Y-14996024D01*
X5045786Y-14967452D01*
X5036262Y-14919833D01*
X5036262Y-14881738D01*
X5045786Y-14834119D01*
X5055310Y-14805548D01*
X5064833Y-14786500D01*
X5083881Y-14757928D01*
X5093405Y-14748405D01*
X5255310Y-14843643D02*
X5255310Y-14976976D01*
X5207690Y-14767452D02*
X5160071Y-14910309D01*
X5283881Y-14910309D01*
X5512452Y-14976976D02*
X5512452Y-14776976D01*
X5598167Y-14976976D02*
X5598167Y-14872214D01*
X5588643Y-14853167D01*
X5569595Y-14843643D01*
X5541024Y-14843643D01*
X5521976Y-14853167D01*
X5512452Y-14862690D01*
X5721976Y-14976976D02*
X5702928Y-14967452D01*
X5693405Y-14957928D01*
X5683881Y-14938881D01*
X5683881Y-14881738D01*
X5693405Y-14862690D01*
X5702928Y-14853167D01*
X5721976Y-14843643D01*
X5750548Y-14843643D01*
X5769595Y-14853167D01*
X5779119Y-14862690D01*
X5788643Y-14881738D01*
X5788643Y-14938881D01*
X5779119Y-14957928D01*
X5769595Y-14967452D01*
X5750548Y-14976976D01*
X5721976Y-14976976D01*
X5902928Y-14976976D02*
X5883881Y-14967452D01*
X5874357Y-14948405D01*
X5874357Y-14776976D01*
X6055309Y-14967452D02*
X6036262Y-14976976D01*
X5998167Y-14976976D01*
X5979119Y-14967452D01*
X5969595Y-14948405D01*
X5969595Y-14872214D01*
X5979119Y-14853167D01*
X5998167Y-14843643D01*
X6036262Y-14843643D01*
X6055309Y-14853167D01*
X6064833Y-14872214D01*
X6064833Y-14891262D01*
X5969595Y-14910309D01*
X6141024Y-14967452D02*
X6160071Y-14976976D01*
X6198167Y-14976976D01*
X6217214Y-14967452D01*
X6226738Y-14948405D01*
X6226738Y-14938881D01*
X6217214Y-14919833D01*
X6198167Y-14910309D01*
X6169595Y-14910309D01*
X6150548Y-14900786D01*
X6141024Y-14881738D01*
X6141024Y-14872214D01*
X6150548Y-14853167D01*
X6169595Y-14843643D01*
X6198167Y-14843643D01*
X6217214Y-14853167D01*
X6293405Y-15053167D02*
X6302928Y-15043643D01*
X6321976Y-15015071D01*
X6331500Y-14996024D01*
X6341024Y-14967452D01*
X6350548Y-14919833D01*
X6350548Y-14881738D01*
X6341024Y-14834119D01*
X6331500Y-14805548D01*
X6321976Y-14786500D01*
X6302928Y-14757928D01*
X6293405Y-14748405D01*
D15*
X1505133Y-15190013D02*
X1505133Y-15110986D01*
X1426106Y-15110986D01*
X1426106Y-15190013D01*
X1505133Y-15190013D01*
D11*
X1883881Y-15240976D02*
X1769595Y-15240976D01*
X1826738Y-15240976D02*
X1826738Y-15040976D01*
X1807690Y-15069548D01*
X1788643Y-15088595D01*
X1769595Y-15098119D01*
X1969595Y-15221928D02*
X1979119Y-15231452D01*
X1969595Y-15240976D01*
X1960071Y-15231452D01*
X1969595Y-15221928D01*
X1969595Y-15240976D01*
X2169595Y-15240976D02*
X2055309Y-15240976D01*
X2112452Y-15240976D02*
X2112452Y-15040976D01*
X2093405Y-15069548D01*
X2074357Y-15088595D01*
X2055309Y-15098119D01*
X2360071Y-15240976D02*
X2245786Y-15240976D01*
X2302929Y-15240976D02*
X2302929Y-15040976D01*
X2283881Y-15069548D01*
X2264833Y-15088595D01*
X2245786Y-15098119D01*
X2474357Y-15126690D02*
X2455310Y-15117167D01*
X2445786Y-15107643D01*
X2436262Y-15088595D01*
X2436262Y-15079071D01*
X2445786Y-15060024D01*
X2455310Y-15050500D01*
X2474357Y-15040976D01*
X2512452Y-15040976D01*
X2531500Y-15050500D01*
X2541024Y-15060024D01*
X2550548Y-15079071D01*
X2550548Y-15088595D01*
X2541024Y-15107643D01*
X2531500Y-15117167D01*
X2512452Y-15126690D01*
X2474357Y-15126690D01*
X2455310Y-15136214D01*
X2445786Y-15145738D01*
X2436262Y-15164786D01*
X2436262Y-15202881D01*
X2445786Y-15221928D01*
X2455310Y-15231452D01*
X2474357Y-15240976D01*
X2512452Y-15240976D01*
X2531500Y-15231452D01*
X2541024Y-15221928D01*
X2550548Y-15202881D01*
X2550548Y-15164786D01*
X2541024Y-15145738D01*
X2531500Y-15136214D01*
X2512452Y-15126690D01*
X2636262Y-15240976D02*
X2636262Y-15107643D01*
X2636262Y-15126690D02*
X2645786Y-15117167D01*
X2664833Y-15107643D01*
X2693405Y-15107643D01*
X2712452Y-15117167D01*
X2721976Y-15136214D01*
X2721976Y-15240976D01*
X2721976Y-15136214D02*
X2731500Y-15117167D01*
X2750548Y-15107643D01*
X2779119Y-15107643D01*
X2798167Y-15117167D01*
X2807690Y-15136214D01*
X2807690Y-15240976D01*
X2902928Y-15240976D02*
X2902928Y-15107643D01*
X2902928Y-15126690D02*
X2912452Y-15117167D01*
X2931500Y-15107643D01*
X2960071Y-15107643D01*
X2979119Y-15117167D01*
X2988643Y-15136214D01*
X2988643Y-15240976D01*
X2988643Y-15136214D02*
X2998167Y-15117167D01*
X3017214Y-15107643D01*
X3045786Y-15107643D01*
X3064833Y-15117167D01*
X3074357Y-15136214D01*
X3074357Y-15240976D01*
X3464833Y-15031452D02*
X3293405Y-15288595D01*
X3721976Y-15040976D02*
X3741024Y-15040976D01*
X3760071Y-15050500D01*
X3769595Y-15060024D01*
X3779119Y-15079071D01*
X3788643Y-15117167D01*
X3788643Y-15164786D01*
X3779119Y-15202881D01*
X3769595Y-15221928D01*
X3760071Y-15231452D01*
X3741024Y-15240976D01*
X3721976Y-15240976D01*
X3702928Y-15231452D01*
X3693405Y-15221928D01*
X3683881Y-15202881D01*
X3674357Y-15164786D01*
X3674357Y-15117167D01*
X3683881Y-15079071D01*
X3693405Y-15060024D01*
X3702928Y-15050500D01*
X3721976Y-15040976D01*
X3874357Y-15221928D02*
X3883881Y-15231452D01*
X3874357Y-15240976D01*
X3864833Y-15231452D01*
X3874357Y-15221928D01*
X3874357Y-15240976D01*
X4007690Y-15040976D02*
X4026738Y-15040976D01*
X4045786Y-15050500D01*
X4055309Y-15060024D01*
X4064833Y-15079071D01*
X4074357Y-15117167D01*
X4074357Y-15164786D01*
X4064833Y-15202881D01*
X4055309Y-15221928D01*
X4045786Y-15231452D01*
X4026738Y-15240976D01*
X4007690Y-15240976D01*
X3988643Y-15231452D01*
X3979119Y-15221928D01*
X3969595Y-15202881D01*
X3960071Y-15164786D01*
X3960071Y-15117167D01*
X3969595Y-15079071D01*
X3979119Y-15060024D01*
X3988643Y-15050500D01*
X4007690Y-15040976D01*
X4245786Y-15107643D02*
X4245786Y-15240976D01*
X4198167Y-15031452D02*
X4150548Y-15174309D01*
X4274357Y-15174309D01*
X4436262Y-15107643D02*
X4436262Y-15240976D01*
X4388643Y-15031452D02*
X4341024Y-15174309D01*
X4464833Y-15174309D01*
X4579119Y-15040976D02*
X4598167Y-15040976D01*
X4617214Y-15050500D01*
X4626738Y-15060024D01*
X4636262Y-15079071D01*
X4645786Y-15117167D01*
X4645786Y-15164786D01*
X4636262Y-15202881D01*
X4626738Y-15221928D01*
X4617214Y-15231452D01*
X4598167Y-15240976D01*
X4579119Y-15240976D01*
X4560071Y-15231452D01*
X4550548Y-15221928D01*
X4541024Y-15202881D01*
X4531500Y-15164786D01*
X4531500Y-15117167D01*
X4541024Y-15079071D01*
X4550548Y-15060024D01*
X4560071Y-15050500D01*
X4579119Y-15040976D01*
X4721976Y-15040976D02*
X4721976Y-15079071D01*
X4798167Y-15040976D02*
X4798167Y-15079071D01*
X5093405Y-15317167D02*
X5083881Y-15307643D01*
X5064833Y-15279071D01*
X5055310Y-15260024D01*
X5045786Y-15231452D01*
X5036262Y-15183833D01*
X5036262Y-15145738D01*
X5045786Y-15098119D01*
X5055310Y-15069548D01*
X5064833Y-15050500D01*
X5083881Y-15021928D01*
X5093405Y-15012405D01*
X5264833Y-15040976D02*
X5169595Y-15040976D01*
X5160071Y-15136214D01*
X5169595Y-15126690D01*
X5188643Y-15117167D01*
X5236262Y-15117167D01*
X5255310Y-15126690D01*
X5264833Y-15136214D01*
X5274357Y-15155262D01*
X5274357Y-15202881D01*
X5264833Y-15221928D01*
X5255310Y-15231452D01*
X5236262Y-15240976D01*
X5188643Y-15240976D01*
X5169595Y-15231452D01*
X5160071Y-15221928D01*
X5445786Y-15107643D02*
X5445786Y-15240976D01*
X5398167Y-15031452D02*
X5350548Y-15174309D01*
X5474357Y-15174309D01*
X5702928Y-15240976D02*
X5702928Y-15040976D01*
X5788643Y-15240976D02*
X5788643Y-15136214D01*
X5779119Y-15117167D01*
X5760071Y-15107643D01*
X5731500Y-15107643D01*
X5712452Y-15117167D01*
X5702928Y-15126690D01*
X5912452Y-15240976D02*
X5893405Y-15231452D01*
X5883881Y-15221928D01*
X5874357Y-15202881D01*
X5874357Y-15145738D01*
X5883881Y-15126690D01*
X5893405Y-15117167D01*
X5912452Y-15107643D01*
X5941024Y-15107643D01*
X5960071Y-15117167D01*
X5969595Y-15126690D01*
X5979119Y-15145738D01*
X5979119Y-15202881D01*
X5969595Y-15221928D01*
X5960071Y-15231452D01*
X5941024Y-15240976D01*
X5912452Y-15240976D01*
X6093405Y-15240976D02*
X6074357Y-15231452D01*
X6064833Y-15212405D01*
X6064833Y-15040976D01*
X6245786Y-15231452D02*
X6226738Y-15240976D01*
X6188643Y-15240976D01*
X6169595Y-15231452D01*
X6160071Y-15212405D01*
X6160071Y-15136214D01*
X6169595Y-15117167D01*
X6188643Y-15107643D01*
X6226738Y-15107643D01*
X6245786Y-15117167D01*
X6255309Y-15136214D01*
X6255309Y-15155262D01*
X6160071Y-15174309D01*
X6331500Y-15231452D02*
X6350548Y-15240976D01*
X6388643Y-15240976D01*
X6407690Y-15231452D01*
X6417214Y-15212405D01*
X6417214Y-15202881D01*
X6407690Y-15183833D01*
X6388643Y-15174309D01*
X6360071Y-15174309D01*
X6341024Y-15164786D01*
X6331500Y-15145738D01*
X6331500Y-15136214D01*
X6341024Y-15117167D01*
X6360071Y-15107643D01*
X6388643Y-15107643D01*
X6407690Y-15117167D01*
X6483881Y-15317167D02*
X6493405Y-15307643D01*
X6512452Y-15279071D01*
X6521976Y-15260024D01*
X6531500Y-15231452D01*
X6541024Y-15183833D01*
X6541024Y-15145738D01*
X6531500Y-15098119D01*
X6521976Y-15069548D01*
X6512452Y-15050500D01*
X6493405Y-15021928D01*
X6483881Y-15012405D01*
D16*
X1461500Y-15474500D02*
X1521500Y-15414500D01*
X1461500Y-15354500D01*
X1401500Y-15414500D01*
X1461500Y-15474500D01*
D11*
X1883881Y-15504976D02*
X1769595Y-15504976D01*
X1826738Y-15504976D02*
X1826738Y-15304976D01*
X1807690Y-15333548D01*
X1788643Y-15352595D01*
X1769595Y-15362119D01*
X1969595Y-15485928D02*
X1979119Y-15495452D01*
X1969595Y-15504976D01*
X1960071Y-15495452D01*
X1969595Y-15485928D01*
X1969595Y-15504976D01*
X2055309Y-15324024D02*
X2064833Y-15314500D01*
X2083881Y-15304976D01*
X2131500Y-15304976D01*
X2150548Y-15314500D01*
X2160071Y-15324024D01*
X2169595Y-15343071D01*
X2169595Y-15362119D01*
X2160071Y-15390690D01*
X2045786Y-15504976D01*
X2169595Y-15504976D01*
X2293405Y-15304976D02*
X2312452Y-15304976D01*
X2331500Y-15314500D01*
X2341024Y-15324024D01*
X2350548Y-15343071D01*
X2360071Y-15381167D01*
X2360071Y-15428786D01*
X2350548Y-15466881D01*
X2341024Y-15485928D01*
X2331500Y-15495452D01*
X2312452Y-15504976D01*
X2293405Y-15504976D01*
X2274357Y-15495452D01*
X2264833Y-15485928D01*
X2255310Y-15466881D01*
X2245786Y-15428786D01*
X2245786Y-15381167D01*
X2255310Y-15343071D01*
X2264833Y-15324024D01*
X2274357Y-15314500D01*
X2293405Y-15304976D01*
X2483881Y-15304976D02*
X2502929Y-15304976D01*
X2521976Y-15314500D01*
X2531500Y-15324024D01*
X2541024Y-15343071D01*
X2550548Y-15381167D01*
X2550548Y-15428786D01*
X2541024Y-15466881D01*
X2531500Y-15485928D01*
X2521976Y-15495452D01*
X2502929Y-15504976D01*
X2483881Y-15504976D01*
X2464833Y-15495452D01*
X2455310Y-15485928D01*
X2445786Y-15466881D01*
X2436262Y-15428786D01*
X2436262Y-15381167D01*
X2445786Y-15343071D01*
X2455310Y-15324024D01*
X2464833Y-15314500D01*
X2483881Y-15304976D01*
X2636262Y-15504976D02*
X2636262Y-15371643D01*
X2636262Y-15390690D02*
X2645786Y-15381167D01*
X2664833Y-15371643D01*
X2693405Y-15371643D01*
X2712452Y-15381167D01*
X2721976Y-15400214D01*
X2721976Y-15504976D01*
X2721976Y-15400214D02*
X2731500Y-15381167D01*
X2750548Y-15371643D01*
X2779119Y-15371643D01*
X2798167Y-15381167D01*
X2807690Y-15400214D01*
X2807690Y-15504976D01*
X2902928Y-15504976D02*
X2902928Y-15371643D01*
X2902928Y-15390690D02*
X2912452Y-15381167D01*
X2931500Y-15371643D01*
X2960071Y-15371643D01*
X2979119Y-15381167D01*
X2988643Y-15400214D01*
X2988643Y-15504976D01*
X2988643Y-15400214D02*
X2998167Y-15381167D01*
X3017214Y-15371643D01*
X3045786Y-15371643D01*
X3064833Y-15381167D01*
X3074357Y-15400214D01*
X3074357Y-15504976D01*
X3464833Y-15295452D02*
X3293405Y-15552595D01*
X3721976Y-15304976D02*
X3741024Y-15304976D01*
X3760071Y-15314500D01*
X3769595Y-15324024D01*
X3779119Y-15343071D01*
X3788643Y-15381167D01*
X3788643Y-15428786D01*
X3779119Y-15466881D01*
X3769595Y-15485928D01*
X3760071Y-15495452D01*
X3741024Y-15504976D01*
X3721976Y-15504976D01*
X3702928Y-15495452D01*
X3693405Y-15485928D01*
X3683881Y-15466881D01*
X3674357Y-15428786D01*
X3674357Y-15381167D01*
X3683881Y-15343071D01*
X3693405Y-15324024D01*
X3702928Y-15314500D01*
X3721976Y-15304976D01*
X3874357Y-15485928D02*
X3883881Y-15495452D01*
X3874357Y-15504976D01*
X3864833Y-15495452D01*
X3874357Y-15485928D01*
X3874357Y-15504976D01*
X4007690Y-15304976D02*
X4026738Y-15304976D01*
X4045786Y-15314500D01*
X4055309Y-15324024D01*
X4064833Y-15343071D01*
X4074357Y-15381167D01*
X4074357Y-15428786D01*
X4064833Y-15466881D01*
X4055309Y-15485928D01*
X4045786Y-15495452D01*
X4026738Y-15504976D01*
X4007690Y-15504976D01*
X3988643Y-15495452D01*
X3979119Y-15485928D01*
X3969595Y-15466881D01*
X3960071Y-15428786D01*
X3960071Y-15381167D01*
X3969595Y-15343071D01*
X3979119Y-15324024D01*
X3988643Y-15314500D01*
X4007690Y-15304976D01*
X4245786Y-15371643D02*
X4245786Y-15504976D01*
X4198167Y-15295452D02*
X4150548Y-15438309D01*
X4274357Y-15438309D01*
X4331500Y-15304976D02*
X4464833Y-15304976D01*
X4379119Y-15504976D01*
X4531500Y-15324024D02*
X4541024Y-15314500D01*
X4560071Y-15304976D01*
X4607690Y-15304976D01*
X4626738Y-15314500D01*
X4636262Y-15324024D01*
X4645786Y-15343071D01*
X4645786Y-15362119D01*
X4636262Y-15390690D01*
X4521976Y-15504976D01*
X4645786Y-15504976D01*
X4721976Y-15304976D02*
X4721976Y-15343071D01*
X4798167Y-15304976D02*
X4798167Y-15343071D01*
X5093405Y-15581167D02*
X5083881Y-15571643D01*
X5064833Y-15543071D01*
X5055310Y-15524024D01*
X5045786Y-15495452D01*
X5036262Y-15447833D01*
X5036262Y-15409738D01*
X5045786Y-15362119D01*
X5055310Y-15333548D01*
X5064833Y-15314500D01*
X5083881Y-15285928D01*
X5093405Y-15276405D01*
X5264833Y-15304976D02*
X5169595Y-15304976D01*
X5160071Y-15400214D01*
X5169595Y-15390690D01*
X5188643Y-15381167D01*
X5236262Y-15381167D01*
X5255310Y-15390690D01*
X5264833Y-15400214D01*
X5274357Y-15419262D01*
X5274357Y-15466881D01*
X5264833Y-15485928D01*
X5255310Y-15495452D01*
X5236262Y-15504976D01*
X5188643Y-15504976D01*
X5169595Y-15495452D01*
X5160071Y-15485928D01*
X5512452Y-15504976D02*
X5512452Y-15304976D01*
X5598167Y-15504976D02*
X5598167Y-15400214D01*
X5588643Y-15381167D01*
X5569595Y-15371643D01*
X5541024Y-15371643D01*
X5521976Y-15381167D01*
X5512452Y-15390690D01*
X5721976Y-15504976D02*
X5702928Y-15495452D01*
X5693405Y-15485928D01*
X5683881Y-15466881D01*
X5683881Y-15409738D01*
X5693405Y-15390690D01*
X5702928Y-15381167D01*
X5721976Y-15371643D01*
X5750548Y-15371643D01*
X5769595Y-15381167D01*
X5779119Y-15390690D01*
X5788643Y-15409738D01*
X5788643Y-15466881D01*
X5779119Y-15485928D01*
X5769595Y-15495452D01*
X5750548Y-15504976D01*
X5721976Y-15504976D01*
X5902928Y-15504976D02*
X5883881Y-15495452D01*
X5874357Y-15476405D01*
X5874357Y-15304976D01*
X6055309Y-15495452D02*
X6036262Y-15504976D01*
X5998167Y-15504976D01*
X5979119Y-15495452D01*
X5969595Y-15476405D01*
X5969595Y-15400214D01*
X5979119Y-15381167D01*
X5998167Y-15371643D01*
X6036262Y-15371643D01*
X6055309Y-15381167D01*
X6064833Y-15400214D01*
X6064833Y-15419262D01*
X5969595Y-15438309D01*
X6141024Y-15495452D02*
X6160071Y-15504976D01*
X6198167Y-15504976D01*
X6217214Y-15495452D01*
X6226738Y-15476405D01*
X6226738Y-15466881D01*
X6217214Y-15447833D01*
X6198167Y-15438309D01*
X6169595Y-15438309D01*
X6150548Y-15428786D01*
X6141024Y-15409738D01*
X6141024Y-15400214D01*
X6150548Y-15381167D01*
X6169595Y-15371643D01*
X6198167Y-15371643D01*
X6217214Y-15381167D01*
X6293405Y-15581167D02*
X6302928Y-15571643D01*
X6321976Y-15543071D01*
X6331500Y-15524024D01*
X6341024Y-15495452D01*
X6350548Y-15447833D01*
X6350548Y-15409738D01*
X6341024Y-15362119D01*
X6331500Y-15333548D01*
X6321976Y-15314500D01*
X6302928Y-15285928D01*
X6293405Y-15276405D01*
D17*
X1371500Y-15603500D02*
X1521500Y-15753500D01*
X1521500Y-15603500D02*
X1371500Y-15753500D01*
X1521500Y-15678500D02*
G75*
G03*
X1521500Y-15678500I-75000J0D01*
G01*
D11*
X1883881Y-15768976D02*
X1769595Y-15768976D01*
X1826738Y-15768976D02*
X1826738Y-15568976D01*
X1807690Y-15597548D01*
X1788643Y-15616595D01*
X1769595Y-15626119D01*
X1969595Y-15749928D02*
X1979119Y-15759452D01*
X1969595Y-15768976D01*
X1960071Y-15759452D01*
X1969595Y-15749928D01*
X1969595Y-15768976D01*
X2160071Y-15568976D02*
X2064833Y-15568976D01*
X2055309Y-15664214D01*
X2064833Y-15654690D01*
X2083881Y-15645167D01*
X2131500Y-15645167D01*
X2150548Y-15654690D01*
X2160071Y-15664214D01*
X2169595Y-15683262D01*
X2169595Y-15730881D01*
X2160071Y-15749928D01*
X2150548Y-15759452D01*
X2131500Y-15768976D01*
X2083881Y-15768976D01*
X2064833Y-15759452D01*
X2055309Y-15749928D01*
X2293405Y-15568976D02*
X2312452Y-15568976D01*
X2331500Y-15578500D01*
X2341024Y-15588024D01*
X2350548Y-15607071D01*
X2360071Y-15645167D01*
X2360071Y-15692786D01*
X2350548Y-15730881D01*
X2341024Y-15749928D01*
X2331500Y-15759452D01*
X2312452Y-15768976D01*
X2293405Y-15768976D01*
X2274357Y-15759452D01*
X2264833Y-15749928D01*
X2255310Y-15730881D01*
X2245786Y-15692786D01*
X2245786Y-15645167D01*
X2255310Y-15607071D01*
X2264833Y-15588024D01*
X2274357Y-15578500D01*
X2293405Y-15568976D01*
X2483881Y-15568976D02*
X2502929Y-15568976D01*
X2521976Y-15578500D01*
X2531500Y-15588024D01*
X2541024Y-15607071D01*
X2550548Y-15645167D01*
X2550548Y-15692786D01*
X2541024Y-15730881D01*
X2531500Y-15749928D01*
X2521976Y-15759452D01*
X2502929Y-15768976D01*
X2483881Y-15768976D01*
X2464833Y-15759452D01*
X2455310Y-15749928D01*
X2445786Y-15730881D01*
X2436262Y-15692786D01*
X2436262Y-15645167D01*
X2445786Y-15607071D01*
X2455310Y-15588024D01*
X2464833Y-15578500D01*
X2483881Y-15568976D01*
X2636262Y-15768976D02*
X2636262Y-15635643D01*
X2636262Y-15654690D02*
X2645786Y-15645167D01*
X2664833Y-15635643D01*
X2693405Y-15635643D01*
X2712452Y-15645167D01*
X2721976Y-15664214D01*
X2721976Y-15768976D01*
X2721976Y-15664214D02*
X2731500Y-15645167D01*
X2750548Y-15635643D01*
X2779119Y-15635643D01*
X2798167Y-15645167D01*
X2807690Y-15664214D01*
X2807690Y-15768976D01*
X2902928Y-15768976D02*
X2902928Y-15635643D01*
X2902928Y-15654690D02*
X2912452Y-15645167D01*
X2931500Y-15635643D01*
X2960071Y-15635643D01*
X2979119Y-15645167D01*
X2988643Y-15664214D01*
X2988643Y-15768976D01*
X2988643Y-15664214D02*
X2998167Y-15645167D01*
X3017214Y-15635643D01*
X3045786Y-15635643D01*
X3064833Y-15645167D01*
X3074357Y-15664214D01*
X3074357Y-15768976D01*
X3464833Y-15559452D02*
X3293405Y-15816595D01*
X3721976Y-15568976D02*
X3741024Y-15568976D01*
X3760071Y-15578500D01*
X3769595Y-15588024D01*
X3779119Y-15607071D01*
X3788643Y-15645167D01*
X3788643Y-15692786D01*
X3779119Y-15730881D01*
X3769595Y-15749928D01*
X3760071Y-15759452D01*
X3741024Y-15768976D01*
X3721976Y-15768976D01*
X3702928Y-15759452D01*
X3693405Y-15749928D01*
X3683881Y-15730881D01*
X3674357Y-15692786D01*
X3674357Y-15645167D01*
X3683881Y-15607071D01*
X3693405Y-15588024D01*
X3702928Y-15578500D01*
X3721976Y-15568976D01*
X3874357Y-15749928D02*
X3883881Y-15759452D01*
X3874357Y-15768976D01*
X3864833Y-15759452D01*
X3874357Y-15749928D01*
X3874357Y-15768976D01*
X4007690Y-15568976D02*
X4026738Y-15568976D01*
X4045786Y-15578500D01*
X4055309Y-15588024D01*
X4064833Y-15607071D01*
X4074357Y-15645167D01*
X4074357Y-15692786D01*
X4064833Y-15730881D01*
X4055309Y-15749928D01*
X4045786Y-15759452D01*
X4026738Y-15768976D01*
X4007690Y-15768976D01*
X3988643Y-15759452D01*
X3979119Y-15749928D01*
X3969595Y-15730881D01*
X3960071Y-15692786D01*
X3960071Y-15645167D01*
X3969595Y-15607071D01*
X3979119Y-15588024D01*
X3988643Y-15578500D01*
X4007690Y-15568976D01*
X4255310Y-15568976D02*
X4160071Y-15568976D01*
X4150548Y-15664214D01*
X4160071Y-15654690D01*
X4179119Y-15645167D01*
X4226738Y-15645167D01*
X4245786Y-15654690D01*
X4255310Y-15664214D01*
X4264833Y-15683262D01*
X4264833Y-15730881D01*
X4255310Y-15749928D01*
X4245786Y-15759452D01*
X4226738Y-15768976D01*
X4179119Y-15768976D01*
X4160071Y-15759452D01*
X4150548Y-15749928D01*
X4360071Y-15768976D02*
X4398167Y-15768976D01*
X4417214Y-15759452D01*
X4426738Y-15749928D01*
X4445786Y-15721357D01*
X4455310Y-15683262D01*
X4455310Y-15607071D01*
X4445786Y-15588024D01*
X4436262Y-15578500D01*
X4417214Y-15568976D01*
X4379119Y-15568976D01*
X4360071Y-15578500D01*
X4350548Y-15588024D01*
X4341024Y-15607071D01*
X4341024Y-15654690D01*
X4350548Y-15673738D01*
X4360071Y-15683262D01*
X4379119Y-15692786D01*
X4417214Y-15692786D01*
X4436262Y-15683262D01*
X4445786Y-15673738D01*
X4455310Y-15654690D01*
X4645786Y-15768976D02*
X4531500Y-15768976D01*
X4588643Y-15768976D02*
X4588643Y-15568976D01*
X4569595Y-15597548D01*
X4550548Y-15616595D01*
X4531500Y-15626119D01*
X4721976Y-15568976D02*
X4721976Y-15607071D01*
X4798167Y-15568976D02*
X4798167Y-15607071D01*
X5093405Y-15845167D02*
X5083881Y-15835643D01*
X5064833Y-15807071D01*
X5055310Y-15788024D01*
X5045786Y-15759452D01*
X5036262Y-15711833D01*
X5036262Y-15673738D01*
X5045786Y-15626119D01*
X5055310Y-15597548D01*
X5064833Y-15578500D01*
X5083881Y-15549928D01*
X5093405Y-15540405D01*
X5264833Y-15568976D02*
X5169595Y-15568976D01*
X5160071Y-15664214D01*
X5169595Y-15654690D01*
X5188643Y-15645167D01*
X5236262Y-15645167D01*
X5255310Y-15654690D01*
X5264833Y-15664214D01*
X5274357Y-15683262D01*
X5274357Y-15730881D01*
X5264833Y-15749928D01*
X5255310Y-15759452D01*
X5236262Y-15768976D01*
X5188643Y-15768976D01*
X5169595Y-15759452D01*
X5160071Y-15749928D01*
X5350548Y-15588024D02*
X5360071Y-15578500D01*
X5379119Y-15568976D01*
X5426738Y-15568976D01*
X5445786Y-15578500D01*
X5455310Y-15588024D01*
X5464833Y-15607071D01*
X5464833Y-15626119D01*
X5455310Y-15654690D01*
X5341024Y-15768976D01*
X5464833Y-15768976D01*
X5702928Y-15768976D02*
X5702928Y-15568976D01*
X5788643Y-15768976D02*
X5788643Y-15664214D01*
X5779119Y-15645167D01*
X5760071Y-15635643D01*
X5731500Y-15635643D01*
X5712452Y-15645167D01*
X5702928Y-15654690D01*
X5912452Y-15768976D02*
X5893405Y-15759452D01*
X5883881Y-15749928D01*
X5874357Y-15730881D01*
X5874357Y-15673738D01*
X5883881Y-15654690D01*
X5893405Y-15645167D01*
X5912452Y-15635643D01*
X5941024Y-15635643D01*
X5960071Y-15645167D01*
X5969595Y-15654690D01*
X5979119Y-15673738D01*
X5979119Y-15730881D01*
X5969595Y-15749928D01*
X5960071Y-15759452D01*
X5941024Y-15768976D01*
X5912452Y-15768976D01*
X6093405Y-15768976D02*
X6074357Y-15759452D01*
X6064833Y-15740405D01*
X6064833Y-15568976D01*
X6245786Y-15759452D02*
X6226738Y-15768976D01*
X6188643Y-15768976D01*
X6169595Y-15759452D01*
X6160071Y-15740405D01*
X6160071Y-15664214D01*
X6169595Y-15645167D01*
X6188643Y-15635643D01*
X6226738Y-15635643D01*
X6245786Y-15645167D01*
X6255309Y-15664214D01*
X6255309Y-15683262D01*
X6160071Y-15702309D01*
X6331500Y-15759452D02*
X6350548Y-15768976D01*
X6388643Y-15768976D01*
X6407690Y-15759452D01*
X6417214Y-15740405D01*
X6417214Y-15730881D01*
X6407690Y-15711833D01*
X6388643Y-15702309D01*
X6360071Y-15702309D01*
X6341024Y-15692786D01*
X6331500Y-15673738D01*
X6331500Y-15664214D01*
X6341024Y-15645167D01*
X6360071Y-15635643D01*
X6388643Y-15635643D01*
X6407690Y-15645167D01*
X6483881Y-15845167D02*
X6493405Y-15835643D01*
X6512452Y-15807071D01*
X6521976Y-15788024D01*
X6531500Y-15759452D01*
X6541024Y-15711833D01*
X6541024Y-15673738D01*
X6531500Y-15626119D01*
X6521976Y-15597548D01*
X6512452Y-15578500D01*
X6493405Y-15549928D01*
X6483881Y-15540405D01*
D18*
X1350060Y-15862780D02*
X1521500Y-16034220D01*
X1521500Y-15862780D02*
X1350060Y-16034220D01*
X1435780Y-15862780D02*
X1435780Y-16034220D01*
X1350060Y-15948500D02*
X1521500Y-15948500D01*
D11*
X1883881Y-16038976D02*
X1769595Y-16038976D01*
X1826738Y-16038976D02*
X1826738Y-15838976D01*
X1807690Y-15867548D01*
X1788643Y-15886595D01*
X1769595Y-15896119D01*
X1969595Y-16019928D02*
X1979119Y-16029452D01*
X1969595Y-16038976D01*
X1960071Y-16029452D01*
X1969595Y-16019928D01*
X1969595Y-16038976D01*
X2045786Y-15838976D02*
X2179119Y-15838976D01*
X2093405Y-16038976D01*
X2360071Y-16038976D02*
X2245786Y-16038976D01*
X2302929Y-16038976D02*
X2302929Y-15838976D01*
X2283881Y-15867548D01*
X2264833Y-15886595D01*
X2245786Y-15896119D01*
X2531500Y-15905643D02*
X2531500Y-16038976D01*
X2483881Y-15829452D02*
X2436262Y-15972309D01*
X2560071Y-15972309D01*
X2636262Y-16038976D02*
X2636262Y-15905643D01*
X2636262Y-15924690D02*
X2645786Y-15915167D01*
X2664833Y-15905643D01*
X2693405Y-15905643D01*
X2712452Y-15915167D01*
X2721976Y-15934214D01*
X2721976Y-16038976D01*
X2721976Y-15934214D02*
X2731500Y-15915167D01*
X2750548Y-15905643D01*
X2779119Y-15905643D01*
X2798167Y-15915167D01*
X2807690Y-15934214D01*
X2807690Y-16038976D01*
X2902928Y-16038976D02*
X2902928Y-15905643D01*
X2902928Y-15924690D02*
X2912452Y-15915167D01*
X2931500Y-15905643D01*
X2960071Y-15905643D01*
X2979119Y-15915167D01*
X2988643Y-15934214D01*
X2988643Y-16038976D01*
X2988643Y-15934214D02*
X2998167Y-15915167D01*
X3017214Y-15905643D01*
X3045786Y-15905643D01*
X3064833Y-15915167D01*
X3074357Y-15934214D01*
X3074357Y-16038976D01*
X3464833Y-15829452D02*
X3293405Y-16086595D01*
X3721976Y-15838976D02*
X3741024Y-15838976D01*
X3760071Y-15848500D01*
X3769595Y-15858024D01*
X3779119Y-15877071D01*
X3788643Y-15915167D01*
X3788643Y-15962786D01*
X3779119Y-16000881D01*
X3769595Y-16019928D01*
X3760071Y-16029452D01*
X3741024Y-16038976D01*
X3721976Y-16038976D01*
X3702928Y-16029452D01*
X3693405Y-16019928D01*
X3683881Y-16000881D01*
X3674357Y-15962786D01*
X3674357Y-15915167D01*
X3683881Y-15877071D01*
X3693405Y-15858024D01*
X3702928Y-15848500D01*
X3721976Y-15838976D01*
X3874357Y-16019928D02*
X3883881Y-16029452D01*
X3874357Y-16038976D01*
X3864833Y-16029452D01*
X3874357Y-16019928D01*
X3874357Y-16038976D01*
X4007690Y-15838976D02*
X4026738Y-15838976D01*
X4045786Y-15848500D01*
X4055309Y-15858024D01*
X4064833Y-15877071D01*
X4074357Y-15915167D01*
X4074357Y-15962786D01*
X4064833Y-16000881D01*
X4055309Y-16019928D01*
X4045786Y-16029452D01*
X4026738Y-16038976D01*
X4007690Y-16038976D01*
X3988643Y-16029452D01*
X3979119Y-16019928D01*
X3969595Y-16000881D01*
X3960071Y-15962786D01*
X3960071Y-15915167D01*
X3969595Y-15877071D01*
X3979119Y-15858024D01*
X3988643Y-15848500D01*
X4007690Y-15838976D01*
X4245786Y-15838976D02*
X4207690Y-15838976D01*
X4188643Y-15848500D01*
X4179119Y-15858024D01*
X4160071Y-15886595D01*
X4150548Y-15924690D01*
X4150548Y-16000881D01*
X4160071Y-16019928D01*
X4169595Y-16029452D01*
X4188643Y-16038976D01*
X4226738Y-16038976D01*
X4245786Y-16029452D01*
X4255310Y-16019928D01*
X4264833Y-16000881D01*
X4264833Y-15953262D01*
X4255310Y-15934214D01*
X4245786Y-15924690D01*
X4226738Y-15915167D01*
X4188643Y-15915167D01*
X4169595Y-15924690D01*
X4160071Y-15934214D01*
X4150548Y-15953262D01*
X4331500Y-15838976D02*
X4464833Y-15838976D01*
X4379119Y-16038976D01*
X4636262Y-15838976D02*
X4541024Y-15838976D01*
X4531500Y-15934214D01*
X4541024Y-15924690D01*
X4560071Y-15915167D01*
X4607690Y-15915167D01*
X4626738Y-15924690D01*
X4636262Y-15934214D01*
X4645786Y-15953262D01*
X4645786Y-16000881D01*
X4636262Y-16019928D01*
X4626738Y-16029452D01*
X4607690Y-16038976D01*
X4560071Y-16038976D01*
X4541024Y-16029452D01*
X4531500Y-16019928D01*
X4721976Y-15838976D02*
X4721976Y-15877071D01*
X4798167Y-15838976D02*
X4798167Y-15877071D01*
X5093405Y-16115167D02*
X5083881Y-16105643D01*
X5064833Y-16077071D01*
X5055310Y-16058024D01*
X5045786Y-16029452D01*
X5036262Y-15981833D01*
X5036262Y-15943738D01*
X5045786Y-15896119D01*
X5055310Y-15867548D01*
X5064833Y-15848500D01*
X5083881Y-15819928D01*
X5093405Y-15810405D01*
X5264833Y-15838976D02*
X5169595Y-15838976D01*
X5160071Y-15934214D01*
X5169595Y-15924690D01*
X5188643Y-15915167D01*
X5236262Y-15915167D01*
X5255310Y-15924690D01*
X5264833Y-15934214D01*
X5274357Y-15953262D01*
X5274357Y-16000881D01*
X5264833Y-16019928D01*
X5255310Y-16029452D01*
X5236262Y-16038976D01*
X5188643Y-16038976D01*
X5169595Y-16029452D01*
X5160071Y-16019928D01*
X5350548Y-15858024D02*
X5360071Y-15848500D01*
X5379119Y-15838976D01*
X5426738Y-15838976D01*
X5445786Y-15848500D01*
X5455310Y-15858024D01*
X5464833Y-15877071D01*
X5464833Y-15896119D01*
X5455310Y-15924690D01*
X5341024Y-16038976D01*
X5464833Y-16038976D01*
X5702928Y-16038976D02*
X5702928Y-15838976D01*
X5788643Y-16038976D02*
X5788643Y-15934214D01*
X5779119Y-15915167D01*
X5760071Y-15905643D01*
X5731500Y-15905643D01*
X5712452Y-15915167D01*
X5702928Y-15924690D01*
X5912452Y-16038976D02*
X5893405Y-16029452D01*
X5883881Y-16019928D01*
X5874357Y-16000881D01*
X5874357Y-15943738D01*
X5883881Y-15924690D01*
X5893405Y-15915167D01*
X5912452Y-15905643D01*
X5941024Y-15905643D01*
X5960071Y-15915167D01*
X5969595Y-15924690D01*
X5979119Y-15943738D01*
X5979119Y-16000881D01*
X5969595Y-16019928D01*
X5960071Y-16029452D01*
X5941024Y-16038976D01*
X5912452Y-16038976D01*
X6093405Y-16038976D02*
X6074357Y-16029452D01*
X6064833Y-16010405D01*
X6064833Y-15838976D01*
X6245786Y-16029452D02*
X6226738Y-16038976D01*
X6188643Y-16038976D01*
X6169595Y-16029452D01*
X6160071Y-16010405D01*
X6160071Y-15934214D01*
X6169595Y-15915167D01*
X6188643Y-15905643D01*
X6226738Y-15905643D01*
X6245786Y-15915167D01*
X6255309Y-15934214D01*
X6255309Y-15953262D01*
X6160071Y-15972309D01*
X6331500Y-16029452D02*
X6350548Y-16038976D01*
X6388643Y-16038976D01*
X6407690Y-16029452D01*
X6417214Y-16010405D01*
X6417214Y-16000881D01*
X6407690Y-15981833D01*
X6388643Y-15972309D01*
X6360071Y-15972309D01*
X6341024Y-15962786D01*
X6331500Y-15943738D01*
X6331500Y-15934214D01*
X6341024Y-15915167D01*
X6360071Y-15905643D01*
X6388643Y-15905643D01*
X6407690Y-15915167D01*
X6483881Y-16115167D02*
X6493405Y-16105643D01*
X6512452Y-16077071D01*
X6521976Y-16058024D01*
X6531500Y-16029452D01*
X6541024Y-15981833D01*
X6541024Y-15943738D01*
X6531500Y-15896119D01*
X6521976Y-15867548D01*
X6512452Y-15848500D01*
X6493405Y-15819928D01*
X6483881Y-15810405D01*
M02*
