%TF.GenerationSoftware,KiCad,Pcbnew,(6.0.2)*%
%TF.CreationDate,2022-03-21T22:20:15-04:00*%
%TF.ProjectId,carpal26_1.0.12,63617270-616c-4323-965f-312e302e3132,rev?*%
%TF.SameCoordinates,Original*%
%TF.FileFunction,Soldermask,Bot*%
%TF.FilePolarity,Negative*%
%FSLAX46Y46*%
G04 Gerber Fmt 4.6, Leading zero omitted, Abs format (unit mm)*
G04 Created by KiCad (PCBNEW (6.0.2)) date 2022-03-21 22:20:15*
%MOMM*%
%LPD*%
G01*
G04 APERTURE LIST*
%ADD10C,4.000400*%
%ADD11C,2.133600*%
%ADD12C,2.743200*%
%ADD13C,1.879600*%
%ADD14C,2.100000*%
%ADD15O,2.003200X3.803200*%
%ADD16C,2.082800*%
%ADD17C,2.000000*%
G04 APERTURE END LIST*
D10*
X88900000Y-83820000D03*
D11*
X83820000Y-83820000D03*
X93980000Y-83820000D03*
D12*
X85090000Y-81280000D03*
X91440000Y-78740000D03*
D13*
X118618000Y-100584000D03*
X128778000Y-100584000D03*
X118618000Y-112776000D03*
X128778000Y-112776000D03*
X160782000Y-109728000D03*
X150622000Y-109728000D03*
D14*
X123444000Y-80518000D03*
D10*
X190500000Y-124460000D03*
D11*
X185420000Y-124460000D03*
X195580000Y-124460000D03*
D12*
X186690000Y-121920000D03*
X193040000Y-119380000D03*
D13*
X160782000Y-118872000D03*
X150622000Y-118872000D03*
D10*
X68580000Y-124460000D03*
D11*
X63500000Y-124460000D03*
X73660000Y-124460000D03*
D12*
X64770000Y-121920000D03*
X71120000Y-119380000D03*
D10*
X48260000Y-104140000D03*
D11*
X43180000Y-104140000D03*
X53340000Y-104140000D03*
D12*
X44450000Y-101600000D03*
X50800000Y-99060000D03*
D10*
X68580000Y-83820000D03*
D11*
X63500000Y-83820000D03*
X73660000Y-83820000D03*
D12*
X64770000Y-81280000D03*
X71120000Y-78740000D03*
D13*
X118618000Y-106680000D03*
X128778000Y-106680000D03*
X160782000Y-115824000D03*
X150622000Y-115824000D03*
D10*
X210820000Y-83820000D03*
D11*
X205740000Y-83820000D03*
X215900000Y-83820000D03*
D12*
X207010000Y-81280000D03*
X213360000Y-78740000D03*
D15*
X144700000Y-129780000D03*
X134700000Y-129780000D03*
X139700000Y-129780000D03*
X144700000Y-114780000D03*
X134700000Y-114780000D03*
D10*
X48260000Y-124460000D03*
D11*
X43180000Y-124460000D03*
X53340000Y-124460000D03*
D12*
X44450000Y-121920000D03*
X50800000Y-119380000D03*
D10*
X68580000Y-104140000D03*
D11*
X63500000Y-104140000D03*
X73660000Y-104140000D03*
D12*
X64770000Y-101600000D03*
X71120000Y-99060000D03*
D10*
X231140000Y-104360000D03*
D11*
X226060000Y-104360000D03*
X236220000Y-104360000D03*
D12*
X227330000Y-101820000D03*
X233680000Y-99280000D03*
D10*
X231140000Y-83820000D03*
D11*
X226060000Y-83820000D03*
X236220000Y-83820000D03*
D12*
X227330000Y-81280000D03*
X233680000Y-78740000D03*
D13*
X160782000Y-100584000D03*
X150622000Y-100584000D03*
X160782000Y-97536000D03*
X150622000Y-97536000D03*
X160782000Y-112776000D03*
X150622000Y-112776000D03*
X118618000Y-124968000D03*
X128778000Y-124968000D03*
D10*
X88900000Y-124460000D03*
D11*
X83820000Y-124460000D03*
X93980000Y-124460000D03*
D12*
X85090000Y-121920000D03*
X91440000Y-119380000D03*
D10*
X190500000Y-83820000D03*
D11*
X185420000Y-83820000D03*
X195580000Y-83820000D03*
D12*
X186690000Y-81280000D03*
X193040000Y-78740000D03*
D10*
X170180000Y-83820000D03*
D11*
X165100000Y-83820000D03*
X175260000Y-83820000D03*
D12*
X166370000Y-81280000D03*
X172720000Y-78740000D03*
D10*
X170180000Y-104360000D03*
D11*
X165100000Y-104360000D03*
X175260000Y-104360000D03*
D12*
X166370000Y-101820000D03*
X172720000Y-99280000D03*
D16*
X132080000Y-76200000D03*
X132080000Y-78740000D03*
X132080000Y-81280000D03*
X132080000Y-83820000D03*
X132080000Y-86360000D03*
X132080000Y-88900000D03*
X132080000Y-91440000D03*
X132080000Y-93980000D03*
X132080000Y-96520000D03*
X132080000Y-99060000D03*
X132080000Y-101600000D03*
X132080000Y-104140000D03*
X147320000Y-104140000D03*
X147320000Y-101600000D03*
X147320000Y-99060000D03*
X147320000Y-96520000D03*
X147320000Y-93980000D03*
X147320000Y-91440000D03*
X147320000Y-88900000D03*
X147320000Y-86360000D03*
X147320000Y-83820000D03*
X147320000Y-81280000D03*
X147320000Y-78740000D03*
X147320000Y-76200000D03*
D13*
X118618000Y-115824000D03*
X128778000Y-115824000D03*
D10*
X190500000Y-104360000D03*
D11*
X185420000Y-104360000D03*
X195580000Y-104360000D03*
D12*
X186690000Y-101820000D03*
X193040000Y-99280000D03*
D10*
X109220000Y-104140000D03*
D11*
X104140000Y-104140000D03*
X114300000Y-104140000D03*
D12*
X105410000Y-101600000D03*
X111760000Y-99060000D03*
D13*
X118618000Y-118872000D03*
X128778000Y-118872000D03*
X118618000Y-97536000D03*
X128778000Y-97536000D03*
X160782000Y-91440000D03*
X150622000Y-91440000D03*
X160782000Y-106680000D03*
X150622000Y-106680000D03*
X118618000Y-91440000D03*
X128778000Y-91440000D03*
X160782000Y-85344000D03*
X150622000Y-85344000D03*
X160782000Y-88392000D03*
X150622000Y-88392000D03*
D14*
X38100000Y-114300000D03*
D10*
X109220000Y-83820000D03*
D11*
X104140000Y-83820000D03*
X114300000Y-83820000D03*
D12*
X105410000Y-81280000D03*
X111760000Y-78740000D03*
D13*
X160782000Y-94488000D03*
X150622000Y-94488000D03*
D10*
X48260000Y-83820000D03*
D11*
X43180000Y-83820000D03*
X53340000Y-83820000D03*
D12*
X44450000Y-81280000D03*
X50800000Y-78740000D03*
D10*
X170180000Y-124460000D03*
D11*
X165100000Y-124460000D03*
X175260000Y-124460000D03*
D12*
X166370000Y-121920000D03*
X172720000Y-119380000D03*
D10*
X88900000Y-104140000D03*
D11*
X83820000Y-104140000D03*
X93980000Y-104140000D03*
D12*
X85090000Y-101600000D03*
X91440000Y-99060000D03*
D13*
X118618000Y-94488000D03*
X128778000Y-94488000D03*
D10*
X27940000Y-124460000D03*
D11*
X22860000Y-124460000D03*
X33020000Y-124460000D03*
D12*
X24130000Y-121920000D03*
X30480000Y-119380000D03*
D14*
X155702000Y-80518000D03*
D10*
X27940000Y-104140000D03*
D11*
X22860000Y-104140000D03*
X33020000Y-104140000D03*
D12*
X24130000Y-101600000D03*
X30480000Y-99060000D03*
D13*
X118618000Y-85344000D03*
X128778000Y-85344000D03*
D17*
X152452000Y-127726000D03*
X158952000Y-127726000D03*
X158952000Y-123226000D03*
X152452000Y-123226000D03*
D13*
X160782000Y-103632000D03*
X150622000Y-103632000D03*
D14*
X180594000Y-114554000D03*
D10*
X109220000Y-124460000D03*
D11*
X104140000Y-124460000D03*
X114300000Y-124460000D03*
D12*
X105410000Y-121920000D03*
X111760000Y-119380000D03*
D10*
X251460000Y-83820000D03*
D11*
X246380000Y-83820000D03*
X256540000Y-83820000D03*
D12*
X247650000Y-81280000D03*
X254000000Y-78740000D03*
D13*
X118618000Y-88392000D03*
X128778000Y-88392000D03*
X118618000Y-109728000D03*
X128778000Y-109728000D03*
D10*
X210820000Y-104360000D03*
D11*
X205740000Y-104360000D03*
X215900000Y-104360000D03*
D12*
X207010000Y-101820000D03*
X213360000Y-99280000D03*
D14*
X78740000Y-93980000D03*
D13*
X118618000Y-103632000D03*
X128778000Y-103632000D03*
X118618000Y-121920000D03*
X128778000Y-121920000D03*
D10*
X27940000Y-83820000D03*
D11*
X22860000Y-83820000D03*
X33020000Y-83820000D03*
D12*
X24130000Y-81280000D03*
X30480000Y-78740000D03*
D14*
X220980000Y-93980000D03*
D13*
X118618000Y-128016000D03*
X128778000Y-128016000D03*
M02*
