%TF.GenerationSoftware,KiCad,Pcbnew,(6.0.2)*%
%TF.CreationDate,2022-03-21T22:20:15-04:00*%
%TF.ProjectId,carpal26_1.0.12,63617270-616c-4323-965f-312e302e3132,rev?*%
%TF.SameCoordinates,Original*%
%TF.FileFunction,Legend,Top*%
%TF.FilePolarity,Positive*%
%FSLAX46Y46*%
G04 Gerber Fmt 4.6, Leading zero omitted, Abs format (unit mm)*
G04 Created by KiCad (PCBNEW (6.0.2)) date 2022-03-21 22:20:15*
%MOMM*%
%LPD*%
G01*
G04 APERTURE LIST*
%ADD10C,0.150000*%
%ADD11C,0.127000*%
%ADD12C,0.152400*%
%ADD13C,0.203200*%
%ADD14C,0.101600*%
%ADD15C,0.120000*%
%ADD16C,4.000400*%
%ADD17C,2.133600*%
%ADD18C,2.743200*%
%ADD19C,1.879600*%
%ADD20C,2.100000*%
%ADD21O,2.003200X3.803200*%
%ADD22C,2.082800*%
%ADD23C,2.000000*%
G04 APERTURE END LIST*
D10*
X20924095Y-95607142D02*
X20876476Y-95654761D01*
X20733619Y-95702380D01*
X20638380Y-95702380D01*
X20495523Y-95654761D01*
X20400285Y-95559523D01*
X20352666Y-95464285D01*
X20305047Y-95273809D01*
X20305047Y-95130952D01*
X20352666Y-94940476D01*
X20400285Y-94845238D01*
X20495523Y-94750000D01*
X20638380Y-94702380D01*
X20733619Y-94702380D01*
X20876476Y-94750000D01*
X20924095Y-94797619D01*
X21352666Y-95702380D02*
X21352666Y-95035714D01*
X21352666Y-95226190D02*
X21400285Y-95130952D01*
X21447904Y-95083333D01*
X21543142Y-95035714D01*
X21638380Y-95035714D01*
X22352666Y-95654761D02*
X22257428Y-95702380D01*
X22066952Y-95702380D01*
X21971714Y-95654761D01*
X21924095Y-95559523D01*
X21924095Y-95178571D01*
X21971714Y-95083333D01*
X22066952Y-95035714D01*
X22257428Y-95035714D01*
X22352666Y-95083333D01*
X22400285Y-95178571D01*
X22400285Y-95273809D01*
X21924095Y-95369047D01*
X23257428Y-95702380D02*
X23257428Y-95178571D01*
X23209809Y-95083333D01*
X23114571Y-95035714D01*
X22924095Y-95035714D01*
X22828857Y-95083333D01*
X23257428Y-95654761D02*
X23162190Y-95702380D01*
X22924095Y-95702380D01*
X22828857Y-95654761D01*
X22781238Y-95559523D01*
X22781238Y-95464285D01*
X22828857Y-95369047D01*
X22924095Y-95321428D01*
X23162190Y-95321428D01*
X23257428Y-95273809D01*
X23590761Y-95035714D02*
X23971714Y-95035714D01*
X23733619Y-94702380D02*
X23733619Y-95559523D01*
X23781238Y-95654761D01*
X23876476Y-95702380D01*
X23971714Y-95702380D01*
X24685999Y-95654761D02*
X24590761Y-95702380D01*
X24400285Y-95702380D01*
X24305047Y-95654761D01*
X24257428Y-95559523D01*
X24257428Y-95178571D01*
X24305047Y-95083333D01*
X24400285Y-95035714D01*
X24590761Y-95035714D01*
X24685999Y-95083333D01*
X24733619Y-95178571D01*
X24733619Y-95273809D01*
X24257428Y-95369047D01*
X25590761Y-95702380D02*
X25590761Y-94702380D01*
X25590761Y-95654761D02*
X25495523Y-95702380D01*
X25305047Y-95702380D01*
X25209809Y-95654761D01*
X25162190Y-95607142D01*
X25114571Y-95511904D01*
X25114571Y-95226190D01*
X25162190Y-95130952D01*
X25209809Y-95083333D01*
X25305047Y-95035714D01*
X25495523Y-95035714D01*
X25590761Y-95083333D01*
X26828857Y-95702380D02*
X26828857Y-94702380D01*
X26828857Y-95083333D02*
X26924095Y-95035714D01*
X27114571Y-95035714D01*
X27209809Y-95083333D01*
X27257428Y-95130952D01*
X27305047Y-95226190D01*
X27305047Y-95511904D01*
X27257428Y-95607142D01*
X27209809Y-95654761D01*
X27114571Y-95702380D01*
X26924095Y-95702380D01*
X26828857Y-95654761D01*
X27638380Y-95035714D02*
X27876476Y-95702380D01*
X28114571Y-95035714D02*
X27876476Y-95702380D01*
X27781238Y-95940476D01*
X27733619Y-95988095D01*
X27638380Y-96035714D01*
X29209809Y-95654761D02*
X29305047Y-95702380D01*
X29495523Y-95702380D01*
X29590761Y-95654761D01*
X29638380Y-95559523D01*
X29638380Y-95511904D01*
X29590761Y-95416666D01*
X29495523Y-95369047D01*
X29352666Y-95369047D01*
X29257428Y-95321428D01*
X29209809Y-95226190D01*
X29209809Y-95178571D01*
X29257428Y-95083333D01*
X29352666Y-95035714D01*
X29495523Y-95035714D01*
X29590761Y-95083333D01*
X30447904Y-95654761D02*
X30352666Y-95702380D01*
X30162190Y-95702380D01*
X30066952Y-95654761D01*
X30019333Y-95559523D01*
X30019333Y-95178571D01*
X30066952Y-95083333D01*
X30162190Y-95035714D01*
X30352666Y-95035714D01*
X30447904Y-95083333D01*
X30495523Y-95178571D01*
X30495523Y-95273809D01*
X30019333Y-95369047D01*
X30781238Y-95035714D02*
X31162190Y-95035714D01*
X30924095Y-94702380D02*
X30924095Y-95559523D01*
X30971714Y-95654761D01*
X31066952Y-95702380D01*
X31162190Y-95702380D01*
X31495523Y-95702380D02*
X31495523Y-94702380D01*
X31924095Y-95702380D02*
X31924095Y-95178571D01*
X31876476Y-95083333D01*
X31781238Y-95035714D01*
X31638380Y-95035714D01*
X31543142Y-95083333D01*
X31495523Y-95130952D01*
X32400285Y-95035714D02*
X32400285Y-96035714D01*
X32400285Y-95083333D02*
X32495523Y-95035714D01*
X32685999Y-95035714D01*
X32781238Y-95083333D01*
X32828857Y-95130952D01*
X32876476Y-95226190D01*
X32876476Y-95511904D01*
X32828857Y-95607142D01*
X32781238Y-95654761D01*
X32685999Y-95702380D01*
X32495523Y-95702380D01*
X32400285Y-95654761D01*
X33447904Y-95702380D02*
X33352666Y-95654761D01*
X33305047Y-95607142D01*
X33257428Y-95511904D01*
X33257428Y-95226190D01*
X33305047Y-95130952D01*
X33352666Y-95083333D01*
X33447904Y-95035714D01*
X33590761Y-95035714D01*
X33686000Y-95083333D01*
X33733619Y-95130952D01*
X33781238Y-95226190D01*
X33781238Y-95511904D01*
X33733619Y-95607142D01*
X33686000Y-95654761D01*
X33590761Y-95702380D01*
X33447904Y-95702380D01*
X34352666Y-95702380D02*
X34257428Y-95654761D01*
X34209809Y-95559523D01*
X34209809Y-94702380D01*
X34638380Y-95035714D02*
X34876476Y-95702380D01*
X35114571Y-95035714D02*
X34876476Y-95702380D01*
X34781238Y-95940476D01*
X34733619Y-95988095D01*
X34638380Y-96035714D01*
X21559714Y-94122761D02*
X20607333Y-94122761D01*
X20607333Y-92122761D01*
X22226380Y-94122761D02*
X22226380Y-92789428D01*
X22226380Y-92122761D02*
X22131142Y-92218000D01*
X22226380Y-92313238D01*
X22321619Y-92218000D01*
X22226380Y-92122761D01*
X22226380Y-92313238D01*
X22893047Y-92789428D02*
X23654952Y-92789428D01*
X23178761Y-92122761D02*
X23178761Y-93837047D01*
X23274000Y-94027523D01*
X23464476Y-94122761D01*
X23654952Y-94122761D01*
X24035904Y-92789428D02*
X24797809Y-92789428D01*
X24321619Y-92122761D02*
X24321619Y-93837047D01*
X24416857Y-94027523D01*
X24607333Y-94122761D01*
X24797809Y-94122761D01*
X25750190Y-94122761D02*
X25559714Y-94027523D01*
X25464476Y-93837047D01*
X25464476Y-92122761D01*
X27274000Y-94027523D02*
X27083523Y-94122761D01*
X26702571Y-94122761D01*
X26512095Y-94027523D01*
X26416857Y-93837047D01*
X26416857Y-93075142D01*
X26512095Y-92884666D01*
X26702571Y-92789428D01*
X27083523Y-92789428D01*
X27274000Y-92884666D01*
X27369238Y-93075142D01*
X27369238Y-93265619D01*
X26416857Y-93456095D01*
X30416857Y-93075142D02*
X29750190Y-93075142D01*
X29750190Y-94122761D02*
X29750190Y-92122761D01*
X30702571Y-92122761D01*
X31750190Y-94122761D02*
X31559714Y-94027523D01*
X31464476Y-93932285D01*
X31369238Y-93741809D01*
X31369238Y-93170380D01*
X31464476Y-92979904D01*
X31559714Y-92884666D01*
X31750190Y-92789428D01*
X32035904Y-92789428D01*
X32226380Y-92884666D01*
X32321619Y-92979904D01*
X32416857Y-93170380D01*
X32416857Y-93741809D01*
X32321619Y-93932285D01*
X32226380Y-94027523D01*
X32035904Y-94122761D01*
X31750190Y-94122761D01*
X33559714Y-94122761D02*
X33369238Y-94027523D01*
X33274000Y-93932285D01*
X33178761Y-93741809D01*
X33178761Y-93170380D01*
X33274000Y-92979904D01*
X33369238Y-92884666D01*
X33559714Y-92789428D01*
X33845428Y-92789428D01*
X34035904Y-92884666D01*
X34131142Y-92979904D01*
X34226380Y-93170380D01*
X34226380Y-93741809D01*
X34131142Y-93932285D01*
X34035904Y-94027523D01*
X33845428Y-94122761D01*
X33559714Y-94122761D01*
X34797809Y-92789428D02*
X35559714Y-92789428D01*
X35083523Y-92122761D02*
X35083523Y-93837047D01*
X35178761Y-94027523D01*
X35369238Y-94122761D01*
X35559714Y-94122761D01*
X37559714Y-92789428D02*
X38035904Y-94122761D01*
X38512095Y-92789428D01*
X40321619Y-94122761D02*
X39178761Y-94122761D01*
X39750190Y-94122761D02*
X39750190Y-92122761D01*
X39559714Y-92408476D01*
X39369238Y-92598952D01*
X39178761Y-92694190D01*
X41178761Y-93932285D02*
X41274000Y-94027523D01*
X41178761Y-94122761D01*
X41083523Y-94027523D01*
X41178761Y-93932285D01*
X41178761Y-94122761D01*
X42512095Y-92122761D02*
X42702571Y-92122761D01*
X42893047Y-92218000D01*
X42988285Y-92313238D01*
X43083523Y-92503714D01*
X43178761Y-92884666D01*
X43178761Y-93360857D01*
X43083523Y-93741809D01*
X42988285Y-93932285D01*
X42893047Y-94027523D01*
X42702571Y-94122761D01*
X42512095Y-94122761D01*
X42321619Y-94027523D01*
X42226380Y-93932285D01*
X42131142Y-93741809D01*
X42035904Y-93360857D01*
X42035904Y-92884666D01*
X42131142Y-92503714D01*
X42226380Y-92313238D01*
X42321619Y-92218000D01*
X42512095Y-92122761D01*
X44035904Y-93932285D02*
X44131142Y-94027523D01*
X44035904Y-94122761D01*
X43940666Y-94027523D01*
X44035904Y-93932285D01*
X44035904Y-94122761D01*
X44893047Y-92313238D02*
X44988285Y-92218000D01*
X45178761Y-92122761D01*
X45654952Y-92122761D01*
X45845428Y-92218000D01*
X45940666Y-92313238D01*
X46035904Y-92503714D01*
X46035904Y-92694190D01*
X45940666Y-92979904D01*
X44797809Y-94122761D01*
X46035904Y-94122761D01*
D11*
X96520000Y-91440000D02*
X81280000Y-91440000D01*
X81280000Y-76200000D02*
X96520000Y-76200000D01*
X81280000Y-91440000D02*
X81280000Y-76200000D01*
X96520000Y-76200000D02*
X96520000Y-91440000D01*
D12*
X122682000Y-101219000D02*
X122682000Y-99949000D01*
X125730000Y-101854000D02*
X121666000Y-101854000D01*
X121666000Y-99314000D02*
X125730000Y-99314000D01*
X123698000Y-100584000D02*
X122682000Y-101219000D01*
X121666000Y-99314000D02*
X121666000Y-101854000D01*
X123698000Y-101219000D02*
X123698000Y-100584000D01*
X124333000Y-100584000D02*
X123698000Y-100584000D01*
X123698000Y-100584000D02*
X123698000Y-99949000D01*
X122682000Y-99949000D02*
X123698000Y-100584000D01*
X123698000Y-100584000D02*
X122174000Y-100584000D01*
X125730000Y-101854000D02*
X125730000Y-99314000D01*
G36*
X125349000Y-101854000D02*
G01*
X124841000Y-101854000D01*
X124841000Y-99314000D01*
X125349000Y-99314000D01*
X125349000Y-101854000D01*
G37*
G36*
X121666000Y-100965000D02*
G01*
X119761000Y-100965000D01*
X119761000Y-100203000D01*
X121666000Y-100203000D01*
X121666000Y-100965000D01*
G37*
G36*
X127635000Y-100965000D02*
G01*
X125730000Y-100965000D01*
X125730000Y-100203000D01*
X127635000Y-100203000D01*
X127635000Y-100965000D01*
G37*
X124333000Y-112776000D02*
X123698000Y-112776000D01*
X123698000Y-113411000D02*
X123698000Y-112776000D01*
X123698000Y-112776000D02*
X123698000Y-112141000D01*
X125730000Y-114046000D02*
X121666000Y-114046000D01*
X123698000Y-112776000D02*
X122682000Y-113411000D01*
X121666000Y-111506000D02*
X121666000Y-114046000D01*
X123698000Y-112776000D02*
X122174000Y-112776000D01*
X121666000Y-111506000D02*
X125730000Y-111506000D01*
X125730000Y-114046000D02*
X125730000Y-111506000D01*
X122682000Y-112141000D02*
X123698000Y-112776000D01*
X122682000Y-113411000D02*
X122682000Y-112141000D01*
G36*
X121666000Y-113157000D02*
G01*
X119761000Y-113157000D01*
X119761000Y-112395000D01*
X121666000Y-112395000D01*
X121666000Y-113157000D01*
G37*
G36*
X127635000Y-113157000D02*
G01*
X125730000Y-113157000D01*
X125730000Y-112395000D01*
X127635000Y-112395000D01*
X127635000Y-113157000D01*
G37*
G36*
X125349000Y-114046000D02*
G01*
X124841000Y-114046000D01*
X124841000Y-111506000D01*
X125349000Y-111506000D01*
X125349000Y-114046000D01*
G37*
X156718000Y-109093000D02*
X156718000Y-110363000D01*
X155702000Y-109093000D02*
X155702000Y-109728000D01*
X153670000Y-108458000D02*
X157734000Y-108458000D01*
X156718000Y-110363000D02*
X155702000Y-109728000D01*
X155702000Y-109728000D02*
X156718000Y-109093000D01*
X153670000Y-108458000D02*
X153670000Y-110998000D01*
X155702000Y-109728000D02*
X155702000Y-110363000D01*
X155702000Y-109728000D02*
X157226000Y-109728000D01*
X157734000Y-110998000D02*
X157734000Y-108458000D01*
X157734000Y-110998000D02*
X153670000Y-110998000D01*
X155067000Y-109728000D02*
X155702000Y-109728000D01*
G36*
X154559000Y-110998000D02*
G01*
X154051000Y-110998000D01*
X154051000Y-108458000D01*
X154559000Y-108458000D01*
X154559000Y-110998000D01*
G37*
G36*
X153670000Y-110109000D02*
G01*
X151765000Y-110109000D01*
X151765000Y-109347000D01*
X153670000Y-109347000D01*
X153670000Y-110109000D01*
G37*
G36*
X159639000Y-110109000D02*
G01*
X157734000Y-110109000D01*
X157734000Y-109347000D01*
X159639000Y-109347000D01*
X159639000Y-110109000D01*
G37*
D11*
X182880000Y-132080000D02*
X182880000Y-116840000D01*
X182880000Y-116840000D02*
X198120000Y-116840000D01*
X198120000Y-116840000D02*
X198120000Y-132080000D01*
X198120000Y-132080000D02*
X182880000Y-132080000D01*
D12*
X156718000Y-118237000D02*
X156718000Y-119507000D01*
X155702000Y-118872000D02*
X156718000Y-118237000D01*
X157734000Y-120142000D02*
X157734000Y-117602000D01*
X156718000Y-119507000D02*
X155702000Y-118872000D01*
X153670000Y-117602000D02*
X157734000Y-117602000D01*
X155702000Y-118872000D02*
X155702000Y-119507000D01*
X157734000Y-120142000D02*
X153670000Y-120142000D01*
X155067000Y-118872000D02*
X155702000Y-118872000D01*
X155702000Y-118872000D02*
X157226000Y-118872000D01*
X153670000Y-117602000D02*
X153670000Y-120142000D01*
X155702000Y-118237000D02*
X155702000Y-118872000D01*
G36*
X154559000Y-120142000D02*
G01*
X154051000Y-120142000D01*
X154051000Y-117602000D01*
X154559000Y-117602000D01*
X154559000Y-120142000D01*
G37*
G36*
X159639000Y-119253000D02*
G01*
X157734000Y-119253000D01*
X157734000Y-118491000D01*
X159639000Y-118491000D01*
X159639000Y-119253000D01*
G37*
G36*
X153670000Y-119253000D02*
G01*
X151765000Y-119253000D01*
X151765000Y-118491000D01*
X153670000Y-118491000D01*
X153670000Y-119253000D01*
G37*
D11*
X60960000Y-132080000D02*
X60960000Y-116840000D01*
X76200000Y-116840000D02*
X76200000Y-132080000D01*
X76200000Y-132080000D02*
X60960000Y-132080000D01*
X60960000Y-116840000D02*
X76200000Y-116840000D01*
X55880000Y-111760000D02*
X40640000Y-111760000D01*
X40640000Y-111760000D02*
X40640000Y-96520000D01*
X40640000Y-96520000D02*
X55880000Y-96520000D01*
X55880000Y-96520000D02*
X55880000Y-111760000D01*
X76200000Y-91440000D02*
X60960000Y-91440000D01*
X60960000Y-76200000D02*
X76200000Y-76200000D01*
X76200000Y-76200000D02*
X76200000Y-91440000D01*
X60960000Y-91440000D02*
X60960000Y-76200000D01*
D12*
X123698000Y-107315000D02*
X123698000Y-106680000D01*
X125730000Y-107950000D02*
X121666000Y-107950000D01*
X122682000Y-106045000D02*
X123698000Y-106680000D01*
X125730000Y-107950000D02*
X125730000Y-105410000D01*
X122682000Y-107315000D02*
X122682000Y-106045000D01*
X123698000Y-106680000D02*
X123698000Y-106045000D01*
X124333000Y-106680000D02*
X123698000Y-106680000D01*
X123698000Y-106680000D02*
X122682000Y-107315000D01*
X123698000Y-106680000D02*
X122174000Y-106680000D01*
X121666000Y-105410000D02*
X121666000Y-107950000D01*
X121666000Y-105410000D02*
X125730000Y-105410000D01*
G36*
X125349000Y-107950000D02*
G01*
X124841000Y-107950000D01*
X124841000Y-105410000D01*
X125349000Y-105410000D01*
X125349000Y-107950000D01*
G37*
G36*
X127635000Y-107061000D02*
G01*
X125730000Y-107061000D01*
X125730000Y-106299000D01*
X127635000Y-106299000D01*
X127635000Y-107061000D01*
G37*
G36*
X121666000Y-107061000D02*
G01*
X119761000Y-107061000D01*
X119761000Y-106299000D01*
X121666000Y-106299000D01*
X121666000Y-107061000D01*
G37*
X155702000Y-115824000D02*
X155702000Y-116459000D01*
X153670000Y-114554000D02*
X157734000Y-114554000D01*
X155067000Y-115824000D02*
X155702000Y-115824000D01*
X155702000Y-115824000D02*
X156718000Y-115189000D01*
X157734000Y-117094000D02*
X157734000Y-114554000D01*
X157734000Y-117094000D02*
X153670000Y-117094000D01*
X156718000Y-115189000D02*
X156718000Y-116459000D01*
X155702000Y-115824000D02*
X157226000Y-115824000D01*
X156718000Y-116459000D02*
X155702000Y-115824000D01*
X155702000Y-115189000D02*
X155702000Y-115824000D01*
X153670000Y-114554000D02*
X153670000Y-117094000D01*
G36*
X154559000Y-117094000D02*
G01*
X154051000Y-117094000D01*
X154051000Y-114554000D01*
X154559000Y-114554000D01*
X154559000Y-117094000D01*
G37*
G36*
X153670000Y-116205000D02*
G01*
X151765000Y-116205000D01*
X151765000Y-115443000D01*
X153670000Y-115443000D01*
X153670000Y-116205000D01*
G37*
G36*
X159639000Y-116205000D02*
G01*
X157734000Y-116205000D01*
X157734000Y-115443000D01*
X159639000Y-115443000D01*
X159639000Y-116205000D01*
G37*
D11*
X203200000Y-76200000D02*
X218440000Y-76200000D01*
X203200000Y-91440000D02*
X203200000Y-76200000D01*
X218440000Y-91440000D02*
X203200000Y-91440000D01*
X218440000Y-76200000D02*
X218440000Y-91440000D01*
D13*
X132100000Y-111480000D02*
X131800000Y-111780000D01*
X147600000Y-127280000D02*
X147600000Y-111780000D01*
X147600000Y-111780000D02*
X147300000Y-111480000D01*
D14*
X138500000Y-130080000D02*
X138500000Y-128380000D01*
X140900000Y-130080000D02*
X140900000Y-128380000D01*
D13*
X131800000Y-111780000D02*
X131800000Y-127280000D01*
X147300000Y-111480000D02*
X139700000Y-111480000D01*
X132100000Y-128280000D02*
X131800000Y-127980000D01*
X147600000Y-127980000D02*
X147600000Y-127380000D01*
D14*
X145900000Y-130080000D02*
X145900000Y-128380000D01*
X133500000Y-130080000D02*
X133500000Y-128380000D01*
X135900000Y-130080000D02*
X135900000Y-128380000D01*
D13*
X131800000Y-127980000D02*
X131800000Y-127380000D01*
X131800000Y-127280000D02*
X139700000Y-127280000D01*
D14*
X143500000Y-130080000D02*
X143500000Y-128380000D01*
D13*
X147300000Y-128280000D02*
X147600000Y-127980000D01*
X139700000Y-127280000D02*
X147600000Y-127280000D01*
X132100000Y-128280000D02*
X147300000Y-128280000D01*
X139700000Y-111480000D02*
X132100000Y-111480000D01*
X144600000Y-119380000D02*
G75*
G03*
X144600000Y-119380000I-4900000J0D01*
G01*
X142600000Y-119380000D02*
G75*
G03*
X142600000Y-119380000I-2900000J0D01*
G01*
X143600000Y-119380000D02*
G75*
G03*
X143600000Y-119380000I-3900000J0D01*
G01*
D11*
X55880000Y-116840000D02*
X55880000Y-132080000D01*
X40640000Y-132080000D02*
X40640000Y-116840000D01*
X40640000Y-116840000D02*
X55880000Y-116840000D01*
X55880000Y-132080000D02*
X40640000Y-132080000D01*
X60960000Y-111760000D02*
X60960000Y-96520000D01*
X76200000Y-111760000D02*
X60960000Y-111760000D01*
X60960000Y-96520000D02*
X76200000Y-96520000D01*
X76200000Y-96520000D02*
X76200000Y-111760000D01*
X223520000Y-96740000D02*
X238760000Y-96740000D01*
X223520000Y-111980000D02*
X223520000Y-96740000D01*
X238760000Y-111980000D02*
X223520000Y-111980000D01*
X238760000Y-96740000D02*
X238760000Y-111980000D01*
X223520000Y-91440000D02*
X223520000Y-76200000D01*
X223520000Y-76200000D02*
X238760000Y-76200000D01*
X238760000Y-76200000D02*
X238760000Y-91440000D01*
X238760000Y-91440000D02*
X223520000Y-91440000D01*
D12*
X153670000Y-99314000D02*
X157734000Y-99314000D01*
X155702000Y-100584000D02*
X157226000Y-100584000D01*
X155702000Y-100584000D02*
X155702000Y-101219000D01*
X155067000Y-100584000D02*
X155702000Y-100584000D01*
X157734000Y-101854000D02*
X153670000Y-101854000D01*
X157734000Y-101854000D02*
X157734000Y-99314000D01*
X156718000Y-99949000D02*
X156718000Y-101219000D01*
X155702000Y-99949000D02*
X155702000Y-100584000D01*
X153670000Y-99314000D02*
X153670000Y-101854000D01*
X155702000Y-100584000D02*
X156718000Y-99949000D01*
X156718000Y-101219000D02*
X155702000Y-100584000D01*
G36*
X159639000Y-100965000D02*
G01*
X157734000Y-100965000D01*
X157734000Y-100203000D01*
X159639000Y-100203000D01*
X159639000Y-100965000D01*
G37*
G36*
X154559000Y-101854000D02*
G01*
X154051000Y-101854000D01*
X154051000Y-99314000D01*
X154559000Y-99314000D01*
X154559000Y-101854000D01*
G37*
G36*
X153670000Y-100965000D02*
G01*
X151765000Y-100965000D01*
X151765000Y-100203000D01*
X153670000Y-100203000D01*
X153670000Y-100965000D01*
G37*
X156718000Y-98171000D02*
X155702000Y-97536000D01*
X157734000Y-98806000D02*
X157734000Y-96266000D01*
X153670000Y-96266000D02*
X157734000Y-96266000D01*
X155702000Y-97536000D02*
X156718000Y-96901000D01*
X155702000Y-97536000D02*
X157226000Y-97536000D01*
X155702000Y-97536000D02*
X155702000Y-98171000D01*
X156718000Y-96901000D02*
X156718000Y-98171000D01*
X155702000Y-96901000D02*
X155702000Y-97536000D01*
X155067000Y-97536000D02*
X155702000Y-97536000D01*
X153670000Y-96266000D02*
X153670000Y-98806000D01*
X157734000Y-98806000D02*
X153670000Y-98806000D01*
G36*
X154559000Y-98806000D02*
G01*
X154051000Y-98806000D01*
X154051000Y-96266000D01*
X154559000Y-96266000D01*
X154559000Y-98806000D01*
G37*
G36*
X153670000Y-97917000D02*
G01*
X151765000Y-97917000D01*
X151765000Y-97155000D01*
X153670000Y-97155000D01*
X153670000Y-97917000D01*
G37*
G36*
X159639000Y-97917000D02*
G01*
X157734000Y-97917000D01*
X157734000Y-97155000D01*
X159639000Y-97155000D01*
X159639000Y-97917000D01*
G37*
X155067000Y-112776000D02*
X155702000Y-112776000D01*
X156718000Y-112141000D02*
X156718000Y-113411000D01*
X155702000Y-112776000D02*
X155702000Y-113411000D01*
X155702000Y-112776000D02*
X156718000Y-112141000D01*
X156718000Y-113411000D02*
X155702000Y-112776000D01*
X153670000Y-111506000D02*
X157734000Y-111506000D01*
X155702000Y-112141000D02*
X155702000Y-112776000D01*
X153670000Y-111506000D02*
X153670000Y-114046000D01*
X157734000Y-114046000D02*
X157734000Y-111506000D01*
X155702000Y-112776000D02*
X157226000Y-112776000D01*
X157734000Y-114046000D02*
X153670000Y-114046000D01*
G36*
X153670000Y-113157000D02*
G01*
X151765000Y-113157000D01*
X151765000Y-112395000D01*
X153670000Y-112395000D01*
X153670000Y-113157000D01*
G37*
G36*
X159639000Y-113157000D02*
G01*
X157734000Y-113157000D01*
X157734000Y-112395000D01*
X159639000Y-112395000D01*
X159639000Y-113157000D01*
G37*
G36*
X154559000Y-114046000D02*
G01*
X154051000Y-114046000D01*
X154051000Y-111506000D01*
X154559000Y-111506000D01*
X154559000Y-114046000D01*
G37*
X123698000Y-125603000D02*
X123698000Y-124968000D01*
X125730000Y-126238000D02*
X125730000Y-123698000D01*
X121666000Y-123698000D02*
X125730000Y-123698000D01*
X123698000Y-124968000D02*
X123698000Y-124333000D01*
X122682000Y-124333000D02*
X123698000Y-124968000D01*
X121666000Y-123698000D02*
X121666000Y-126238000D01*
X123698000Y-124968000D02*
X122174000Y-124968000D01*
X123698000Y-124968000D02*
X122682000Y-125603000D01*
X125730000Y-126238000D02*
X121666000Y-126238000D01*
X124333000Y-124968000D02*
X123698000Y-124968000D01*
X122682000Y-125603000D02*
X122682000Y-124333000D01*
G36*
X127635000Y-125349000D02*
G01*
X125730000Y-125349000D01*
X125730000Y-124587000D01*
X127635000Y-124587000D01*
X127635000Y-125349000D01*
G37*
G36*
X121666000Y-125349000D02*
G01*
X119761000Y-125349000D01*
X119761000Y-124587000D01*
X121666000Y-124587000D01*
X121666000Y-125349000D01*
G37*
G36*
X125349000Y-126238000D02*
G01*
X124841000Y-126238000D01*
X124841000Y-123698000D01*
X125349000Y-123698000D01*
X125349000Y-126238000D01*
G37*
D11*
X81280000Y-132080000D02*
X81280000Y-116840000D01*
X81280000Y-116840000D02*
X96520000Y-116840000D01*
X96520000Y-116840000D02*
X96520000Y-132080000D01*
X96520000Y-132080000D02*
X81280000Y-132080000D01*
X182880000Y-91440000D02*
X182880000Y-76200000D01*
X182880000Y-76200000D02*
X198120000Y-76200000D01*
X198120000Y-76200000D02*
X198120000Y-91440000D01*
X198120000Y-91440000D02*
X182880000Y-91440000D01*
X162560000Y-91440000D02*
X162560000Y-76200000D01*
X177800000Y-76200000D02*
X177800000Y-91440000D01*
X177800000Y-91440000D02*
X162560000Y-91440000D01*
X162560000Y-76200000D02*
X177800000Y-76200000D01*
X177800000Y-96740000D02*
X177800000Y-111980000D01*
X162560000Y-96740000D02*
X177800000Y-96740000D01*
X162560000Y-111980000D02*
X162560000Y-96740000D01*
X177800000Y-111980000D02*
X162560000Y-111980000D01*
D12*
X124333000Y-115824000D02*
X123698000Y-115824000D01*
X123698000Y-115824000D02*
X122682000Y-116459000D01*
X123698000Y-116459000D02*
X123698000Y-115824000D01*
X125730000Y-117094000D02*
X125730000Y-114554000D01*
X122682000Y-115189000D02*
X123698000Y-115824000D01*
X121666000Y-114554000D02*
X125730000Y-114554000D01*
X123698000Y-115824000D02*
X122174000Y-115824000D01*
X123698000Y-115824000D02*
X123698000Y-115189000D01*
X121666000Y-114554000D02*
X121666000Y-117094000D01*
X125730000Y-117094000D02*
X121666000Y-117094000D01*
X122682000Y-116459000D02*
X122682000Y-115189000D01*
G36*
X127635000Y-116205000D02*
G01*
X125730000Y-116205000D01*
X125730000Y-115443000D01*
X127635000Y-115443000D01*
X127635000Y-116205000D01*
G37*
G36*
X125349000Y-117094000D02*
G01*
X124841000Y-117094000D01*
X124841000Y-114554000D01*
X125349000Y-114554000D01*
X125349000Y-117094000D01*
G37*
G36*
X121666000Y-116205000D02*
G01*
X119761000Y-116205000D01*
X119761000Y-115443000D01*
X121666000Y-115443000D01*
X121666000Y-116205000D01*
G37*
D11*
X198120000Y-96740000D02*
X198120000Y-111980000D01*
X182880000Y-111980000D02*
X182880000Y-96740000D01*
X182880000Y-96740000D02*
X198120000Y-96740000D01*
X198120000Y-111980000D02*
X182880000Y-111980000D01*
X101600000Y-111760000D02*
X101600000Y-96520000D01*
X101600000Y-96520000D02*
X116840000Y-96520000D01*
X116840000Y-111760000D02*
X101600000Y-111760000D01*
X116840000Y-96520000D02*
X116840000Y-111760000D01*
D12*
X122682000Y-118237000D02*
X123698000Y-118872000D01*
X121666000Y-117602000D02*
X125730000Y-117602000D01*
X123698000Y-119507000D02*
X123698000Y-118872000D01*
X123698000Y-118872000D02*
X122174000Y-118872000D01*
X125730000Y-120142000D02*
X121666000Y-120142000D01*
X123698000Y-118872000D02*
X122682000Y-119507000D01*
X125730000Y-120142000D02*
X125730000Y-117602000D01*
X122682000Y-119507000D02*
X122682000Y-118237000D01*
X124333000Y-118872000D02*
X123698000Y-118872000D01*
X121666000Y-117602000D02*
X121666000Y-120142000D01*
X123698000Y-118872000D02*
X123698000Y-118237000D01*
G36*
X127635000Y-119253000D02*
G01*
X125730000Y-119253000D01*
X125730000Y-118491000D01*
X127635000Y-118491000D01*
X127635000Y-119253000D01*
G37*
G36*
X121666000Y-119253000D02*
G01*
X119761000Y-119253000D01*
X119761000Y-118491000D01*
X121666000Y-118491000D01*
X121666000Y-119253000D01*
G37*
G36*
X125349000Y-120142000D02*
G01*
X124841000Y-120142000D01*
X124841000Y-117602000D01*
X125349000Y-117602000D01*
X125349000Y-120142000D01*
G37*
X125730000Y-98806000D02*
X121666000Y-98806000D01*
X123698000Y-98171000D02*
X123698000Y-97536000D01*
X123698000Y-97536000D02*
X123698000Y-96901000D01*
X123698000Y-97536000D02*
X122682000Y-98171000D01*
X121666000Y-96266000D02*
X125730000Y-96266000D01*
X124333000Y-97536000D02*
X123698000Y-97536000D01*
X122682000Y-96901000D02*
X123698000Y-97536000D01*
X123698000Y-97536000D02*
X122174000Y-97536000D01*
X125730000Y-98806000D02*
X125730000Y-96266000D01*
X122682000Y-98171000D02*
X122682000Y-96901000D01*
X121666000Y-96266000D02*
X121666000Y-98806000D01*
G36*
X125349000Y-98806000D02*
G01*
X124841000Y-98806000D01*
X124841000Y-96266000D01*
X125349000Y-96266000D01*
X125349000Y-98806000D01*
G37*
G36*
X121666000Y-97917000D02*
G01*
X119761000Y-97917000D01*
X119761000Y-97155000D01*
X121666000Y-97155000D01*
X121666000Y-97917000D01*
G37*
G36*
X127635000Y-97917000D02*
G01*
X125730000Y-97917000D01*
X125730000Y-97155000D01*
X127635000Y-97155000D01*
X127635000Y-97917000D01*
G37*
X155702000Y-91440000D02*
X155702000Y-92075000D01*
X155702000Y-91440000D02*
X156718000Y-90805000D01*
X156718000Y-90805000D02*
X156718000Y-92075000D01*
X155702000Y-90805000D02*
X155702000Y-91440000D01*
X157734000Y-92710000D02*
X153670000Y-92710000D01*
X153670000Y-90170000D02*
X157734000Y-90170000D01*
X153670000Y-90170000D02*
X153670000Y-92710000D01*
X155702000Y-91440000D02*
X157226000Y-91440000D01*
X155067000Y-91440000D02*
X155702000Y-91440000D01*
X157734000Y-92710000D02*
X157734000Y-90170000D01*
X156718000Y-92075000D02*
X155702000Y-91440000D01*
G36*
X153670000Y-91821000D02*
G01*
X151765000Y-91821000D01*
X151765000Y-91059000D01*
X153670000Y-91059000D01*
X153670000Y-91821000D01*
G37*
G36*
X159639000Y-91821000D02*
G01*
X157734000Y-91821000D01*
X157734000Y-91059000D01*
X159639000Y-91059000D01*
X159639000Y-91821000D01*
G37*
G36*
X154559000Y-92710000D02*
G01*
X154051000Y-92710000D01*
X154051000Y-90170000D01*
X154559000Y-90170000D01*
X154559000Y-92710000D01*
G37*
X155702000Y-106680000D02*
X155702000Y-107315000D01*
X155702000Y-106045000D02*
X155702000Y-106680000D01*
X153670000Y-105410000D02*
X153670000Y-107950000D01*
X157734000Y-107950000D02*
X157734000Y-105410000D01*
X155702000Y-106680000D02*
X157226000Y-106680000D01*
X156718000Y-107315000D02*
X155702000Y-106680000D01*
X155067000Y-106680000D02*
X155702000Y-106680000D01*
X153670000Y-105410000D02*
X157734000Y-105410000D01*
X155702000Y-106680000D02*
X156718000Y-106045000D01*
X157734000Y-107950000D02*
X153670000Y-107950000D01*
X156718000Y-106045000D02*
X156718000Y-107315000D01*
G36*
X154559000Y-107950000D02*
G01*
X154051000Y-107950000D01*
X154051000Y-105410000D01*
X154559000Y-105410000D01*
X154559000Y-107950000D01*
G37*
G36*
X159639000Y-107061000D02*
G01*
X157734000Y-107061000D01*
X157734000Y-106299000D01*
X159639000Y-106299000D01*
X159639000Y-107061000D01*
G37*
G36*
X153670000Y-107061000D02*
G01*
X151765000Y-107061000D01*
X151765000Y-106299000D01*
X153670000Y-106299000D01*
X153670000Y-107061000D01*
G37*
X125730000Y-92710000D02*
X121666000Y-92710000D01*
X123698000Y-91440000D02*
X123698000Y-90805000D01*
X124333000Y-91440000D02*
X123698000Y-91440000D01*
X121666000Y-90170000D02*
X125730000Y-90170000D01*
X123698000Y-91440000D02*
X122682000Y-92075000D01*
X122682000Y-90805000D02*
X123698000Y-91440000D01*
X123698000Y-92075000D02*
X123698000Y-91440000D01*
X121666000Y-90170000D02*
X121666000Y-92710000D01*
X122682000Y-92075000D02*
X122682000Y-90805000D01*
X123698000Y-91440000D02*
X122174000Y-91440000D01*
X125730000Y-92710000D02*
X125730000Y-90170000D01*
G36*
X125349000Y-92710000D02*
G01*
X124841000Y-92710000D01*
X124841000Y-90170000D01*
X125349000Y-90170000D01*
X125349000Y-92710000D01*
G37*
G36*
X127635000Y-91821000D02*
G01*
X125730000Y-91821000D01*
X125730000Y-91059000D01*
X127635000Y-91059000D01*
X127635000Y-91821000D01*
G37*
G36*
X121666000Y-91821000D02*
G01*
X119761000Y-91821000D01*
X119761000Y-91059000D01*
X121666000Y-91059000D01*
X121666000Y-91821000D01*
G37*
X156718000Y-84709000D02*
X156718000Y-85979000D01*
X155702000Y-85344000D02*
X157226000Y-85344000D01*
X155067000Y-85344000D02*
X155702000Y-85344000D01*
X155702000Y-85344000D02*
X156718000Y-84709000D01*
X155702000Y-85344000D02*
X155702000Y-85979000D01*
X156718000Y-85979000D02*
X155702000Y-85344000D01*
X157734000Y-86614000D02*
X153670000Y-86614000D01*
X153670000Y-84074000D02*
X157734000Y-84074000D01*
X153670000Y-84074000D02*
X153670000Y-86614000D01*
X157734000Y-86614000D02*
X157734000Y-84074000D01*
X155702000Y-84709000D02*
X155702000Y-85344000D01*
G36*
X154559000Y-86614000D02*
G01*
X154051000Y-86614000D01*
X154051000Y-84074000D01*
X154559000Y-84074000D01*
X154559000Y-86614000D01*
G37*
G36*
X159639000Y-85725000D02*
G01*
X157734000Y-85725000D01*
X157734000Y-84963000D01*
X159639000Y-84963000D01*
X159639000Y-85725000D01*
G37*
G36*
X153670000Y-85725000D02*
G01*
X151765000Y-85725000D01*
X151765000Y-84963000D01*
X153670000Y-84963000D01*
X153670000Y-85725000D01*
G37*
X156718000Y-87757000D02*
X156718000Y-89027000D01*
X155702000Y-87757000D02*
X155702000Y-88392000D01*
X156718000Y-89027000D02*
X155702000Y-88392000D01*
X157734000Y-89662000D02*
X153670000Y-89662000D01*
X155702000Y-88392000D02*
X155702000Y-89027000D01*
X153670000Y-87122000D02*
X157734000Y-87122000D01*
X155067000Y-88392000D02*
X155702000Y-88392000D01*
X157734000Y-89662000D02*
X157734000Y-87122000D01*
X155702000Y-88392000D02*
X157226000Y-88392000D01*
X153670000Y-87122000D02*
X153670000Y-89662000D01*
X155702000Y-88392000D02*
X156718000Y-87757000D01*
G36*
X153670000Y-88773000D02*
G01*
X151765000Y-88773000D01*
X151765000Y-88011000D01*
X153670000Y-88011000D01*
X153670000Y-88773000D01*
G37*
G36*
X154559000Y-89662000D02*
G01*
X154051000Y-89662000D01*
X154051000Y-87122000D01*
X154559000Y-87122000D01*
X154559000Y-89662000D01*
G37*
G36*
X159639000Y-88773000D02*
G01*
X157734000Y-88773000D01*
X157734000Y-88011000D01*
X159639000Y-88011000D01*
X159639000Y-88773000D01*
G37*
D11*
X101600000Y-76200000D02*
X116840000Y-76200000D01*
X116840000Y-76200000D02*
X116840000Y-91440000D01*
X116840000Y-91440000D02*
X101600000Y-91440000D01*
X101600000Y-91440000D02*
X101600000Y-76200000D01*
D12*
X156718000Y-95123000D02*
X155702000Y-94488000D01*
X157734000Y-95758000D02*
X153670000Y-95758000D01*
X155702000Y-94488000D02*
X156718000Y-93853000D01*
X155067000Y-94488000D02*
X155702000Y-94488000D01*
X155702000Y-93853000D02*
X155702000Y-94488000D01*
X157734000Y-95758000D02*
X157734000Y-93218000D01*
X153670000Y-93218000D02*
X157734000Y-93218000D01*
X156718000Y-93853000D02*
X156718000Y-95123000D01*
X155702000Y-94488000D02*
X157226000Y-94488000D01*
X155702000Y-94488000D02*
X155702000Y-95123000D01*
X153670000Y-93218000D02*
X153670000Y-95758000D01*
G36*
X154559000Y-95758000D02*
G01*
X154051000Y-95758000D01*
X154051000Y-93218000D01*
X154559000Y-93218000D01*
X154559000Y-95758000D01*
G37*
G36*
X153670000Y-94869000D02*
G01*
X151765000Y-94869000D01*
X151765000Y-94107000D01*
X153670000Y-94107000D01*
X153670000Y-94869000D01*
G37*
G36*
X159639000Y-94869000D02*
G01*
X157734000Y-94869000D01*
X157734000Y-94107000D01*
X159639000Y-94107000D01*
X159639000Y-94869000D01*
G37*
D11*
X55880000Y-91440000D02*
X40640000Y-91440000D01*
X40640000Y-76200000D02*
X55880000Y-76200000D01*
X55880000Y-76200000D02*
X55880000Y-91440000D01*
X40640000Y-91440000D02*
X40640000Y-76200000D01*
X162560000Y-132080000D02*
X162560000Y-116840000D01*
X177800000Y-132080000D02*
X162560000Y-132080000D01*
X177800000Y-116840000D02*
X177800000Y-132080000D01*
X162560000Y-116840000D02*
X177800000Y-116840000D01*
X81280000Y-111760000D02*
X81280000Y-96520000D01*
X96520000Y-96520000D02*
X96520000Y-111760000D01*
X96520000Y-111760000D02*
X81280000Y-111760000D01*
X81280000Y-96520000D02*
X96520000Y-96520000D01*
D12*
X121666000Y-93218000D02*
X121666000Y-95758000D01*
X125730000Y-95758000D02*
X125730000Y-93218000D01*
X124333000Y-94488000D02*
X123698000Y-94488000D01*
X122682000Y-95123000D02*
X122682000Y-93853000D01*
X123698000Y-95123000D02*
X123698000Y-94488000D01*
X121666000Y-93218000D02*
X125730000Y-93218000D01*
X123698000Y-94488000D02*
X122682000Y-95123000D01*
X123698000Y-94488000D02*
X123698000Y-93853000D01*
X125730000Y-95758000D02*
X121666000Y-95758000D01*
X123698000Y-94488000D02*
X122174000Y-94488000D01*
X122682000Y-93853000D02*
X123698000Y-94488000D01*
G36*
X127635000Y-94869000D02*
G01*
X125730000Y-94869000D01*
X125730000Y-94107000D01*
X127635000Y-94107000D01*
X127635000Y-94869000D01*
G37*
G36*
X125349000Y-95758000D02*
G01*
X124841000Y-95758000D01*
X124841000Y-93218000D01*
X125349000Y-93218000D01*
X125349000Y-95758000D01*
G37*
G36*
X121666000Y-94869000D02*
G01*
X119761000Y-94869000D01*
X119761000Y-94107000D01*
X121666000Y-94107000D01*
X121666000Y-94869000D01*
G37*
D11*
X35560000Y-116840000D02*
X35560000Y-132080000D01*
X35560000Y-132080000D02*
X20320000Y-132080000D01*
X20320000Y-116840000D02*
X35560000Y-116840000D01*
X20320000Y-132080000D02*
X20320000Y-116840000D01*
X35560000Y-96520000D02*
X35560000Y-111760000D01*
X35560000Y-111760000D02*
X20320000Y-111760000D01*
X20320000Y-111760000D02*
X20320000Y-96520000D01*
X20320000Y-96520000D02*
X35560000Y-96520000D01*
D12*
X124333000Y-85344000D02*
X123698000Y-85344000D01*
X125730000Y-86614000D02*
X121666000Y-86614000D01*
X122682000Y-84709000D02*
X123698000Y-85344000D01*
X122682000Y-85979000D02*
X122682000Y-84709000D01*
X121666000Y-84074000D02*
X121666000Y-86614000D01*
X123698000Y-85344000D02*
X122682000Y-85979000D01*
X123698000Y-85344000D02*
X122174000Y-85344000D01*
X121666000Y-84074000D02*
X125730000Y-84074000D01*
X123698000Y-85979000D02*
X123698000Y-85344000D01*
X123698000Y-85344000D02*
X123698000Y-84709000D01*
X125730000Y-86614000D02*
X125730000Y-84074000D01*
G36*
X127635000Y-85725000D02*
G01*
X125730000Y-85725000D01*
X125730000Y-84963000D01*
X127635000Y-84963000D01*
X127635000Y-85725000D01*
G37*
G36*
X121666000Y-85725000D02*
G01*
X119761000Y-85725000D01*
X119761000Y-84963000D01*
X121666000Y-84963000D01*
X121666000Y-85725000D01*
G37*
G36*
X125349000Y-86614000D02*
G01*
X124841000Y-86614000D01*
X124841000Y-84074000D01*
X125349000Y-84074000D01*
X125349000Y-86614000D01*
G37*
D15*
X152202000Y-124726000D02*
X152202000Y-126226000D01*
X153452000Y-128726000D02*
X157952000Y-128726000D01*
X159202000Y-126226000D02*
X159202000Y-124726000D01*
X157952000Y-122226000D02*
X153452000Y-122226000D01*
D12*
X155702000Y-103632000D02*
X157226000Y-103632000D01*
X156718000Y-104267000D02*
X155702000Y-103632000D01*
X153670000Y-102362000D02*
X157734000Y-102362000D01*
X156718000Y-102997000D02*
X156718000Y-104267000D01*
X155702000Y-103632000D02*
X155702000Y-104267000D01*
X153670000Y-102362000D02*
X153670000Y-104902000D01*
X155067000Y-103632000D02*
X155702000Y-103632000D01*
X157734000Y-104902000D02*
X153670000Y-104902000D01*
X155702000Y-103632000D02*
X156718000Y-102997000D01*
X155702000Y-102997000D02*
X155702000Y-103632000D01*
X157734000Y-104902000D02*
X157734000Y-102362000D01*
G36*
X159639000Y-104013000D02*
G01*
X157734000Y-104013000D01*
X157734000Y-103251000D01*
X159639000Y-103251000D01*
X159639000Y-104013000D01*
G37*
G36*
X153670000Y-104013000D02*
G01*
X151765000Y-104013000D01*
X151765000Y-103251000D01*
X153670000Y-103251000D01*
X153670000Y-104013000D01*
G37*
G36*
X154559000Y-104902000D02*
G01*
X154051000Y-104902000D01*
X154051000Y-102362000D01*
X154559000Y-102362000D01*
X154559000Y-104902000D01*
G37*
D11*
X116840000Y-116840000D02*
X116840000Y-132080000D01*
X116840000Y-132080000D02*
X101600000Y-132080000D01*
X101600000Y-116840000D02*
X116840000Y-116840000D01*
X101600000Y-132080000D02*
X101600000Y-116840000D01*
X259080000Y-76200000D02*
X259080000Y-91440000D01*
X243840000Y-76200000D02*
X259080000Y-76200000D01*
X259080000Y-91440000D02*
X243840000Y-91440000D01*
X243840000Y-91440000D02*
X243840000Y-76200000D01*
D12*
X125730000Y-89662000D02*
X121666000Y-89662000D01*
X121666000Y-87122000D02*
X125730000Y-87122000D01*
X121666000Y-87122000D02*
X121666000Y-89662000D01*
X123698000Y-88392000D02*
X122174000Y-88392000D01*
X123698000Y-88392000D02*
X122682000Y-89027000D01*
X125730000Y-89662000D02*
X125730000Y-87122000D01*
X124333000Y-88392000D02*
X123698000Y-88392000D01*
X123698000Y-89027000D02*
X123698000Y-88392000D01*
X122682000Y-89027000D02*
X122682000Y-87757000D01*
X123698000Y-88392000D02*
X123698000Y-87757000D01*
X122682000Y-87757000D02*
X123698000Y-88392000D01*
G36*
X125349000Y-89662000D02*
G01*
X124841000Y-89662000D01*
X124841000Y-87122000D01*
X125349000Y-87122000D01*
X125349000Y-89662000D01*
G37*
G36*
X121666000Y-88773000D02*
G01*
X119761000Y-88773000D01*
X119761000Y-88011000D01*
X121666000Y-88011000D01*
X121666000Y-88773000D01*
G37*
G36*
X127635000Y-88773000D02*
G01*
X125730000Y-88773000D01*
X125730000Y-88011000D01*
X127635000Y-88011000D01*
X127635000Y-88773000D01*
G37*
X123698000Y-109728000D02*
X122174000Y-109728000D01*
X122682000Y-109093000D02*
X123698000Y-109728000D01*
X123698000Y-109728000D02*
X123698000Y-109093000D01*
X124333000Y-109728000D02*
X123698000Y-109728000D01*
X122682000Y-110363000D02*
X122682000Y-109093000D01*
X121666000Y-108458000D02*
X121666000Y-110998000D01*
X123698000Y-109728000D02*
X122682000Y-110363000D01*
X123698000Y-110363000D02*
X123698000Y-109728000D01*
X121666000Y-108458000D02*
X125730000Y-108458000D01*
X125730000Y-110998000D02*
X121666000Y-110998000D01*
X125730000Y-110998000D02*
X125730000Y-108458000D01*
G36*
X121666000Y-110109000D02*
G01*
X119761000Y-110109000D01*
X119761000Y-109347000D01*
X121666000Y-109347000D01*
X121666000Y-110109000D01*
G37*
G36*
X127635000Y-110109000D02*
G01*
X125730000Y-110109000D01*
X125730000Y-109347000D01*
X127635000Y-109347000D01*
X127635000Y-110109000D01*
G37*
G36*
X125349000Y-110998000D02*
G01*
X124841000Y-110998000D01*
X124841000Y-108458000D01*
X125349000Y-108458000D01*
X125349000Y-110998000D01*
G37*
D11*
X203200000Y-96740000D02*
X218440000Y-96740000D01*
X218440000Y-111980000D02*
X203200000Y-111980000D01*
X203200000Y-111980000D02*
X203200000Y-96740000D01*
X218440000Y-96740000D02*
X218440000Y-111980000D01*
D12*
X124333000Y-103632000D02*
X123698000Y-103632000D01*
X121666000Y-102362000D02*
X125730000Y-102362000D01*
X122682000Y-104267000D02*
X122682000Y-102997000D01*
X125730000Y-104902000D02*
X125730000Y-102362000D01*
X123698000Y-103632000D02*
X123698000Y-102997000D01*
X123698000Y-103632000D02*
X122682000Y-104267000D01*
X122682000Y-102997000D02*
X123698000Y-103632000D01*
X121666000Y-102362000D02*
X121666000Y-104902000D01*
X125730000Y-104902000D02*
X121666000Y-104902000D01*
X123698000Y-104267000D02*
X123698000Y-103632000D01*
X123698000Y-103632000D02*
X122174000Y-103632000D01*
G36*
X125349000Y-104902000D02*
G01*
X124841000Y-104902000D01*
X124841000Y-102362000D01*
X125349000Y-102362000D01*
X125349000Y-104902000D01*
G37*
G36*
X121666000Y-104013000D02*
G01*
X119761000Y-104013000D01*
X119761000Y-103251000D01*
X121666000Y-103251000D01*
X121666000Y-104013000D01*
G37*
G36*
X127635000Y-104013000D02*
G01*
X125730000Y-104013000D01*
X125730000Y-103251000D01*
X127635000Y-103251000D01*
X127635000Y-104013000D01*
G37*
X125730000Y-123190000D02*
X121666000Y-123190000D01*
X125730000Y-123190000D02*
X125730000Y-120650000D01*
X122682000Y-122555000D02*
X122682000Y-121285000D01*
X123698000Y-121920000D02*
X122174000Y-121920000D01*
X123698000Y-121920000D02*
X123698000Y-121285000D01*
X123698000Y-122555000D02*
X123698000Y-121920000D01*
X121666000Y-120650000D02*
X125730000Y-120650000D01*
X122682000Y-121285000D02*
X123698000Y-121920000D01*
X123698000Y-121920000D02*
X122682000Y-122555000D01*
X124333000Y-121920000D02*
X123698000Y-121920000D01*
X121666000Y-120650000D02*
X121666000Y-123190000D01*
G36*
X125349000Y-123190000D02*
G01*
X124841000Y-123190000D01*
X124841000Y-120650000D01*
X125349000Y-120650000D01*
X125349000Y-123190000D01*
G37*
G36*
X121666000Y-122301000D02*
G01*
X119761000Y-122301000D01*
X119761000Y-121539000D01*
X121666000Y-121539000D01*
X121666000Y-122301000D01*
G37*
G36*
X127635000Y-122301000D02*
G01*
X125730000Y-122301000D01*
X125730000Y-121539000D01*
X127635000Y-121539000D01*
X127635000Y-122301000D01*
G37*
D11*
X20320000Y-76200000D02*
X35560000Y-76200000D01*
X20320000Y-91440000D02*
X20320000Y-76200000D01*
X35560000Y-76200000D02*
X35560000Y-91440000D01*
X35560000Y-91440000D02*
X20320000Y-91440000D01*
D12*
X125730000Y-129286000D02*
X125730000Y-126746000D01*
X121666000Y-126746000D02*
X125730000Y-126746000D01*
X122682000Y-127381000D02*
X123698000Y-128016000D01*
X122682000Y-128651000D02*
X122682000Y-127381000D01*
X123698000Y-128016000D02*
X122682000Y-128651000D01*
X123698000Y-128016000D02*
X123698000Y-127381000D01*
X121666000Y-126746000D02*
X121666000Y-129286000D01*
X125730000Y-129286000D02*
X121666000Y-129286000D01*
X124333000Y-128016000D02*
X123698000Y-128016000D01*
X123698000Y-128016000D02*
X122174000Y-128016000D01*
X123698000Y-128651000D02*
X123698000Y-128016000D01*
G36*
X125349000Y-129286000D02*
G01*
X124841000Y-129286000D01*
X124841000Y-126746000D01*
X125349000Y-126746000D01*
X125349000Y-129286000D01*
G37*
G36*
X121666000Y-128397000D02*
G01*
X119761000Y-128397000D01*
X119761000Y-127635000D01*
X121666000Y-127635000D01*
X121666000Y-128397000D01*
G37*
G36*
X127635000Y-128397000D02*
G01*
X125730000Y-128397000D01*
X125730000Y-127635000D01*
X127635000Y-127635000D01*
X127635000Y-128397000D01*
G37*
%LPC*%
D16*
X88900000Y-83820000D03*
D17*
X83820000Y-83820000D03*
X93980000Y-83820000D03*
D18*
X85090000Y-81280000D03*
X91440000Y-78740000D03*
D19*
X118618000Y-100584000D03*
X128778000Y-100584000D03*
X118618000Y-112776000D03*
X128778000Y-112776000D03*
X160782000Y-109728000D03*
X150622000Y-109728000D03*
D20*
X123444000Y-80518000D03*
D16*
X190500000Y-124460000D03*
D17*
X185420000Y-124460000D03*
X195580000Y-124460000D03*
D18*
X186690000Y-121920000D03*
X193040000Y-119380000D03*
D19*
X160782000Y-118872000D03*
X150622000Y-118872000D03*
D16*
X68580000Y-124460000D03*
D17*
X63500000Y-124460000D03*
X73660000Y-124460000D03*
D18*
X64770000Y-121920000D03*
X71120000Y-119380000D03*
D16*
X48260000Y-104140000D03*
D17*
X43180000Y-104140000D03*
X53340000Y-104140000D03*
D18*
X44450000Y-101600000D03*
X50800000Y-99060000D03*
D16*
X68580000Y-83820000D03*
D17*
X63500000Y-83820000D03*
X73660000Y-83820000D03*
D18*
X64770000Y-81280000D03*
X71120000Y-78740000D03*
D19*
X118618000Y-106680000D03*
X128778000Y-106680000D03*
X160782000Y-115824000D03*
X150622000Y-115824000D03*
D16*
X210820000Y-83820000D03*
D17*
X205740000Y-83820000D03*
X215900000Y-83820000D03*
D18*
X207010000Y-81280000D03*
X213360000Y-78740000D03*
D21*
X144700000Y-129780000D03*
X134700000Y-129780000D03*
X139700000Y-129780000D03*
X144700000Y-114780000D03*
X134700000Y-114780000D03*
D16*
X48260000Y-124460000D03*
D17*
X43180000Y-124460000D03*
X53340000Y-124460000D03*
D18*
X44450000Y-121920000D03*
X50800000Y-119380000D03*
D16*
X68580000Y-104140000D03*
D17*
X63500000Y-104140000D03*
X73660000Y-104140000D03*
D18*
X64770000Y-101600000D03*
X71120000Y-99060000D03*
D16*
X231140000Y-104360000D03*
D17*
X226060000Y-104360000D03*
X236220000Y-104360000D03*
D18*
X227330000Y-101820000D03*
X233680000Y-99280000D03*
D16*
X231140000Y-83820000D03*
D17*
X226060000Y-83820000D03*
X236220000Y-83820000D03*
D18*
X227330000Y-81280000D03*
X233680000Y-78740000D03*
D19*
X160782000Y-100584000D03*
X150622000Y-100584000D03*
X160782000Y-97536000D03*
X150622000Y-97536000D03*
X160782000Y-112776000D03*
X150622000Y-112776000D03*
X118618000Y-124968000D03*
X128778000Y-124968000D03*
D16*
X88900000Y-124460000D03*
D17*
X83820000Y-124460000D03*
X93980000Y-124460000D03*
D18*
X85090000Y-121920000D03*
X91440000Y-119380000D03*
D16*
X190500000Y-83820000D03*
D17*
X185420000Y-83820000D03*
X195580000Y-83820000D03*
D18*
X186690000Y-81280000D03*
X193040000Y-78740000D03*
D16*
X170180000Y-83820000D03*
D17*
X165100000Y-83820000D03*
X175260000Y-83820000D03*
D18*
X166370000Y-81280000D03*
X172720000Y-78740000D03*
D16*
X170180000Y-104360000D03*
D17*
X165100000Y-104360000D03*
X175260000Y-104360000D03*
D18*
X166370000Y-101820000D03*
X172720000Y-99280000D03*
D22*
X132080000Y-76200000D03*
X132080000Y-78740000D03*
X132080000Y-81280000D03*
X132080000Y-83820000D03*
X132080000Y-86360000D03*
X132080000Y-88900000D03*
X132080000Y-91440000D03*
X132080000Y-93980000D03*
X132080000Y-96520000D03*
X132080000Y-99060000D03*
X132080000Y-101600000D03*
X132080000Y-104140000D03*
X147320000Y-104140000D03*
X147320000Y-101600000D03*
X147320000Y-99060000D03*
X147320000Y-96520000D03*
X147320000Y-93980000D03*
X147320000Y-91440000D03*
X147320000Y-88900000D03*
X147320000Y-86360000D03*
X147320000Y-83820000D03*
X147320000Y-81280000D03*
X147320000Y-78740000D03*
X147320000Y-76200000D03*
D19*
X118618000Y-115824000D03*
X128778000Y-115824000D03*
D16*
X190500000Y-104360000D03*
D17*
X185420000Y-104360000D03*
X195580000Y-104360000D03*
D18*
X186690000Y-101820000D03*
X193040000Y-99280000D03*
D16*
X109220000Y-104140000D03*
D17*
X104140000Y-104140000D03*
X114300000Y-104140000D03*
D18*
X105410000Y-101600000D03*
X111760000Y-99060000D03*
D19*
X118618000Y-118872000D03*
X128778000Y-118872000D03*
X118618000Y-97536000D03*
X128778000Y-97536000D03*
X160782000Y-91440000D03*
X150622000Y-91440000D03*
X160782000Y-106680000D03*
X150622000Y-106680000D03*
X118618000Y-91440000D03*
X128778000Y-91440000D03*
X160782000Y-85344000D03*
X150622000Y-85344000D03*
X160782000Y-88392000D03*
X150622000Y-88392000D03*
D20*
X38100000Y-114300000D03*
D16*
X109220000Y-83820000D03*
D17*
X104140000Y-83820000D03*
X114300000Y-83820000D03*
D18*
X105410000Y-81280000D03*
X111760000Y-78740000D03*
D19*
X160782000Y-94488000D03*
X150622000Y-94488000D03*
D16*
X48260000Y-83820000D03*
D17*
X43180000Y-83820000D03*
X53340000Y-83820000D03*
D18*
X44450000Y-81280000D03*
X50800000Y-78740000D03*
D16*
X170180000Y-124460000D03*
D17*
X165100000Y-124460000D03*
X175260000Y-124460000D03*
D18*
X166370000Y-121920000D03*
X172720000Y-119380000D03*
D16*
X88900000Y-104140000D03*
D17*
X83820000Y-104140000D03*
X93980000Y-104140000D03*
D18*
X85090000Y-101600000D03*
X91440000Y-99060000D03*
D19*
X118618000Y-94488000D03*
X128778000Y-94488000D03*
D16*
X27940000Y-124460000D03*
D17*
X22860000Y-124460000D03*
X33020000Y-124460000D03*
D18*
X24130000Y-121920000D03*
X30480000Y-119380000D03*
D20*
X155702000Y-80518000D03*
D16*
X27940000Y-104140000D03*
D17*
X22860000Y-104140000D03*
X33020000Y-104140000D03*
D18*
X24130000Y-101600000D03*
X30480000Y-99060000D03*
D19*
X118618000Y-85344000D03*
X128778000Y-85344000D03*
D23*
X152452000Y-127726000D03*
X158952000Y-127726000D03*
X158952000Y-123226000D03*
X152452000Y-123226000D03*
D19*
X160782000Y-103632000D03*
X150622000Y-103632000D03*
D20*
X180594000Y-114554000D03*
D16*
X109220000Y-124460000D03*
D17*
X104140000Y-124460000D03*
X114300000Y-124460000D03*
D18*
X105410000Y-121920000D03*
X111760000Y-119380000D03*
D16*
X251460000Y-83820000D03*
D17*
X246380000Y-83820000D03*
X256540000Y-83820000D03*
D18*
X247650000Y-81280000D03*
X254000000Y-78740000D03*
D19*
X118618000Y-88392000D03*
X128778000Y-88392000D03*
X118618000Y-109728000D03*
X128778000Y-109728000D03*
D16*
X210820000Y-104360000D03*
D17*
X205740000Y-104360000D03*
X215900000Y-104360000D03*
D18*
X207010000Y-101820000D03*
X213360000Y-99280000D03*
D20*
X78740000Y-93980000D03*
D19*
X118618000Y-103632000D03*
X128778000Y-103632000D03*
X118618000Y-121920000D03*
X128778000Y-121920000D03*
D16*
X27940000Y-83820000D03*
D17*
X22860000Y-83820000D03*
X33020000Y-83820000D03*
D18*
X24130000Y-81280000D03*
X30480000Y-78740000D03*
D20*
X220980000Y-93980000D03*
D19*
X118618000Y-128016000D03*
X128778000Y-128016000D03*
M02*
